solid OpenSCAD_Model
  facet normal -1 0 0
    outer loop
      vertex 0 30 0
      vertex 0 4 4
      vertex 0 30 4
    endloop
  endfacet
  facet normal -1 0 0
    outer loop
      vertex 0 0 0
      vertex 0 4 4
      vertex 0 30 0
    endloop
  endfacet
  facet normal -1 0 0
    outer loop
      vertex 0 0 30
      vertex 0 4 4
      vertex 0 0 0
    endloop
  endfacet
  facet normal -1 0 0
    outer loop
      vertex 0 4 4
      vertex 0 0 30
      vertex 0 4 30
    endloop
  endfacet
  facet normal -0 0 1
    outer loop
      vertex 0 4 30
      vertex 30 0 30
      vertex 30 4 30
    endloop
  endfacet
  facet normal 0 0 1
    outer loop
      vertex 30 0 30
      vertex 0 4 30
      vertex 0 0 30
    endloop
  endfacet
  facet normal 1 0 0
    outer loop
      vertex 30 4 30
      vertex 30 0 30
      vertex 30 4 4
    endloop
  endfacet
  facet normal 1 -0 0
    outer loop
      vertex 30 4 4
      vertex 30 30 0
      vertex 30 30 4
    endloop
  endfacet
  facet normal 1 0 0
    outer loop
      vertex 30 4 4
      vertex 30 0 0
      vertex 30 30 0
    endloop
  endfacet
  facet normal 1 0 0
    outer loop
      vertex 30 0 0
      vertex 30 4 4
      vertex 30 0 30
    endloop
  endfacet
  facet normal 0 1 -0
    outer loop
      vertex 30 30 0
      vertex 0 30 4
      vertex 30 30 4
    endloop
  endfacet
  facet normal 0 1 0
    outer loop
      vertex 0 30 4
      vertex 30 30 0
      vertex 0 30 0
    endloop
  endfacet
  facet normal 0 0 -1
    outer loop
      vertex 30 0 0
      vertex 18 17 0
      vertex 30 30 0
    endloop
  endfacet
  facet normal 0 0 -1
    outer loop
      vertex 30 0 0
      vertex 17.4271 15.2366 0
      vertex 18 17 0
    endloop
  endfacet
  facet normal 0 0 -1
    outer loop
      vertex 30 0 0
      vertex 15.9271 14.1468 0
      vertex 17.4271 15.2366 0
    endloop
  endfacet
  facet normal 0 0 -1
    outer loop
      vertex 30 0 0
      vertex 14.0729 14.1468 0
      vertex 15.9271 14.1468 0
    endloop
  endfacet
  facet normal 0 0 -1
    outer loop
      vertex 0 0 0
      vertex 14.0729 14.1468 0
      vertex 30 0 0
    endloop
  endfacet
  facet normal -0 0 -1
    outer loop
      vertex 12.5729 15.2366 0
      vertex 0 0 0
      vertex 12 17 0
    endloop
  endfacet
  facet normal -0 0 -1
    outer loop
      vertex 14.0729 14.1468 0
      vertex 0 0 0
      vertex 12.5729 15.2366 0
    endloop
  endfacet
  facet normal 0 0 -1
    outer loop
      vertex 17.4271 18.7634 0
      vertex 30 30 0
      vertex 18 17 0
    endloop
  endfacet
  facet normal 0 0 -1
    outer loop
      vertex 15.9271 19.8532 0
      vertex 30 30 0
      vertex 17.4271 18.7634 0
    endloop
  endfacet
  facet normal 0 0 -1
    outer loop
      vertex 14.0729 19.8532 0
      vertex 30 30 0
      vertex 15.9271 19.8532 0
    endloop
  endfacet
  facet normal 0 0 -1
    outer loop
      vertex 0 30 0
      vertex 12 17 0
      vertex 0 0 0
    endloop
  endfacet
  facet normal 0 0 -1
    outer loop
      vertex 14.0729 19.8532 0
      vertex 0 30 0
      vertex 30 30 0
    endloop
  endfacet
  facet normal 0 0 -1
    outer loop
      vertex 12.5729 18.7634 0
      vertex 0 30 0
      vertex 14.0729 19.8532 0
    endloop
  endfacet
  facet normal 0 0 -1
    outer loop
      vertex 12 17 0
      vertex 0 30 0
      vertex 12.5729 18.7634 0
    endloop
  endfacet
  facet normal 0 -1 0
    outer loop
      vertex 0 0 30
      vertex 14.0729 0 19.8532
      vertex 30 0 30
    endloop
  endfacet
  facet normal 0 -1 0
    outer loop
      vertex 0 0 30
      vertex 12.5729 0 18.7634
      vertex 14.0729 0 19.8532
    endloop
  endfacet
  facet normal 0 -1 0
    outer loop
      vertex 0 0 30
      vertex 12 0 17
      vertex 12.5729 0 18.7634
    endloop
  endfacet
  facet normal 0 -1 0
    outer loop
      vertex 0 0 0
      vertex 12 0 17
      vertex 0 0 30
    endloop
  endfacet
  facet normal 0 -1 -0
    outer loop
      vertex 14.0729 0 14.1468
      vertex 0 0 0
      vertex 15.9271 0 14.1468
    endloop
  endfacet
  facet normal 0 -1 -0
    outer loop
      vertex 12.5729 0 15.2366
      vertex 0 0 0
      vertex 14.0729 0 14.1468
    endloop
  endfacet
  facet normal 0 -1 -0
    outer loop
      vertex 12 0 17
      vertex 0 0 0
      vertex 12.5729 0 15.2366
    endloop
  endfacet
  facet normal 0 -1 0
    outer loop
      vertex 15.9271 0 19.8532
      vertex 30 0 30
      vertex 14.0729 0 19.8532
    endloop
  endfacet
  facet normal 0 -1 0
    outer loop
      vertex 17.4271 0 18.7634
      vertex 30 0 30
      vertex 15.9271 0 19.8532
    endloop
  endfacet
  facet normal 0 -1 0
    outer loop
      vertex 18 0 17
      vertex 30 0 30
      vertex 17.4271 0 18.7634
    endloop
  endfacet
  facet normal 0 -1 0
    outer loop
      vertex 30 0 0
      vertex 18 0 17
      vertex 17.4271 0 15.2366
    endloop
  endfacet
  facet normal 0 -1 0
    outer loop
      vertex 30 0 0
      vertex 15.9271 0 14.1468
      vertex 0 0 0
    endloop
  endfacet
  facet normal 0 -1 0
    outer loop
      vertex 18 0 17
      vertex 30 0 0
      vertex 30 0 30
    endloop
  endfacet
  facet normal 0 -1 0
    outer loop
      vertex 15.9271 0 14.1468
      vertex 30 0 0
      vertex 17.4271 0 15.2366
    endloop
  endfacet
  facet normal 0 0 1
    outer loop
      vertex 30 30 4
      vertex 18 17 4
      vertex 30 4 4
    endloop
  endfacet
  facet normal 0 0 1
    outer loop
      vertex 30 30 4
      vertex 17.4271 18.7634 4
      vertex 18 17 4
    endloop
  endfacet
  facet normal 0 0 1
    outer loop
      vertex 30 30 4
      vertex 15.9271 19.8532 4
      vertex 17.4271 18.7634 4
    endloop
  endfacet
  facet normal 0 0 1
    outer loop
      vertex 30 30 4
      vertex 14.0729 19.8532 4
      vertex 15.9271 19.8532 4
    endloop
  endfacet
  facet normal 0 0 1
    outer loop
      vertex 12.5729 18.7634 4
      vertex 0 30 4
      vertex 12 17 4
    endloop
  endfacet
  facet normal 0 0 1
    outer loop
      vertex 14.0729 19.8532 4
      vertex 0 30 4
      vertex 12.5729 18.7634 4
    endloop
  endfacet
  facet normal -0 0 1
    outer loop
      vertex 0 30 4
      vertex 14.0729 19.8532 4
      vertex 30 30 4
    endloop
  endfacet
  facet normal -0 0 1
    outer loop
      vertex 17.4271 15.2366 4
      vertex 30 4 4
      vertex 18 17 4
    endloop
  endfacet
  facet normal -0 0 1
    outer loop
      vertex 15.9271 14.1468 4
      vertex 30 4 4
      vertex 17.4271 15.2366 4
    endloop
  endfacet
  facet normal -0 0 1
    outer loop
      vertex 14.0729 14.1468 4
      vertex 30 4 4
      vertex 15.9271 14.1468 4
    endloop
  endfacet
  facet normal 0 0 1
    outer loop
      vertex 0 4 4
      vertex 12 17 4
      vertex 0 30 4
    endloop
  endfacet
  facet normal 0 0 1
    outer loop
      vertex 14.0729 14.1468 4
      vertex 0 4 4
      vertex 30 4 4
    endloop
  endfacet
  facet normal 0 0 1
    outer loop
      vertex 12.5729 15.2366 4
      vertex 0 4 4
      vertex 14.0729 14.1468 4
    endloop
  endfacet
  facet normal 0 0 1
    outer loop
      vertex 12 17 4
      vertex 0 4 4
      vertex 12.5729 15.2366 4
    endloop
  endfacet
  facet normal 0 1 0
    outer loop
      vertex 30 4 30
      vertex 15.9271 4 19.8532
      vertex 0 4 30
    endloop
  endfacet
  facet normal 0 1 0
    outer loop
      vertex 30 4 30
      vertex 17.4271 4 18.7634
      vertex 15.9271 4 19.8532
    endloop
  endfacet
  facet normal 0 1 0
    outer loop
      vertex 30 4 30
      vertex 18 4 17
      vertex 17.4271 4 18.7634
    endloop
  endfacet
  facet normal 0 1 -0
    outer loop
      vertex 30 4 4
      vertex 18 4 17
      vertex 30 4 30
    endloop
  endfacet
  facet normal 0 1 0
    outer loop
      vertex 15.9271 4 14.1468
      vertex 30 4 4
      vertex 14.0729 4 14.1468
    endloop
  endfacet
  facet normal 0 1 0
    outer loop
      vertex 17.4271 4 15.2366
      vertex 30 4 4
      vertex 15.9271 4 14.1468
    endloop
  endfacet
  facet normal 0 1 0
    outer loop
      vertex 18 4 17
      vertex 30 4 4
      vertex 17.4271 4 15.2366
    endloop
  endfacet
  facet normal 0 1 -0
    outer loop
      vertex 14.0729 4 19.8532
      vertex 0 4 30
      vertex 15.9271 4 19.8532
    endloop
  endfacet
  facet normal 0 1 -0
    outer loop
      vertex 12.5729 4 18.7634
      vertex 0 4 30
      vertex 14.0729 4 19.8532
    endloop
  endfacet
  facet normal 0 1 -0
    outer loop
      vertex 12 4 17
      vertex 0 4 30
      vertex 12.5729 4 18.7634
    endloop
  endfacet
  facet normal 0 1 0
    outer loop
      vertex 0 4 4
      vertex 12 4 17
      vertex 12.5729 4 15.2366
    endloop
  endfacet
  facet normal 0 1 0
    outer loop
      vertex 12 4 17
      vertex 0 4 4
      vertex 0 4 30
    endloop
  endfacet
  facet normal 0 1 0
    outer loop
      vertex 14.0729 4 14.1468
      vertex 0 4 4
      vertex 12.5729 4 15.2366
    endloop
  endfacet
  facet normal 0 1 0
    outer loop
      vertex 0 4 4
      vertex 14.0729 4 14.1468
      vertex 30 4 4
    endloop
  endfacet
  facet normal -0.951057 -0.309017 0
    outer loop
      vertex 18 17 0
      vertex 17.4271 18.7634 4
      vertex 17.4271 18.7634 0
    endloop
  endfacet
  facet normal -0.951057 -0.309017 0
    outer loop
      vertex 17.4271 18.7634 4
      vertex 18 17 0
      vertex 18 17 4
    endloop
  endfacet
  facet normal 0.951057 0.309017 0
    outer loop
      vertex 12.5729 15.2366 4
      vertex 12 17 0
      vertex 12 17 4
    endloop
  endfacet
  facet normal 0.951057 0.309017 0
    outer loop
      vertex 12 17 0
      vertex 12.5729 15.2366 4
      vertex 12.5729 15.2366 0
    endloop
  endfacet
  facet normal 0 -1 0
    outer loop
      vertex 14.0729 19.8532 0
      vertex 15.9271 19.8532 4
      vertex 14.0729 19.8532 4
    endloop
  endfacet
  facet normal 0 -1 -0
    outer loop
      vertex 15.9271 19.8532 4
      vertex 14.0729 19.8532 0
      vertex 15.9271 19.8532 0
    endloop
  endfacet
  facet normal -0.587785 -0.809017 0
    outer loop
      vertex 15.9271 19.8532 0
      vertex 17.4271 18.7634 4
      vertex 15.9271 19.8532 4
    endloop
  endfacet
  facet normal -0.587785 -0.809017 -0
    outer loop
      vertex 17.4271 18.7634 4
      vertex 15.9271 19.8532 0
      vertex 17.4271 18.7634 0
    endloop
  endfacet
  facet normal 0.587785 -0.809017 0
    outer loop
      vertex 12.5729 18.7634 0
      vertex 14.0729 19.8532 4
      vertex 12.5729 18.7634 4
    endloop
  endfacet
  facet normal 0.587785 -0.809017 0
    outer loop
      vertex 14.0729 19.8532 4
      vertex 12.5729 18.7634 0
      vertex 14.0729 19.8532 0
    endloop
  endfacet
  facet normal -0.587785 0.809017 0
    outer loop
      vertex 17.4271 15.2366 0
      vertex 15.9271 14.1468 4
      vertex 17.4271 15.2366 4
    endloop
  endfacet
  facet normal -0.587785 0.809017 0
    outer loop
      vertex 15.9271 14.1468 4
      vertex 17.4271 15.2366 0
      vertex 15.9271 14.1468 0
    endloop
  endfacet
  facet normal 0.587785 0.809017 -0
    outer loop
      vertex 14.0729 14.1468 0
      vertex 12.5729 15.2366 4
      vertex 14.0729 14.1468 4
    endloop
  endfacet
  facet normal 0.587785 0.809017 0
    outer loop
      vertex 12.5729 15.2366 4
      vertex 14.0729 14.1468 0
      vertex 12.5729 15.2366 0
    endloop
  endfacet
  facet normal 0.951057 -0.309017 0
    outer loop
      vertex 12 17 4
      vertex 12.5729 18.7634 0
      vertex 12.5729 18.7634 4
    endloop
  endfacet
  facet normal 0.951057 -0.309017 0
    outer loop
      vertex 12.5729 18.7634 0
      vertex 12 17 4
      vertex 12 17 0
    endloop
  endfacet
  facet normal -0.951057 0.309017 0
    outer loop
      vertex 17.4271 15.2366 0
      vertex 18 17 4
      vertex 18 17 0
    endloop
  endfacet
  facet normal -0.951057 0.309017 0
    outer loop
      vertex 18 17 4
      vertex 17.4271 15.2366 0
      vertex 17.4271 15.2366 4
    endloop
  endfacet
  facet normal 0 1 -0
    outer loop
      vertex 15.9271 14.1468 0
      vertex 14.0729 14.1468 4
      vertex 15.9271 14.1468 4
    endloop
  endfacet
  facet normal 0 1 0
    outer loop
      vertex 14.0729 14.1468 4
      vertex 15.9271 14.1468 0
      vertex 14.0729 14.1468 0
    endloop
  endfacet
  facet normal -0.951057 0 0.309017
    outer loop
      vertex 17.4271 0 15.2366
      vertex 18 4 17
      vertex 17.4271 4 15.2366
    endloop
  endfacet
  facet normal -0.951057 0 0.309017
    outer loop
      vertex 18 4 17
      vertex 17.4271 0 15.2366
      vertex 18 0 17
    endloop
  endfacet
  facet normal -0 0 1
    outer loop
      vertex 14.0729 4 14.1468
      vertex 15.9271 0 14.1468
      vertex 15.9271 4 14.1468
    endloop
  endfacet
  facet normal 0 0 1
    outer loop
      vertex 15.9271 0 14.1468
      vertex 14.0729 4 14.1468
      vertex 14.0729 0 14.1468
    endloop
  endfacet
  facet normal -0.587785 0 0.809017
    outer loop
      vertex 15.9271 4 14.1468
      vertex 17.4271 0 15.2366
      vertex 17.4271 4 15.2366
    endloop
  endfacet
  facet normal -0.587785 0 0.809017
    outer loop
      vertex 17.4271 0 15.2366
      vertex 15.9271 4 14.1468
      vertex 15.9271 0 14.1468
    endloop
  endfacet
  facet normal 0.587785 0 0.809017
    outer loop
      vertex 12.5729 4 15.2366
      vertex 14.0729 0 14.1468
      vertex 14.0729 4 14.1468
    endloop
  endfacet
  facet normal 0.587785 0 0.809017
    outer loop
      vertex 14.0729 0 14.1468
      vertex 12.5729 4 15.2366
      vertex 12.5729 0 15.2366
    endloop
  endfacet
  facet normal -0.587785 0 -0.809017
    outer loop
      vertex 15.9271 0 19.8532
      vertex 17.4271 4 18.7634
      vertex 17.4271 0 18.7634
    endloop
  endfacet
  facet normal -0.587785 0 -0.809017
    outer loop
      vertex 17.4271 4 18.7634
      vertex 15.9271 0 19.8532
      vertex 15.9271 4 19.8532
    endloop
  endfacet
  facet normal 0.587785 0 -0.809017
    outer loop
      vertex 12.5729 0 18.7634
      vertex 14.0729 4 19.8532
      vertex 14.0729 0 19.8532
    endloop
  endfacet
  facet normal 0.587785 0 -0.809017
    outer loop
      vertex 14.0729 4 19.8532
      vertex 12.5729 0 18.7634
      vertex 12.5729 4 18.7634
    endloop
  endfacet
  facet normal 0.951057 -0 0.309017
    outer loop
      vertex 12 0 17
      vertex 12.5729 4 15.2366
      vertex 12 4 17
    endloop
  endfacet
  facet normal 0.951057 0 0.309017
    outer loop
      vertex 12.5729 4 15.2366
      vertex 12 0 17
      vertex 12.5729 0 15.2366
    endloop
  endfacet
  facet normal -0.951057 0 -0.309017
    outer loop
      vertex 18 0 17
      vertex 17.4271 4 18.7634
      vertex 18 4 17
    endloop
  endfacet
  facet normal -0.951057 -0 -0.309017
    outer loop
      vertex 17.4271 4 18.7634
      vertex 18 0 17
      vertex 17.4271 0 18.7634
    endloop
  endfacet
  facet normal 0 0 -1
    outer loop
      vertex 14.0729 0 19.8532
      vertex 15.9271 4 19.8532
      vertex 15.9271 0 19.8532
    endloop
  endfacet
  facet normal -0 0 -1
    outer loop
      vertex 15.9271 4 19.8532
      vertex 14.0729 0 19.8532
      vertex 14.0729 4 19.8532
    endloop
  endfacet
  facet normal 0.951057 0 -0.309017
    outer loop
      vertex 12.5729 0 18.7634
      vertex 12 4 17
      vertex 12.5729 4 18.7634
    endloop
  endfacet
  facet normal 0.951057 0 -0.309017
    outer loop
      vertex 12 4 17
      vertex 12.5729 0 18.7634
      vertex 12 0 17
    endloop
  endfacet
endsolid OpenSCAD_Model
