solid OpenSCAD_Model
  facet normal 0.897334 0.432133 0.0897329
    outer loop
      vertex 11.9492 10.5 7.1
      vertex 11.3717 11.72 7
      vertex 11.8174 10.5 8.41861
    endloop
  endfacet
  facet normal 0.897334 0.432134 0.089736
    outer loop
      vertex 12.2 10 7
      vertex 11.9492 10.5 7.1
      vertex 12.19 10 7.1
    endloop
  endfacet
  facet normal 0.897334 0.432133 0.0897373
    outer loop
      vertex 11.9492 10.5 7.1
      vertex 12.2 10 7
      vertex 11.3717 11.72 7
    endloop
  endfacet
  facet normal -0.620975 0.778677 0.0897335
    outer loop
      vertex 9.55496 11.9499 9
      vertex 8.01787 10.9545 7
      vertex 8.19806 10.8678 9
    endloop
  endfacet
  facet normal 0.221623 0.970995 0.0897335
    outer loop
      vertex 11.3717 11.72 7
      vertex 9.55496 11.9499 9
      vertex 11.247 11.5637 9
    endloop
  endfacet
  facet normal 0.897334 -0.432133 0.0897335
    outer loop
      vertex 11.8174 9.5 8.41861
      vertex 11.3717 8.27997 7
      vertex 11.9492 9.5 7.1
    endloop
  endfacet
  facet normal 0.897335 -0.432132 0.089736
    outer loop
      vertex 11.9492 9.5 7.1
      vertex 12.2 10 7
      vertex 12.19 10 7.1
    endloop
  endfacet
  facet normal 0.897335 -0.432133 0.08973
    outer loop
      vertex 12.2 10 7
      vertex 11.9492 9.5 7.1
      vertex 11.3717 8.27997 7
    endloop
  endfacet
  facet normal -0.995966 6.24368e-07 0.0897335
    outer loop
      vertex 8.01787 10.9545 7
      vertex 8.02688 10.5 7.1
      vertex 8.19806 10.8678 9
    endloop
  endfacet
  facet normal -0.995966 0 0.0897307
    outer loop
      vertex 8.01787 10.9545 7
      vertex 8.02688 9.5 7.1
      vertex 8.02688 10.5 7.1
    endloop
  endfacet
  facet normal -0.995966 0 0.0897336
    outer loop
      vertex 8.02688 9.5 7.1
      vertex 8.19806 9.13223 9
      vertex 8.19806 9.5 9
    endloop
  endfacet
  facet normal -0.995966 -6.24366e-07 0.0897335
    outer loop
      vertex 8.02688 9.5 7.1
      vertex 8.01787 9.04545 7
      vertex 8.19806 9.13223 9
    endloop
  endfacet
  facet normal -0.995966 0 0.0897307
    outer loop
      vertex 8.01787 9.04545 7
      vertex 8.02688 9.5 7.1
      vertex 8.01787 10.9545 7
    endloop
  endfacet
  facet normal -0.995966 0 0.0897336
    outer loop
      vertex 8.19806 10.8678 9
      vertex 8.02688 10.5 7.1
      vertex 8.19806 10.5 9
    endloop
  endfacet
  facet normal 0.221623 0.970995 0.0897333
    outer loop
      vertex 11.3717 11.72 7
      vertex 9.51045 12.1448 7
      vertex 9.55496 11.9499 9
    endloop
  endfacet
  facet normal 0 0 -1
    outer loop
      vertex 11.3717 8.27997 7
      vertex 12 10 7
      vertex 12.2 10 7
    endloop
  endfacet
  facet normal 0 0 -1
    outer loop
      vertex 11.3717 8.27997 7
      vertex 11.247 8.43634 7
      vertex 12 10 7
    endloop
  endfacet
  facet normal -0 0 -1
    outer loop
      vertex 11.3717 8.27997 7
      vertex 9.55496 8.05014 7
      vertex 11.247 8.43634 7
    endloop
  endfacet
  facet normal 0 0 -1
    outer loop
      vertex 9.51045 7.85516 7
      vertex 9.55496 8.05014 7
      vertex 11.3717 8.27997 7
    endloop
  endfacet
  facet normal 0 0 -1
    outer loop
      vertex 9.51045 7.85516 7
      vertex 8.19806 9.13223 7
      vertex 9.55496 8.05014 7
    endloop
  endfacet
  facet normal -0 0 -1
    outer loop
      vertex 8.19806 9.13223 7
      vertex 8.01787 9.04545 7
      vertex 8.19806 10.8678 7
    endloop
  endfacet
  facet normal 0 0 -1
    outer loop
      vertex 8.01787 9.04545 7
      vertex 8.19806 9.13223 7
      vertex 9.51045 7.85516 7
    endloop
  endfacet
  facet normal 0 0 -1
    outer loop
      vertex 12 10 7
      vertex 11.3717 11.72 7
      vertex 12.2 10 7
    endloop
  endfacet
  facet normal 0 0 -1
    outer loop
      vertex 11.247 11.5637 7
      vertex 11.3717 11.72 7
      vertex 12 10 7
    endloop
  endfacet
  facet normal 0 0 -1
    outer loop
      vertex 9.55496 11.9499 7
      vertex 11.3717 11.72 7
      vertex 11.247 11.5637 7
    endloop
  endfacet
  facet normal 0 0 -1
    outer loop
      vertex 9.55496 11.9499 7
      vertex 9.51045 12.1448 7
      vertex 11.3717 11.72 7
    endloop
  endfacet
  facet normal 0 0 -1
    outer loop
      vertex 8.19806 10.8678 7
      vertex 9.51045 12.1448 7
      vertex 9.55496 11.9499 7
    endloop
  endfacet
  facet normal 0 0 -1
    outer loop
      vertex 8.19806 10.8678 7
      vertex 8.01787 10.9545 7
      vertex 9.51045 12.1448 7
    endloop
  endfacet
  facet normal 0 0 -1
    outer loop
      vertex 8.01787 10.9545 7
      vertex 8.19806 10.8678 7
      vertex 8.01787 9.04545 7
    endloop
  endfacet
  facet normal -0.620975 -0.778677 0.0897333
    outer loop
      vertex 9.55496 8.05014 9
      vertex 8.01787 9.04545 7
      vertex 9.51045 7.85516 7
    endloop
  endfacet
  facet normal 0.897334 0.432134 0.0897338
    outer loop
      vertex 11.8174 10.5 8.41861
      vertex 11.247 11.5637 9
      vertex 11.7592 10.5 9
    endloop
  endfacet
  facet normal 0.897334 0.432134 0.0897338
    outer loop
      vertex 11.247 11.5637 9
      vertex 11.8174 10.5 8.41861
      vertex 11.3717 11.72 7
    endloop
  endfacet
  facet normal -0.620975 0.778677 0.0897333
    outer loop
      vertex 9.51045 12.1448 7
      vertex 8.01787 10.9545 7
      vertex 9.55496 11.9499 9
    endloop
  endfacet
  facet normal -0.620975 -0.778677 0.0897335
    outer loop
      vertex 8.19806 9.13223 9
      vertex 8.01787 9.04545 7
      vertex 9.55496 8.05014 9
    endloop
  endfacet
  facet normal 0 0 1
    outer loop
      vertex 9.55496 11.9499 9
      vertex 11.7592 10.5 9
      vertex 11.247 11.5637 9
    endloop
  endfacet
  facet normal 0 0 1
    outer loop
      vertex 8.19806 10.5 9
      vertex 9.55496 11.9499 9
      vertex 8.19806 10.8678 9
    endloop
  endfacet
  facet normal 0 0 1
    outer loop
      vertex 9.55496 11.9499 9
      vertex 8.19806 10.5 9
      vertex 11.7592 10.5 9
    endloop
  endfacet
  facet normal 0 0 1
    outer loop
      vertex 11.7592 9.5 9
      vertex 9.55496 8.05014 9
      vertex 11.247 8.43634 9
    endloop
  endfacet
  facet normal -0 0 1
    outer loop
      vertex 8.19806 9.5 9
      vertex 9.55496 8.05014 9
      vertex 11.7592 9.5 9
    endloop
  endfacet
  facet normal 0 0 1
    outer loop
      vertex 9.55496 8.05014 9
      vertex 8.19806 9.5 9
      vertex 8.19806 9.13223 9
    endloop
  endfacet
  facet normal 0.221623 -0.970995 0.0897333
    outer loop
      vertex 9.55496 8.05014 9
      vertex 9.51045 7.85516 7
      vertex 11.3717 8.27997 7
    endloop
  endfacet
  facet normal 0.221623 -0.970995 0.0897335
    outer loop
      vertex 11.247 8.43634 9
      vertex 9.55496 8.05014 9
      vertex 11.3717 8.27997 7
    endloop
  endfacet
  facet normal 0.897334 -0.432134 0.0897338
    outer loop
      vertex 11.247 8.43634 9
      vertex 11.8174 9.5 8.41861
      vertex 11.7592 9.5 9
    endloop
  endfacet
  facet normal 0.897334 -0.432134 0.0897337
    outer loop
      vertex 11.8174 9.5 8.41861
      vertex 11.247 8.43634 9
      vertex 11.3717 8.27997 7
    endloop
  endfacet
  facet normal 0 0 1
    outer loop
      vertex 11.9492 10.5 7.1
      vertex 11.9492 9.5 7.1
      vertex 12.19 10 7.1
    endloop
  endfacet
  facet normal -0 0 1
    outer loop
      vertex 8.02688 10.5 7.1
      vertex 11.9492 9.5 7.1
      vertex 11.9492 10.5 7.1
    endloop
  endfacet
  facet normal 0 0 1
    outer loop
      vertex 11.9492 9.5 7.1
      vertex 8.02688 10.5 7.1
      vertex 8.02688 9.5 7.1
    endloop
  endfacet
  facet normal 0 1 0
    outer loop
      vertex 11.8174 9.5 8.41861
      vertex 8.19806 9.5 9
      vertex 11.7592 9.5 9
    endloop
  endfacet
  facet normal 0 1 0
    outer loop
      vertex 8.02688 9.5 7.1
      vertex 11.8174 9.5 8.41861
      vertex 11.9492 9.5 7.1
    endloop
  endfacet
  facet normal 0 1 0
    outer loop
      vertex 11.8174 9.5 8.41861
      vertex 8.02688 9.5 7.1
      vertex 8.19806 9.5 9
    endloop
  endfacet
  facet normal 0 -1 0
    outer loop
      vertex 8.19806 10.5 9
      vertex 11.8174 10.5 8.41861
      vertex 11.7592 10.5 9
    endloop
  endfacet
  facet normal 0 -1 0
    outer loop
      vertex 8.02688 10.5 7.1
      vertex 11.8174 10.5 8.41861
      vertex 8.19806 10.5 9
    endloop
  endfacet
  facet normal 0 -1 -0
    outer loop
      vertex 11.8174 10.5 8.41861
      vertex 8.02688 10.5 7.1
      vertex 11.9492 10.5 7.1
    endloop
  endfacet
  facet normal 0.809017 0.587786 0
    outer loop
      vertex 6 5 2
      vertex 5.30902 5.95106 0
      vertex 5.30902 5.95106 2
    endloop
  endfacet
  facet normal 0.809017 0.587786 0
    outer loop
      vertex 5.30902 5.95106 0
      vertex 6 5 2
      vertex 6 5 0
    endloop
  endfacet
  facet normal -1 0 0
    outer loop
      vertex 4.19098 4.41221 0
      vertex 4.19098 5.58778 2
      vertex 4.19098 5.58778 0
    endloop
  endfacet
  facet normal -1 -0 0
    outer loop
      vertex 4.19098 5.58778 2
      vertex 4.19098 4.41221 0
      vertex 4.19098 4.41221 2
    endloop
  endfacet
  facet normal -0.309017 0.951056 0
    outer loop
      vertex 5.30902 5.95106 0
      vertex 4.19098 5.58778 2
      vertex 5.30902 5.95106 2
    endloop
  endfacet
  facet normal -0.309017 0.951056 0
    outer loop
      vertex 4.19098 5.58778 2
      vertex 5.30902 5.95106 0
      vertex 4.19098 5.58778 0
    endloop
  endfacet
  facet normal -0.309017 -0.951056 0
    outer loop
      vertex 4.19098 4.41221 0
      vertex 5.30902 4.04894 2
      vertex 4.19098 4.41221 2
    endloop
  endfacet
  facet normal -0.309017 -0.951056 -0
    outer loop
      vertex 5.30902 4.04894 2
      vertex 4.19098 4.41221 0
      vertex 5.30902 4.04894 0
    endloop
  endfacet
  facet normal 0 0 -1
    outer loop
      vertex 5.30902 14.0489 2
      vertex 14.191 14.4122 2
      vertex 5.30902 5.95106 2
    endloop
  endfacet
  facet normal -0 0 -1
    outer loop
      vertex 14.191 14.4122 2
      vertex 5.30902 14.0489 2
      vertex 6 15 2
    endloop
  endfacet
  facet normal 0 0 -1
    outer loop
      vertex 0.218524 7.92088 2
      vertex 5.30902 5.95106 2
      vertex 4.19098 5.58778 2
    endloop
  endfacet
  facet normal 0 0 -1
    outer loop
      vertex 5.30902 5.95106 2
      vertex 0 10 2
      vertex 5.30902 14.0489 2
    endloop
  endfacet
  facet normal 0 0 -1
    outer loop
      vertex 8.95471 19.9452 2
      vertex 6 15 2
      vertex 6.90983 19.5106 2
    endloop
  endfacet
  facet normal 0 0 -1
    outer loop
      vertex 5.30902 15.9511 2
      vertex 6.90983 19.5106 2
      vertex 6 15 2
    endloop
  endfacet
  facet normal 0 0 -1
    outer loop
      vertex 5.30902 15.9511 2
      vertex 5 18.6603 2
      vertex 6.90983 19.5106 2
    endloop
  endfacet
  facet normal 0 0 -1
    outer loop
      vertex 3.30869 17.4314 2
      vertex 5.30902 15.9511 2
      vertex 4.19098 15.5878 2
    endloop
  endfacet
  facet normal 0 0 -1
    outer loop
      vertex 5.30902 15.9511 2
      vertex 3.30869 17.4314 2
      vertex 5 18.6603 2
    endloop
  endfacet
  facet normal 0 0 -1
    outer loop
      vertex 4.19098 14.4122 2
      vertex 3.30869 17.4314 2
      vertex 4.19098 15.5878 2
    endloop
  endfacet
  facet normal 0 0 -1
    outer loop
      vertex 0.218524 7.92088 2
      vertex 4.19098 5.58778 2
      vertex 0.864545 5.93263 2
    endloop
  endfacet
  facet normal 0 0 -1
    outer loop
      vertex 4.19098 14.4122 2
      vertex 1.90983 15.8779 2
      vertex 3.30869 17.4314 2
    endloop
  endfacet
  facet normal 0 0 -1
    outer loop
      vertex 5.30902 5.95106 2
      vertex 0.218524 7.92088 2
      vertex 0 10 2
    endloop
  endfacet
  facet normal -0 0 -1
    outer loop
      vertex 4.19098 14.4122 2
      vertex 0.864545 14.0674 2
      vertex 1.90983 15.8779 2
    endloop
  endfacet
  facet normal 0 -0 -1
    outer loop
      vertex 0.218524 12.0791 2
      vertex 5.30902 14.0489 2
      vertex 0 10 2
    endloop
  endfacet
  facet normal 0 0 -1
    outer loop
      vertex 4.19098 14.4122 2
      vertex 0.218524 12.0791 2
      vertex 0.864545 14.0674 2
    endloop
  endfacet
  facet normal -0 0 -1
    outer loop
      vertex 5.30902 14.0489 2
      vertex 0.218524 12.0791 2
      vertex 4.19098 14.4122 2
    endloop
  endfacet
  facet normal 0 0 -1
    outer loop
      vertex 15.309 14.0489 2
      vertex 20 10 2
      vertex 15.309 5.95106 2
    endloop
  endfacet
  facet normal 0 0 -1
    outer loop
      vertex 20 10 2
      vertex 15.309 14.0489 2
      vertex 16 15 2
    endloop
  endfacet
  facet normal 0 0 -1
    outer loop
      vertex 14.191 5.58778 2
      vertex 15.309 14.0489 2
      vertex 15.309 5.95106 2
    endloop
  endfacet
  facet normal -0 0 -1
    outer loop
      vertex 15.309 14.0489 2
      vertex 14.191 5.58778 2
      vertex 14.191 14.4122 2
    endloop
  endfacet
  facet normal 0 0 -1
    outer loop
      vertex 19.1355 5.93263 2
      vertex 15.309 5.95106 2
      vertex 19.7815 7.92088 2
    endloop
  endfacet
  facet normal 0 0 -1
    outer loop
      vertex 15.309 5.95106 2
      vertex 19.1355 5.93263 2
      vertex 16 5 2
    endloop
  endfacet
  facet normal -0 0 -1
    outer loop
      vertex 19.7815 7.92088 2
      vertex 15.309 5.95106 2
      vertex 20 10 2
    endloop
  endfacet
  facet normal 0 0 -1
    outer loop
      vertex 16 5 2
      vertex 19.1355 5.93263 2
      vertex 18.0902 4.12215 2
    endloop
  endfacet
  facet normal 0 0 -1
    outer loop
      vertex 20 10 2
      vertex 16 15 2
      vertex 19.7815 12.0791 2
    endloop
  endfacet
  facet normal 0 0 -1
    outer loop
      vertex 16 5 2
      vertex 18.0902 4.12215 2
      vertex 16.6913 2.56855 2
    endloop
  endfacet
  facet normal 0 0 -1
    outer loop
      vertex 19.7815 12.0791 2
      vertex 16 15 2
      vertex 19.1355 14.0674 2
    endloop
  endfacet
  facet normal 0 0 -1
    outer loop
      vertex 19.1355 14.0674 2
      vertex 16 15 2
      vertex 18.0902 15.8779 2
    endloop
  endfacet
  facet normal 0 0 -1
    outer loop
      vertex 16.6913 2.56855 2
      vertex 15.309 4.04894 2
      vertex 16 5 2
    endloop
  endfacet
  facet normal 0 0 -1
    outer loop
      vertex 15 1.33975 2
      vertex 15.309 4.04894 2
      vertex 16.6913 2.56855 2
    endloop
  endfacet
  facet normal 0 0 -1
    outer loop
      vertex 15 1.33975 2
      vertex 14.191 4.41221 2
      vertex 15.309 4.04894 2
    endloop
  endfacet
  facet normal 0 0 -1
    outer loop
      vertex 6 5 2
      vertex 14.191 5.58778 2
      vertex 14.191 4.41221 2
    endloop
  endfacet
  facet normal 0 0 -1
    outer loop
      vertex 5.30902 5.95106 2
      vertex 14.191 5.58778 2
      vertex 6 5 2
    endloop
  endfacet
  facet normal 0 0 -1
    outer loop
      vertex 11.0453 0.054781 2
      vertex 14.191 4.41221 2
      vertex 13.0902 0.489434 2
    endloop
  endfacet
  facet normal 0 0 -1
    outer loop
      vertex 13.0902 0.489434 2
      vertex 14.191 4.41221 2
      vertex 15 1.33975 2
    endloop
  endfacet
  facet normal -0 0 -1
    outer loop
      vertex 18.0902 15.8779 2
      vertex 16 15 2
      vertex 16.6913 17.4314 2
    endloop
  endfacet
  facet normal 0 0 -1
    outer loop
      vertex 15.309 15.9511 2
      vertex 16.6913 17.4314 2
      vertex 16 15 2
    endloop
  endfacet
  facet normal 0 0 -1
    outer loop
      vertex 15.309 15.9511 2
      vertex 15 18.6603 2
      vertex 16.6913 17.4314 2
    endloop
  endfacet
  facet normal 0 0 -1
    outer loop
      vertex 14.191 15.5878 2
      vertex 15 18.6603 2
      vertex 15.309 15.9511 2
    endloop
  endfacet
  facet normal 0 0 -1
    outer loop
      vertex 14.191 15.5878 2
      vertex 13.0902 19.5106 2
      vertex 15 18.6603 2
    endloop
  endfacet
  facet normal 0 0 -1
    outer loop
      vertex 14.191 5.58778 2
      vertex 5.30902 5.95106 2
      vertex 14.191 14.4122 2
    endloop
  endfacet
  facet normal -0 0 -1
    outer loop
      vertex 14.191 4.41221 2
      vertex 11.0453 0.054781 2
      vertex 6 5 2
    endloop
  endfacet
  facet normal -0 0 -1
    outer loop
      vertex 11.0453 19.9452 2
      vertex 6 15 2
      vertex 8.95471 19.9452 2
    endloop
  endfacet
  facet normal 0 0 -1
    outer loop
      vertex 6 5 2
      vertex 11.0453 0.054781 2
      vertex 8.95471 0.054781 2
    endloop
  endfacet
  facet normal 0 0 -1
    outer loop
      vertex 14.191 15.5878 2
      vertex 11.0453 19.9452 2
      vertex 13.0902 19.5106 2
    endloop
  endfacet
  facet normal 0 0 -1
    outer loop
      vertex 6 5 2
      vertex 8.95471 0.054781 2
      vertex 6.90983 0.489434 2
    endloop
  endfacet
  facet normal 0 0 -1
    outer loop
      vertex 6 15 2
      vertex 11.0453 19.9452 2
      vertex 14.191 15.5878 2
    endloop
  endfacet
  facet normal 0 0 -1
    outer loop
      vertex 6 15 2
      vertex 14.191 15.5878 2
      vertex 14.191 14.4122 2
    endloop
  endfacet
  facet normal 0 0 -1
    outer loop
      vertex 6.90983 0.489434 2
      vertex 5.30902 4.04894 2
      vertex 6 5 2
    endloop
  endfacet
  facet normal 0 0 -1
    outer loop
      vertex 5 1.33975 2
      vertex 5.30902 4.04894 2
      vertex 6.90983 0.489434 2
    endloop
  endfacet
  facet normal 0 0 -1
    outer loop
      vertex 3.30869 2.56855 2
      vertex 5.30902 4.04894 2
      vertex 5 1.33975 2
    endloop
  endfacet
  facet normal 0 0 -1
    outer loop
      vertex 1.90983 4.12215 2
      vertex 4.19098 4.41221 2
      vertex 3.30869 2.56855 2
    endloop
  endfacet
  facet normal -0 0 -1
    outer loop
      vertex 4.19098 4.41221 2
      vertex 1.90983 4.12215 2
      vertex 4.19098 5.58778 2
    endloop
  endfacet
  facet normal 0 0 -1
    outer loop
      vertex 0.864545 5.93263 2
      vertex 4.19098 5.58778 2
      vertex 1.90983 4.12215 2
    endloop
  endfacet
  facet normal -0 0 -1
    outer loop
      vertex 5.30902 4.04894 2
      vertex 3.30869 2.56855 2
      vertex 4.19098 4.41221 2
    endloop
  endfacet
  facet normal 0 0 -1
    outer loop
      vertex 5.30902 4.04894 0
      vertex 5.30902 5.95106 0
      vertex 6 5 0
    endloop
  endfacet
  facet normal 0 0 -1
    outer loop
      vertex 4.19098 4.41221 0
      vertex 5.30902 5.95106 0
      vertex 5.30902 4.04894 0
    endloop
  endfacet
  facet normal 0 0 -1
    outer loop
      vertex 5.30902 5.95106 0
      vertex 4.19098 4.41221 0
      vertex 4.19098 5.58778 0
    endloop
  endfacet
  facet normal 0.809017 -0.587785 0
    outer loop
      vertex 5.30902 4.04894 2
      vertex 6 5 0
      vertex 6 5 2
    endloop
  endfacet
  facet normal 0.809017 -0.587785 0
    outer loop
      vertex 6 5 0
      vertex 5.30902 4.04894 2
      vertex 5.30902 4.04894 0
    endloop
  endfacet
  facet normal 0.809017 0.587786 0
    outer loop
      vertex 16 5 2
      vertex 15.309 5.95106 0
      vertex 15.309 5.95106 2
    endloop
  endfacet
  facet normal 0.809017 0.587786 0
    outer loop
      vertex 15.309 5.95106 0
      vertex 16 5 2
      vertex 16 5 0
    endloop
  endfacet
  facet normal -1 0 0
    outer loop
      vertex 14.191 4.41221 0
      vertex 14.191 5.58778 2
      vertex 14.191 5.58778 0
    endloop
  endfacet
  facet normal -1 -0 0
    outer loop
      vertex 14.191 5.58778 2
      vertex 14.191 4.41221 0
      vertex 14.191 4.41221 2
    endloop
  endfacet
  facet normal -0.309017 0.951056 0
    outer loop
      vertex 15.309 5.95106 0
      vertex 14.191 5.58778 2
      vertex 15.309 5.95106 2
    endloop
  endfacet
  facet normal -0.309017 0.951056 0
    outer loop
      vertex 14.191 5.58778 2
      vertex 15.309 5.95106 0
      vertex 14.191 5.58778 0
    endloop
  endfacet
  facet normal -0.309017 -0.951056 0
    outer loop
      vertex 14.191 4.41221 0
      vertex 15.309 4.04894 2
      vertex 14.191 4.41221 2
    endloop
  endfacet
  facet normal -0.309017 -0.951056 -0
    outer loop
      vertex 15.309 4.04894 2
      vertex 14.191 4.41221 0
      vertex 15.309 4.04894 0
    endloop
  endfacet
  facet normal 0 0 -1
    outer loop
      vertex 15.309 4.04894 0
      vertex 15.309 5.95106 0
      vertex 16 5 0
    endloop
  endfacet
  facet normal 0 0 -1
    outer loop
      vertex 14.191 4.41221 0
      vertex 15.309 5.95106 0
      vertex 15.309 4.04894 0
    endloop
  endfacet
  facet normal 0 0 -1
    outer loop
      vertex 15.309 5.95106 0
      vertex 14.191 4.41221 0
      vertex 14.191 5.58778 0
    endloop
  endfacet
  facet normal 0.809017 -0.587785 0
    outer loop
      vertex 15.309 4.04894 2
      vertex 16 5 0
      vertex 16 5 2
    endloop
  endfacet
  facet normal 0.809017 -0.587785 0
    outer loop
      vertex 16 5 0
      vertex 15.309 4.04894 2
      vertex 15.309 4.04894 0
    endloop
  endfacet
  facet normal 0.809017 0.587786 0
    outer loop
      vertex 6 15 2
      vertex 5.30902 15.9511 0
      vertex 5.30902 15.9511 2
    endloop
  endfacet
  facet normal 0.809017 0.587786 0
    outer loop
      vertex 5.30902 15.9511 0
      vertex 6 15 2
      vertex 6 15 0
    endloop
  endfacet
  facet normal -1 0 0
    outer loop
      vertex 4.19098 14.4122 0
      vertex 4.19098 15.5878 2
      vertex 4.19098 15.5878 0
    endloop
  endfacet
  facet normal -1 -0 0
    outer loop
      vertex 4.19098 15.5878 2
      vertex 4.19098 14.4122 0
      vertex 4.19098 14.4122 2
    endloop
  endfacet
  facet normal -0.309017 0.951056 0
    outer loop
      vertex 5.30902 15.9511 0
      vertex 4.19098 15.5878 2
      vertex 5.30902 15.9511 2
    endloop
  endfacet
  facet normal -0.309017 0.951056 0
    outer loop
      vertex 4.19098 15.5878 2
      vertex 5.30902 15.9511 0
      vertex 4.19098 15.5878 0
    endloop
  endfacet
  facet normal -0.309017 -0.951056 0
    outer loop
      vertex 4.19098 14.4122 0
      vertex 5.30902 14.0489 2
      vertex 4.19098 14.4122 2
    endloop
  endfacet
  facet normal -0.309017 -0.951056 -0
    outer loop
      vertex 5.30902 14.0489 2
      vertex 4.19098 14.4122 0
      vertex 5.30902 14.0489 0
    endloop
  endfacet
  facet normal 0 0 -1
    outer loop
      vertex 5.30902 14.0489 0
      vertex 5.30902 15.9511 0
      vertex 6 15 0
    endloop
  endfacet
  facet normal 0 0 -1
    outer loop
      vertex 4.19098 14.4122 0
      vertex 5.30902 15.9511 0
      vertex 5.30902 14.0489 0
    endloop
  endfacet
  facet normal 0 0 -1
    outer loop
      vertex 5.30902 15.9511 0
      vertex 4.19098 14.4122 0
      vertex 4.19098 15.5878 0
    endloop
  endfacet
  facet normal 0.809017 -0.587785 0
    outer loop
      vertex 5.30902 14.0489 2
      vertex 6 15 0
      vertex 6 15 2
    endloop
  endfacet
  facet normal 0.809017 -0.587785 0
    outer loop
      vertex 6 15 0
      vertex 5.30902 14.0489 2
      vertex 5.30902 14.0489 0
    endloop
  endfacet
  facet normal 0.809017 0.587786 0
    outer loop
      vertex 16 15 2
      vertex 15.309 15.9511 0
      vertex 15.309 15.9511 2
    endloop
  endfacet
  facet normal 0.809017 0.587786 0
    outer loop
      vertex 15.309 15.9511 0
      vertex 16 15 2
      vertex 16 15 0
    endloop
  endfacet
  facet normal -1 0 0
    outer loop
      vertex 14.191 14.4122 0
      vertex 14.191 15.5878 2
      vertex 14.191 15.5878 0
    endloop
  endfacet
  facet normal -1 -0 0
    outer loop
      vertex 14.191 15.5878 2
      vertex 14.191 14.4122 0
      vertex 14.191 14.4122 2
    endloop
  endfacet
  facet normal -0.309017 0.951056 0
    outer loop
      vertex 15.309 15.9511 0
      vertex 14.191 15.5878 2
      vertex 15.309 15.9511 2
    endloop
  endfacet
  facet normal -0.309017 0.951056 0
    outer loop
      vertex 14.191 15.5878 2
      vertex 15.309 15.9511 0
      vertex 14.191 15.5878 0
    endloop
  endfacet
  facet normal 0 0 -1
    outer loop
      vertex 15.309 14.0489 0
      vertex 15.309 15.9511 0
      vertex 16 15 0
    endloop
  endfacet
  facet normal 0 0 -1
    outer loop
      vertex 14.191 14.4122 0
      vertex 15.309 15.9511 0
      vertex 15.309 14.0489 0
    endloop
  endfacet
  facet normal 0 0 -1
    outer loop
      vertex 15.309 15.9511 0
      vertex 14.191 14.4122 0
      vertex 14.191 15.5878 0
    endloop
  endfacet
  facet normal 0.809017 -0.587785 0
    outer loop
      vertex 15.309 14.0489 2
      vertex 16 15 0
      vertex 16 15 2
    endloop
  endfacet
  facet normal 0.809017 -0.587785 0
    outer loop
      vertex 16 15 0
      vertex 15.309 14.0489 2
      vertex 15.309 14.0489 0
    endloop
  endfacet
  facet normal -0.309017 -0.951056 0
    outer loop
      vertex 14.191 14.4122 0
      vertex 15.309 14.0489 2
      vertex 14.191 14.4122 2
    endloop
  endfacet
  facet normal -0.309017 -0.951056 -0
    outer loop
      vertex 15.309 14.0489 2
      vertex 14.191 14.4122 0
      vertex 15.309 14.0489 0
    endloop
  endfacet
  facet normal 0.866026 0.5 0
    outer loop
      vertex 19.1355 14.0674 3
      vertex 18.0902 15.8779 2
      vertex 18.0902 15.8779 3
    endloop
  endfacet
  facet normal 0.866026 0.5 0
    outer loop
      vertex 18.0902 15.8779 2
      vertex 19.1355 14.0674 3
      vertex 19.1355 14.0674 2
    endloop
  endfacet
  facet normal -0.994522 0.104528 0
    outer loop
      vertex 0 10 2
      vertex 0.218524 12.0791 3
      vertex 0.218524 12.0791 2
    endloop
  endfacet
  facet normal -0.994522 0.104528 0
    outer loop
      vertex 0.218524 12.0791 3
      vertex 0 10 2
      vertex 0 10 3
    endloop
  endfacet
  facet normal 0.743145 0.669131 0
    outer loop
      vertex 18.0902 15.8779 3
      vertex 16.6913 17.4314 2
      vertex 16.6913 17.4314 3
    endloop
  endfacet
  facet normal 0.743145 0.669131 0
    outer loop
      vertex 16.6913 17.4314 2
      vertex 18.0902 15.8779 3
      vertex 18.0902 15.8779 2
    endloop
  endfacet
  facet normal 0 1 -0
    outer loop
      vertex 11.0453 19.9452 2
      vertex 8.95471 19.9452 3
      vertex 11.0453 19.9452 3
    endloop
  endfacet
  facet normal 0 1 0
    outer loop
      vertex 8.95471 19.9452 3
      vertex 11.0453 19.9452 2
      vertex 8.95471 19.9452 2
    endloop
  endfacet
  facet normal 0.207911 0.978148 -0
    outer loop
      vertex 13.0902 19.5106 2
      vertex 11.0453 19.9452 3
      vertex 13.0902 19.5106 3
    endloop
  endfacet
  facet normal 0.207911 0.978148 0
    outer loop
      vertex 11.0453 19.9452 3
      vertex 13.0902 19.5106 2
      vertex 11.0453 19.9452 2
    endloop
  endfacet
  facet normal -0.587785 0.809017 0
    outer loop
      vertex 5 18.6603 2
      vertex 3.30869 17.4314 3
      vertex 5 18.6603 3
    endloop
  endfacet
  facet normal -0.587785 0.809017 0
    outer loop
      vertex 3.30869 17.4314 3
      vertex 5 18.6603 2
      vertex 3.30869 17.4314 2
    endloop
  endfacet
  facet normal -0.951057 0.309017 0
    outer loop
      vertex 0.218524 12.0791 2
      vertex 0.864545 14.0674 3
      vertex 0.864545 14.0674 2
    endloop
  endfacet
  facet normal -0.951057 0.309017 0
    outer loop
      vertex 0.864545 14.0674 3
      vertex 0.218524 12.0791 2
      vertex 0.218524 12.0791 3
    endloop
  endfacet
  facet normal -0.743145 0.669131 0
    outer loop
      vertex 1.90983 15.8779 2
      vertex 3.30869 17.4314 3
      vertex 3.30869 17.4314 2
    endloop
  endfacet
  facet normal -0.743145 0.669131 0
    outer loop
      vertex 3.30869 17.4314 3
      vertex 1.90983 15.8779 2
      vertex 1.90983 15.8779 3
    endloop
  endfacet
  facet normal 0.994522 -0.104529 0
    outer loop
      vertex 19.7815 7.92088 3
      vertex 20 10 2
      vertex 20 10 3
    endloop
  endfacet
  facet normal 0.994522 -0.104529 0
    outer loop
      vertex 20 10 2
      vertex 19.7815 7.92088 3
      vertex 19.7815 7.92088 2
    endloop
  endfacet
  facet normal 0.587785 0.809017 -0
    outer loop
      vertex 16.6913 17.4314 2
      vertex 15 18.6603 3
      vertex 16.6913 17.4314 3
    endloop
  endfacet
  facet normal 0.587785 0.809017 0
    outer loop
      vertex 15 18.6603 3
      vertex 16.6913 17.4314 2
      vertex 15 18.6603 2
    endloop
  endfacet
  facet normal -0.207911 0.978148 0
    outer loop
      vertex 8.95471 19.9452 2
      vertex 6.90983 19.5106 3
      vertex 8.95471 19.9452 3
    endloop
  endfacet
  facet normal -0.207911 0.978148 0
    outer loop
      vertex 6.90983 19.5106 3
      vertex 8.95471 19.9452 2
      vertex 6.90983 19.5106 2
    endloop
  endfacet
  facet normal 0.406737 0.913545 -0
    outer loop
      vertex 15 18.6603 2
      vertex 13.0902 19.5106 3
      vertex 15 18.6603 3
    endloop
  endfacet
  facet normal 0.406737 0.913545 0
    outer loop
      vertex 13.0902 19.5106 3
      vertex 15 18.6603 2
      vertex 13.0902 19.5106 2
    endloop
  endfacet
  facet normal -0.994522 -0.104528 0
    outer loop
      vertex 0.218524 7.92088 2
      vertex 0 10 3
      vertex 0 10 2
    endloop
  endfacet
  facet normal -0.994522 -0.104528 0
    outer loop
      vertex 0 10 3
      vertex 0.218524 7.92088 2
      vertex 0.218524 7.92088 3
    endloop
  endfacet
  facet normal -0.866026 0.5 0
    outer loop
      vertex 0.864545 14.0674 2
      vertex 1.90983 15.8779 3
      vertex 1.90983 15.8779 2
    endloop
  endfacet
  facet normal -0.866026 0.5 0
    outer loop
      vertex 1.90983 15.8779 3
      vertex 0.864545 14.0674 2
      vertex 0.864545 14.0674 3
    endloop
  endfacet
  facet normal -0.406737 0.913545 0
    outer loop
      vertex 6.90983 19.5106 2
      vertex 5 18.6603 3
      vertex 6.90983 19.5106 3
    endloop
  endfacet
  facet normal -0.406737 0.913545 0
    outer loop
      vertex 5 18.6603 3
      vertex 6.90983 19.5106 2
      vertex 5 18.6603 2
    endloop
  endfacet
  facet normal 0.994522 0.104529 0
    outer loop
      vertex 20 10 3
      vertex 19.7815 12.0791 2
      vertex 19.7815 12.0791 3
    endloop
  endfacet
  facet normal 0.994522 0.104529 0
    outer loop
      vertex 19.7815 12.0791 2
      vertex 20 10 3
      vertex 20 10 2
    endloop
  endfacet
  facet normal 0.951057 -0.309017 0
    outer loop
      vertex 19.1355 5.93263 3
      vertex 19.7815 7.92088 2
      vertex 19.7815 7.92088 3
    endloop
  endfacet
  facet normal 0.951057 -0.309017 0
    outer loop
      vertex 19.7815 7.92088 2
      vertex 19.1355 5.93263 3
      vertex 19.1355 5.93263 2
    endloop
  endfacet
  facet normal -0.406737 -0.913545 0
    outer loop
      vertex 5 1.33975 2
      vertex 6.90983 0.489434 3
      vertex 5 1.33975 3
    endloop
  endfacet
  facet normal -0.406737 -0.913545 -0
    outer loop
      vertex 6.90983 0.489434 3
      vertex 5 1.33975 2
      vertex 6.90983 0.489434 2
    endloop
  endfacet
  facet normal -0.743145 -0.669131 0
    outer loop
      vertex 3.30869 2.56855 2
      vertex 1.90983 4.12215 3
      vertex 1.90983 4.12215 2
    endloop
  endfacet
  facet normal -0.743145 -0.669131 0
    outer loop
      vertex 1.90983 4.12215 3
      vertex 3.30869 2.56855 2
      vertex 3.30869 2.56855 3
    endloop
  endfacet
  facet normal 0.406737 -0.913545 0
    outer loop
      vertex 13.0902 0.489434 2
      vertex 15 1.33975 3
      vertex 13.0902 0.489434 3
    endloop
  endfacet
  facet normal 0.406737 -0.913545 0
    outer loop
      vertex 15 1.33975 3
      vertex 13.0902 0.489434 2
      vertex 15 1.33975 2
    endloop
  endfacet
  facet normal 0.587785 -0.809017 0
    outer loop
      vertex 15 1.33975 2
      vertex 16.6913 2.56855 3
      vertex 15 1.33975 3
    endloop
  endfacet
  facet normal 0.587785 -0.809017 0
    outer loop
      vertex 16.6913 2.56855 3
      vertex 15 1.33975 2
      vertex 16.6913 2.56855 2
    endloop
  endfacet
  facet normal 0.951057 0.309017 0
    outer loop
      vertex 19.7815 12.0791 3
      vertex 19.1355 14.0674 2
      vertex 19.1355 14.0674 3
    endloop
  endfacet
  facet normal 0.951057 0.309017 0
    outer loop
      vertex 19.1355 14.0674 2
      vertex 19.7815 12.0791 3
      vertex 19.7815 12.0791 2
    endloop
  endfacet
  facet normal 0 0 1
    outer loop
      vertex 12 10 3
      vertex 20 10 3
      vertex 19.7815 12.0791 3
    endloop
  endfacet
  facet normal 0 0 1
    outer loop
      vertex 12 10 3
      vertex 19.7815 12.0791 3
      vertex 19.1355 14.0674 3
    endloop
  endfacet
  facet normal 0 0 1
    outer loop
      vertex 20 10 3
      vertex 12 10 3
      vertex 19.7815 7.92088 3
    endloop
  endfacet
  facet normal 0 0 1
    outer loop
      vertex 11.247 11.5637 3
      vertex 19.1355 14.0674 3
      vertex 18.0902 15.8779 3
    endloop
  endfacet
  facet normal 0 0 1
    outer loop
      vertex 19.7815 7.92088 3
      vertex 12 10 3
      vertex 19.1355 5.93263 3
    endloop
  endfacet
  facet normal 0 0 1
    outer loop
      vertex 11.247 11.5637 3
      vertex 18.0902 15.8779 3
      vertex 16.6913 17.4314 3
    endloop
  endfacet
  facet normal -0 0 1
    outer loop
      vertex 11.247 8.43634 3
      vertex 19.1355 5.93263 3
      vertex 12 10 3
    endloop
  endfacet
  facet normal 0 0 1
    outer loop
      vertex 11.247 11.5637 3
      vertex 16.6913 17.4314 3
      vertex 15 18.6603 3
    endloop
  endfacet
  facet normal 0 0 1
    outer loop
      vertex 19.1355 5.93263 3
      vertex 11.247 8.43634 3
      vertex 18.0902 4.12215 3
    endloop
  endfacet
  facet normal 0 0 1
    outer loop
      vertex 11.247 11.5637 3
      vertex 15 18.6603 3
      vertex 13.0902 19.5106 3
    endloop
  endfacet
  facet normal 0 0 1
    outer loop
      vertex 18.0902 4.12215 3
      vertex 11.247 8.43634 3
      vertex 16.6913 2.56855 3
    endloop
  endfacet
  facet normal 0 0 1
    outer loop
      vertex 16.6913 2.56855 3
      vertex 11.247 8.43634 3
      vertex 15 1.33975 3
    endloop
  endfacet
  facet normal 0 0 1
    outer loop
      vertex 19.1355 14.0674 3
      vertex 11.247 11.5637 3
      vertex 12 10 3
    endloop
  endfacet
  facet normal 0 0 1
    outer loop
      vertex 9.55496 11.9499 3
      vertex 13.0902 19.5106 3
      vertex 11.0453 19.9452 3
    endloop
  endfacet
  facet normal 0 0 1
    outer loop
      vertex 13.0902 19.5106 3
      vertex 9.55496 11.9499 3
      vertex 11.247 11.5637 3
    endloop
  endfacet
  facet normal -0 0 1
    outer loop
      vertex 8.95471 19.9452 3
      vertex 9.55496 11.9499 3
      vertex 11.0453 19.9452 3
    endloop
  endfacet
  facet normal -0 0 1
    outer loop
      vertex 6.90983 19.5106 3
      vertex 9.55496 11.9499 3
      vertex 8.95471 19.9452 3
    endloop
  endfacet
  facet normal -0 0 1
    outer loop
      vertex 3.30869 17.4314 3
      vertex 9.55496 11.9499 3
      vertex 5 18.6603 3
    endloop
  endfacet
  facet normal -0 0 1
    outer loop
      vertex 5 18.6603 3
      vertex 9.55496 11.9499 3
      vertex 6.90983 19.5106 3
    endloop
  endfacet
  facet normal 0 0 1
    outer loop
      vertex 15 1.33975 3
      vertex 11.247 8.43634 3
      vertex 13.0902 0.489434 3
    endloop
  endfacet
  facet normal -0 0 1
    outer loop
      vertex 9.55496 8.05014 3
      vertex 13.0902 0.489434 3
      vertex 11.247 8.43634 3
    endloop
  endfacet
  facet normal 0 0 1
    outer loop
      vertex 13.0902 0.489434 3
      vertex 9.55496 8.05014 3
      vertex 11.0453 0.054781 3
    endloop
  endfacet
  facet normal 0 0 1
    outer loop
      vertex 9.55496 8.05014 3
      vertex 8.95471 0.054781 3
      vertex 11.0453 0.054781 3
    endloop
  endfacet
  facet normal 0 0 1
    outer loop
      vertex 3.30869 2.56855 3
      vertex 9.55496 8.05014 3
      vertex 8.19806 9.13223 3
    endloop
  endfacet
  facet normal 0 0 1
    outer loop
      vertex 9.55496 11.9499 3
      vertex 3.30869 17.4314 3
      vertex 8.19806 10.8678 3
    endloop
  endfacet
  facet normal 0 0 1
    outer loop
      vertex 9.55496 8.05014 3
      vertex 6.90983 0.489434 3
      vertex 8.95471 0.054781 3
    endloop
  endfacet
  facet normal -0 0 1
    outer loop
      vertex 1.90983 15.8779 3
      vertex 8.19806 10.8678 3
      vertex 3.30869 17.4314 3
    endloop
  endfacet
  facet normal 0 0 1
    outer loop
      vertex 9.55496 8.05014 3
      vertex 5 1.33975 3
      vertex 6.90983 0.489434 3
    endloop
  endfacet
  facet normal -0 0 1
    outer loop
      vertex 0.864545 14.0674 3
      vertex 8.19806 10.8678 3
      vertex 1.90983 15.8779 3
    endloop
  endfacet
  facet normal 0 0 1
    outer loop
      vertex 9.55496 8.05014 3
      vertex 3.30869 2.56855 3
      vertex 5 1.33975 3
    endloop
  endfacet
  facet normal -0 0 1
    outer loop
      vertex 0.218524 12.0791 3
      vertex 8.19806 10.8678 3
      vertex 0.864545 14.0674 3
    endloop
  endfacet
  facet normal 0 0 1
    outer loop
      vertex 8.19806 9.13223 3
      vertex 1.90983 4.12215 3
      vertex 3.30869 2.56855 3
    endloop
  endfacet
  facet normal 0 0 1
    outer loop
      vertex 0 10 3
      vertex 8.19806 10.8678 3
      vertex 0.218524 12.0791 3
    endloop
  endfacet
  facet normal 0 0 1
    outer loop
      vertex 8.19806 9.13223 3
      vertex 0.864545 5.93263 3
      vertex 1.90983 4.12215 3
    endloop
  endfacet
  facet normal 0 0 1
    outer loop
      vertex 8.19806 10.8678 3
      vertex 0 10 3
      vertex 8.19806 9.13223 3
    endloop
  endfacet
  facet normal 0 0 1
    outer loop
      vertex 8.19806 9.13223 3
      vertex 0.218524 7.92088 3
      vertex 0.864545 5.93263 3
    endloop
  endfacet
  facet normal 0 0 1
    outer loop
      vertex 8.19806 9.13223 3
      vertex 0 10 3
      vertex 0.218524 7.92088 3
    endloop
  endfacet
  facet normal 0.866026 -0.5 0
    outer loop
      vertex 18.0902 4.12215 3
      vertex 19.1355 5.93263 2
      vertex 19.1355 5.93263 3
    endloop
  endfacet
  facet normal 0.866026 -0.5 0
    outer loop
      vertex 19.1355 5.93263 2
      vertex 18.0902 4.12215 3
      vertex 18.0902 4.12215 2
    endloop
  endfacet
  facet normal -0.951057 -0.309017 0
    outer loop
      vertex 0.864545 5.93263 2
      vertex 0.218524 7.92088 3
      vertex 0.218524 7.92088 2
    endloop
  endfacet
  facet normal -0.951057 -0.309017 0
    outer loop
      vertex 0.218524 7.92088 3
      vertex 0.864545 5.93263 2
      vertex 0.864545 5.93263 3
    endloop
  endfacet
  facet normal -0.587785 -0.809017 0
    outer loop
      vertex 3.30869 2.56855 2
      vertex 5 1.33975 3
      vertex 3.30869 2.56855 3
    endloop
  endfacet
  facet normal -0.587785 -0.809017 -0
    outer loop
      vertex 5 1.33975 3
      vertex 3.30869 2.56855 2
      vertex 5 1.33975 2
    endloop
  endfacet
  facet normal -0.207911 -0.978148 0
    outer loop
      vertex 6.90983 0.489434 2
      vertex 8.95471 0.054781 3
      vertex 6.90983 0.489434 3
    endloop
  endfacet
  facet normal -0.207911 -0.978148 -0
    outer loop
      vertex 8.95471 0.054781 3
      vertex 6.90983 0.489434 2
      vertex 8.95471 0.054781 2
    endloop
  endfacet
  facet normal 0.207911 -0.978148 0
    outer loop
      vertex 11.0453 0.054781 2
      vertex 13.0902 0.489434 3
      vertex 11.0453 0.054781 3
    endloop
  endfacet
  facet normal 0.207911 -0.978148 0
    outer loop
      vertex 13.0902 0.489434 3
      vertex 11.0453 0.054781 2
      vertex 13.0902 0.489434 2
    endloop
  endfacet
  facet normal -0.866026 -0.5 0
    outer loop
      vertex 1.90983 4.12215 2
      vertex 0.864545 5.93263 3
      vertex 0.864545 5.93263 2
    endloop
  endfacet
  facet normal -0.866026 -0.5 0
    outer loop
      vertex 0.864545 5.93263 3
      vertex 1.90983 4.12215 2
      vertex 1.90983 4.12215 3
    endloop
  endfacet
  facet normal 0.743145 -0.669131 0
    outer loop
      vertex 16.6913 2.56855 3
      vertex 18.0902 4.12215 2
      vertex 18.0902 4.12215 3
    endloop
  endfacet
  facet normal 0.743145 -0.669131 0
    outer loop
      vertex 18.0902 4.12215 2
      vertex 16.6913 2.56855 3
      vertex 16.6913 2.56855 2
    endloop
  endfacet
  facet normal 0 -1 0
    outer loop
      vertex 8.95471 0.054781 2
      vertex 11.0453 0.054781 3
      vertex 8.95471 0.054781 3
    endloop
  endfacet
  facet normal 0 -1 -0
    outer loop
      vertex 11.0453 0.054781 3
      vertex 8.95471 0.054781 2
      vertex 11.0453 0.054781 2
    endloop
  endfacet
  facet normal 0.900969 0.433884 0
    outer loop
      vertex 12 10 7
      vertex 11.247 11.5637 3
      vertex 11.247 11.5637 7
    endloop
  endfacet
  facet normal 0.900969 0.433884 0
    outer loop
      vertex 11.247 11.5637 3
      vertex 12 10 7
      vertex 12 10 3
    endloop
  endfacet
  facet normal -1 0 0
    outer loop
      vertex 8.19806 9.13223 3
      vertex 8.19806 10.8678 7
      vertex 8.19806 10.8678 3
    endloop
  endfacet
  facet normal -1 -0 0
    outer loop
      vertex 8.19806 10.8678 7
      vertex 8.19806 9.13223 3
      vertex 8.19806 9.13223 7
    endloop
  endfacet
  facet normal 0.222521 0.974928 -0
    outer loop
      vertex 11.247 11.5637 3
      vertex 9.55496 11.9499 7
      vertex 11.247 11.5637 7
    endloop
  endfacet
  facet normal 0.222521 0.974928 0
    outer loop
      vertex 9.55496 11.9499 7
      vertex 11.247 11.5637 3
      vertex 9.55496 11.9499 3
    endloop
  endfacet
  facet normal -0.62349 -0.781831 0
    outer loop
      vertex 8.19806 9.13223 3
      vertex 9.55496 8.05014 7
      vertex 8.19806 9.13223 7
    endloop
  endfacet
  facet normal -0.62349 -0.781831 -0
    outer loop
      vertex 9.55496 8.05014 7
      vertex 8.19806 9.13223 3
      vertex 9.55496 8.05014 3
    endloop
  endfacet
  facet normal -0.62349 0.781831 0
    outer loop
      vertex 9.55496 11.9499 3
      vertex 8.19806 10.8678 7
      vertex 9.55496 11.9499 7
    endloop
  endfacet
  facet normal -0.62349 0.781831 0
    outer loop
      vertex 8.19806 10.8678 7
      vertex 9.55496 11.9499 3
      vertex 8.19806 10.8678 3
    endloop
  endfacet
  facet normal 0.222521 -0.974928 0
    outer loop
      vertex 9.55496 8.05014 3
      vertex 11.247 8.43634 7
      vertex 9.55496 8.05014 7
    endloop
  endfacet
  facet normal 0.222521 -0.974928 0
    outer loop
      vertex 11.247 8.43634 7
      vertex 9.55496 8.05014 3
      vertex 11.247 8.43634 3
    endloop
  endfacet
  facet normal 0.900969 -0.433884 0
    outer loop
      vertex 11.247 8.43634 7
      vertex 12 10 3
      vertex 12 10 7
    endloop
  endfacet
  facet normal 0.900969 -0.433884 0
    outer loop
      vertex 12 10 3
      vertex 11.247 8.43634 7
      vertex 11.247 8.43634 3
    endloop
  endfacet
endsolid OpenSCAD_Model
