solid OpenSCAD_Model
  facet normal -1 0 0
    outer loop
      vertex 0 54.5 0
      vertex 0 29.75 10
      vertex 0 54.5 20
    endloop
  endfacet
  facet normal -1 0 0
    outer loop
      vertex 0 54.5 0
      vertex 0 29.0178 8.23223
      vertex 0 29.75 10
    endloop
  endfacet
  facet normal -1 0 0
    outer loop
      vertex 0 54.5 0
      vertex 0 27.25 7.5
      vertex 0 29.0178 8.23223
    endloop
  endfacet
  facet normal -1 -0 0
    outer loop
      vertex 0 25.4822 8.23223
      vertex 0 0 0
      vertex 0 24.75 10
    endloop
  endfacet
  facet normal -1 -0 0
    outer loop
      vertex 0 27.25 7.5
      vertex 0 0 0
      vertex 0 25.4822 8.23223
    endloop
  endfacet
  facet normal -1 0 0
    outer loop
      vertex 0 0 0
      vertex 0 27.25 7.5
      vertex 0 54.5 0
    endloop
  endfacet
  facet normal -1 0 0
    outer loop
      vertex 0 29.0178 11.7678
      vertex 0 54.5 20
      vertex 0 29.75 10
    endloop
  endfacet
  facet normal -1 0 0
    outer loop
      vertex 0 27.25 12.5
      vertex 0 54.5 20
      vertex 0 29.0178 11.7678
    endloop
  endfacet
  facet normal -1 0 0
    outer loop
      vertex 0 0 20
      vertex 0 24.75 10
      vertex 0 0 0
    endloop
  endfacet
  facet normal -1 0 0
    outer loop
      vertex 0 27.25 12.5
      vertex 0 0 20
      vertex 0 54.5 20
    endloop
  endfacet
  facet normal -1 0 0
    outer loop
      vertex 0 25.4822 11.7678
      vertex 0 0 20
      vertex 0 27.25 12.5
    endloop
  endfacet
  facet normal -1 0 0
    outer loop
      vertex 0 24.75 10
      vertex 0 0 20
      vertex 0 25.4822 11.7678
    endloop
  endfacet
  facet normal 0 0 1
    outer loop
      vertex 4 54.5 20
      vertex 0 54.5 20
      vertex 4 4 20
    endloop
  endfacet
  facet normal 0 0 1
    outer loop
      vertex 92.5 54.5 20
      vertex 88.5 50.5 20
      vertex 92.5 0 20
    endloop
  endfacet
  facet normal -0 0 1
    outer loop
      vertex 42 54.5 20
      vertex 88.5 50.5 20
      vertex 92.5 54.5 20
    endloop
  endfacet
  facet normal 0 0 1
    outer loop
      vertex 88.5 50.5 20
      vertex 42 54.5 20
      vertex 42 50.5 20
    endloop
  endfacet
  facet normal -0 0 1
    outer loop
      vertex 88.5 4 20
      vertex 92.5 0 20
      vertex 88.5 50.5 20
    endloop
  endfacet
  facet normal -0 0 1
    outer loop
      vertex 4 4 20
      vertex 92.5 0 20
      vertex 88.5 4 20
    endloop
  endfacet
  facet normal 0 0 1
    outer loop
      vertex 4 4 20
      vertex 0 0 20
      vertex 92.5 0 20
    endloop
  endfacet
  facet normal 0 0 1
    outer loop
      vertex 0 0 20
      vertex 4 4 20
      vertex 0 54.5 20
    endloop
  endfacet
  facet normal 1 -0 0
    outer loop
      vertex 92.5 0 20
      vertex 92.5 54.5 0
      vertex 92.5 54.5 20
    endloop
  endfacet
  facet normal 1 0 0
    outer loop
      vertex 92.5 54.5 0
      vertex 92.5 0 20
      vertex 92.5 0 0
    endloop
  endfacet
  facet normal 0 0 -1
    outer loop
      vertex 92.5 0 0
      vertex 88.5 4 0
      vertex 92.5 54.5 0
    endloop
  endfacet
  facet normal 0 0 -1
    outer loop
      vertex 92.5 0 0
      vertex 4 4 0
      vertex 88.5 4 0
    endloop
  endfacet
  facet normal 0 0 -1
    outer loop
      vertex 0 0 0
      vertex 4 4 0
      vertex 92.5 0 0
    endloop
  endfacet
  facet normal 0 0 -1
    outer loop
      vertex 0 54.5 0
      vertex 4 4 0
      vertex 0 0 0
    endloop
  endfacet
  facet normal 0 0 -1
    outer loop
      vertex 4 4 0
      vertex 0 54.5 0
      vertex 4 54.5 0
    endloop
  endfacet
  facet normal 0 0 -1
    outer loop
      vertex 88.5 50.5 0
      vertex 92.5 54.5 0
      vertex 88.5 4 0
    endloop
  endfacet
  facet normal 0 0 -1
    outer loop
      vertex 42 54.5 0
      vertex 88.5 50.5 0
      vertex 42 50.5 0
    endloop
  endfacet
  facet normal 0 0 -1
    outer loop
      vertex 88.5 50.5 0
      vertex 42 54.5 0
      vertex 92.5 54.5 0
    endloop
  endfacet
  facet normal 0 -1 0
    outer loop
      vertex 0 0 0
      vertex 92.5 0 20
      vertex 0 0 20
    endloop
  endfacet
  facet normal 0 -1 -0
    outer loop
      vertex 92.5 0 20
      vertex 0 0 0
      vertex 92.5 0 0
    endloop
  endfacet
  facet normal 0 1 -0
    outer loop
      vertex 88.5 4 0
      vertex 4 4 20
      vertex 88.5 4 20
    endloop
  endfacet
  facet normal 0 1 0
    outer loop
      vertex 4 4 20
      vertex 88.5 4 0
      vertex 4 4 0
    endloop
  endfacet
  facet normal 1 0 0
    outer loop
      vertex 4 54.5 20
      vertex 4 29.75 10
      vertex 4 54.5 0
    endloop
  endfacet
  facet normal 1 -0 0
    outer loop
      vertex 4 4 20
      vertex 4 29.75 10
      vertex 4 54.5 20
    endloop
  endfacet
  facet normal 1 0 0
    outer loop
      vertex 4 29.75 10
      vertex 4 4 20
      vertex 4 24.75 10
    endloop
  endfacet
  facet normal 1 -0 0
    outer loop
      vertex 4 29.0178 8.23223
      vertex 4 54.5 0
      vertex 4 29.75 10
    endloop
  endfacet
  facet normal 1 -0 0
    outer loop
      vertex 4 27.25 7.5
      vertex 4 54.5 0
      vertex 4 29.0178 8.23223
    endloop
  endfacet
  facet normal 1 0 0
    outer loop
      vertex 4 4 0
      vertex 4 24.75 10
      vertex 4 4 20
    endloop
  endfacet
  facet normal 1 0 0
    outer loop
      vertex 4 27.25 7.5
      vertex 4 4 0
      vertex 4 54.5 0
    endloop
  endfacet
  facet normal 1 0 0
    outer loop
      vertex 4 25.4822 8.23223
      vertex 4 4 0
      vertex 4 27.25 7.5
    endloop
  endfacet
  facet normal 1 0 0
    outer loop
      vertex 4 24.75 10
      vertex 4 4 0
      vertex 4 25.4822 8.23223
    endloop
  endfacet
  facet normal 0 1 -0
    outer loop
      vertex 4 54.5 0
      vertex 0 54.5 20
      vertex 4 54.5 20
    endloop
  endfacet
  facet normal 0 1 0
    outer loop
      vertex 0 54.5 20
      vertex 4 54.5 0
      vertex 0 54.5 0
    endloop
  endfacet
  facet normal -1 0 0
    outer loop
      vertex 88.5 4 0
      vertex 88.5 50.5 20
      vertex 88.5 50.5 0
    endloop
  endfacet
  facet normal -1 -0 0
    outer loop
      vertex 88.5 50.5 20
      vertex 88.5 4 0
      vertex 88.5 4 20
    endloop
  endfacet
  facet normal 0 -1 0
    outer loop
      vertex 42 50.5 0
      vertex 88.5 50.5 20
      vertex 42 50.5 20
    endloop
  endfacet
  facet normal 0 -1 -0
    outer loop
      vertex 88.5 50.5 20
      vertex 42 50.5 0
      vertex 88.5 50.5 0
    endloop
  endfacet
  facet normal -1 0 0
    outer loop
      vertex 42 50.5 0
      vertex 42 54.5 20
      vertex 42 54.5 0
    endloop
  endfacet
  facet normal -1 -0 0
    outer loop
      vertex 42 54.5 20
      vertex 42 50.5 0
      vertex 42 50.5 20
    endloop
  endfacet
  facet normal 0 1 -0
    outer loop
      vertex 92.5 54.5 0
      vertex 42 54.5 20
      vertex 92.5 54.5 20
    endloop
  endfacet
  facet normal 0 1 0
    outer loop
      vertex 42 54.5 20
      vertex 92.5 54.5 0
      vertex 42 54.5 0
    endloop
  endfacet
  facet normal 0 -0.382683 0.92388
    outer loop
      vertex 0 29.0178 8.23223
      vertex 4 27.25 7.5
      vertex 4 29.0178 8.23223
    endloop
  endfacet
  facet normal 0 -0.382683 0.92388
    outer loop
      vertex 4 27.25 7.5
      vertex 0 29.0178 8.23223
      vertex 0 27.25 7.5
    endloop
  endfacet
  facet normal 0 -0.382683 -0.92388
    outer loop
      vertex 0 27.25 12.5
      vertex 4 29.0178 11.7678
      vertex 4 27.25 12.5
    endloop
  endfacet
  facet normal -0 -0.382683 -0.92388
    outer loop
      vertex 4 29.0178 11.7678
      vertex 0 27.25 12.5
      vertex 0 29.0178 11.7678
    endloop
  endfacet
  facet normal 0 -0.92388 0.382683
    outer loop
      vertex 0 29.0178 8.23223
      vertex 4 29.75 10
      vertex 0 29.75 10
    endloop
  endfacet
  facet normal 0 -0.92388 0.382683
    outer loop
      vertex 4 29.75 10
      vertex 0 29.0178 8.23223
      vertex 4 29.0178 8.23223
    endloop
  endfacet
  facet normal -1 -2.6974e-07 -6.5121e-07
    outer loop
      vertex 4 29.0178 11.7678
      vertex 4 29.75 10
      vertex 4 27.25 12.5
    endloop
  endfacet
  facet normal -1 -0 -3.8147e-07
    outer loop
      vertex 4 29.75 10
      vertex 4 24.75 10
      vertex 4 27.25 12.5
    endloop
  endfacet
  facet normal 0 -0.92388 -0.382683
    outer loop
      vertex 0 29.75 10
      vertex 4 29.0178 11.7678
      vertex 0 29.0178 11.7678
    endloop
  endfacet
  facet normal 0 -0.92388 -0.382683
    outer loop
      vertex 4 29.0178 11.7678
      vertex 0 29.75 10
      vertex 4 29.75 10
    endloop
  endfacet
  facet normal 0 0.92388 0.382682
    outer loop
      vertex 4 25.4822 8.23223
      vertex 0 24.75 10
      vertex 4 24.75 10
    endloop
  endfacet
  facet normal 0 0.92388 0.382682
    outer loop
      vertex 0 24.75 10
      vertex 4 25.4822 8.23223
      vertex 0 25.4822 8.23223
    endloop
  endfacet
  facet normal 0 0.382683 -0.92388
    outer loop
      vertex 0 25.4822 11.7678
      vertex 4 27.25 12.5
      vertex 4 25.4822 11.7678
    endloop
  endfacet
  facet normal 0 0.382683 -0.92388
    outer loop
      vertex 4 27.25 12.5
      vertex 0 25.4822 11.7678
      vertex 0 27.25 12.5
    endloop
  endfacet
  facet normal -0 0.382683 0.92388
    outer loop
      vertex 0 27.25 7.5
      vertex 4 25.4822 8.23223
      vertex 4 27.25 7.5
    endloop
  endfacet
  facet normal 0 0.382683 0.92388
    outer loop
      vertex 4 25.4822 8.23223
      vertex 0 27.25 7.5
      vertex 0 25.4822 8.23223
    endloop
  endfacet
  facet normal 0 0.92388 -0.382683
    outer loop
      vertex 4 24.75 10
      vertex 0 25.4822 11.7678
      vertex 4 25.4822 11.7678
    endloop
  endfacet
  facet normal 0 0.92388 -0.382683
    outer loop
      vertex 0 25.4822 11.7678
      vertex 4 24.75 10
      vertex 0 24.75 10
    endloop
  endfacet
  facet normal -1 2.69739e-07 -6.51209e-07
    outer loop
      vertex 4 27.25 12.5
      vertex 4 24.75 10
      vertex 4 25.4822 11.7678
    endloop
  endfacet
endsolid OpenSCAD_Model
