solid OpenSCAD_Model
  facet normal -1 0 0
    outer loop
      vertex 0 0 0
      vertex 0 53 20
      vertex 0 53 0
    endloop
  endfacet
  facet normal -1 -0 0
    outer loop
      vertex 0 53 20
      vertex 0 0 0
      vertex 0 0 20
    endloop
  endfacet
  facet normal 0 0 1
    outer loop
      vertex 4 53 20
      vertex 0 53 20
      vertex 4 4 20
    endloop
  endfacet
  facet normal 0 0 1
    outer loop
      vertex 91 53 20
      vertex 87 49 20
      vertex 91 0 20
    endloop
  endfacet
  facet normal -0 0 1
    outer loop
      vertex 42 53 20
      vertex 87 49 20
      vertex 91 53 20
    endloop
  endfacet
  facet normal 0 0 1
    outer loop
      vertex 87 49 20
      vertex 42 53 20
      vertex 42 49 20
    endloop
  endfacet
  facet normal -0 0 1
    outer loop
      vertex 87 4 20
      vertex 91 0 20
      vertex 87 49 20
    endloop
  endfacet
  facet normal -0 0 1
    outer loop
      vertex 4 4 20
      vertex 91 0 20
      vertex 87 4 20
    endloop
  endfacet
  facet normal 0 0 1
    outer loop
      vertex 4 4 20
      vertex 0 0 20
      vertex 91 0 20
    endloop
  endfacet
  facet normal 0 0 1
    outer loop
      vertex 0 0 20
      vertex 4 4 20
      vertex 0 53 20
    endloop
  endfacet
  facet normal 1 -0 0
    outer loop
      vertex 91 0 20
      vertex 91 53 0
      vertex 91 53 20
    endloop
  endfacet
  facet normal 1 0 0
    outer loop
      vertex 91 53 0
      vertex 91 0 20
      vertex 91 0 0
    endloop
  endfacet
  facet normal 0 0 -1
    outer loop
      vertex 91 0 0
      vertex 87 4 0
      vertex 91 53 0
    endloop
  endfacet
  facet normal 0 0 -1
    outer loop
      vertex 91 0 0
      vertex 4 4 0
      vertex 87 4 0
    endloop
  endfacet
  facet normal 0 0 -1
    outer loop
      vertex 0 0 0
      vertex 4 4 0
      vertex 91 0 0
    endloop
  endfacet
  facet normal 0 0 -1
    outer loop
      vertex 0 53 0
      vertex 4 4 0
      vertex 0 0 0
    endloop
  endfacet
  facet normal 0 0 -1
    outer loop
      vertex 4 4 0
      vertex 0 53 0
      vertex 4 53 0
    endloop
  endfacet
  facet normal 0 0 -1
    outer loop
      vertex 87 49 0
      vertex 91 53 0
      vertex 87 4 0
    endloop
  endfacet
  facet normal 0 0 -1
    outer loop
      vertex 42 53 0
      vertex 87 49 0
      vertex 42 49 0
    endloop
  endfacet
  facet normal 0 0 -1
    outer loop
      vertex 87 49 0
      vertex 42 53 0
      vertex 91 53 0
    endloop
  endfacet
  facet normal 0 -1 0
    outer loop
      vertex 0 0 0
      vertex 91 0 20
      vertex 0 0 20
    endloop
  endfacet
  facet normal 0 -1 -0
    outer loop
      vertex 91 0 20
      vertex 0 0 0
      vertex 91 0 0
    endloop
  endfacet
  facet normal 0 1 -0
    outer loop
      vertex 91 53 0
      vertex 42 53 20
      vertex 91 53 20
    endloop
  endfacet
  facet normal 0 1 0
    outer loop
      vertex 42 53 20
      vertex 91 53 0
      vertex 42 53 0
    endloop
  endfacet
  facet normal 0 1 -0
    outer loop
      vertex 4 53 0
      vertex 0 53 20
      vertex 4 53 20
    endloop
  endfacet
  facet normal 0 1 0
    outer loop
      vertex 0 53 20
      vertex 4 53 0
      vertex 0 53 0
    endloop
  endfacet
  facet normal 1 -0 0
    outer loop
      vertex 4 4 20
      vertex 4 53 0
      vertex 4 53 20
    endloop
  endfacet
  facet normal 1 0 0
    outer loop
      vertex 4 53 0
      vertex 4 4 20
      vertex 4 4 0
    endloop
  endfacet
  facet normal -1 0 0
    outer loop
      vertex 87 4 0
      vertex 87 49 20
      vertex 87 49 0
    endloop
  endfacet
  facet normal -1 -0 0
    outer loop
      vertex 87 49 20
      vertex 87 4 0
      vertex 87 4 20
    endloop
  endfacet
  facet normal 0 1 -0
    outer loop
      vertex 87 4 0
      vertex 4 4 20
      vertex 87 4 20
    endloop
  endfacet
  facet normal 0 1 0
    outer loop
      vertex 4 4 20
      vertex 87 4 0
      vertex 4 4 0
    endloop
  endfacet
  facet normal 0 -1 0
    outer loop
      vertex 42 49 0
      vertex 87 49 20
      vertex 42 49 20
    endloop
  endfacet
  facet normal 0 -1 -0
    outer loop
      vertex 87 49 20
      vertex 42 49 0
      vertex 87 49 0
    endloop
  endfacet
  facet normal -1 0 0
    outer loop
      vertex 42 49 0
      vertex 42 53 20
      vertex 42 53 0
    endloop
  endfacet
  facet normal -1 -0 0
    outer loop
      vertex 42 53 20
      vertex 42 49 0
      vertex 42 49 20
    endloop
  endfacet
endsolid OpenSCAD_Model
