solid OpenSCAD_Model
  facet normal 1 -0 0
    outer loop
      vertex 1.14177 3.51394 4
      vertex 1.14177 4.5 1.5
      vertex 1.14177 4.5 4
    endloop
  endfacet
  facet normal 1 0 0
    outer loop
      vertex 1.14177 4.5 1.5
      vertex 1.14177 3.51394 4
      vertex 1.14177 3.51394 1.5
    endloop
  endfacet
  facet normal 0 0 1
    outer loop
      vertex 28.875 62.5 1.5
      vertex 31 62.5 1.5
      vertex 30.4444 64.3922 1.5
    endloop
  endfacet
  facet normal 0 -0 1
    outer loop
      vertex 30 59.4 1.5
      vertex 31 62.5 1.5
      vertex 28.875 62.5 1.5
    endloop
  endfacet
  facet normal 0 0 1
    outer loop
      vertex 26.3876 61.6918 1.5
      vertex 30 50.6 1.5
      vertex 30 59.4 1.5
    endloop
  endfacet
  facet normal -0 0 1
    outer loop
      vertex 4.9249 61.1923 1.5
      vertex 30 50.6 1.5
      vertex 26.3876 61.6918 1.5
    endloop
  endfacet
  facet normal 0 0 1
    outer loop
      vertex 30 50.6 1.5
      vertex 4.9249 61.1923 1.5
      vertex 30 46.8 1.5
    endloop
  endfacet
  facet normal 0 0 1
    outer loop
      vertex 4.9249 5.8077 1.5
      vertex 30 38 1.5
      vertex 4.9249 61.1923 1.5
    endloop
  endfacet
  facet normal 0 0 1
    outer loop
      vertex 31 62.5 1.5
      vertex 30 59.4 1.5
      vertex 31 59.4 1.5
    endloop
  endfacet
  facet normal 0 0 1
    outer loop
      vertex 28.875 62.5 1.5
      vertex 30.4444 64.3922 1.5
      vertex 28.954 65.6837 1.5
    endloop
  endfacet
  facet normal -0 0 1
    outer loop
      vertex 30 50.6 1.5
      vertex 31 46.8 1.5
      vertex 31 50.6 1.5
    endloop
  endfacet
  facet normal 0 0 1
    outer loop
      vertex 31 46.8 1.5
      vertex 30 50.6 1.5
      vertex 30 46.8 1.5
    endloop
  endfacet
  facet normal -0 0 1
    outer loop
      vertex 30 38 1.5
      vertex 31 20.4 1.5
      vertex 31 38 1.5
    endloop
  endfacet
  facet normal 0 0 1
    outer loop
      vertex 31 20.4 1.5
      vertex 30 38 1.5
      vertex 30 20.4 1.5
    endloop
  endfacet
  facet normal -0 0 1
    outer loop
      vertex 30 6.4 1.5
      vertex 31 4.5 1.5
      vertex 31 6.4 1.5
    endloop
  endfacet
  facet normal 0 0 1
    outer loop
      vertex 31 4.5 1.5
      vertex 30 6.4 1.5
      vertex 28.875 4.5 1.5
    endloop
  endfacet
  facet normal 0 0 1
    outer loop
      vertex 31 4.5 1.5
      vertex 28.875 4.5 1.5
      vertex 30.4444 2.60776 1.5
    endloop
  endfacet
  facet normal -0 0 1
    outer loop
      vertex 27.9249 61.1923 1.5
      vertex 30 59.4 1.5
      vertex 28.875 62.5 1.5
    endloop
  endfacet
  facet normal 0 0 1
    outer loop
      vertex 26.3876 61.6918 1.5
      vertex 30 59.4 1.5
      vertex 27.9249 61.1923 1.5
    endloop
  endfacet
  facet normal 0 0 1
    outer loop
      vertex 28.954 65.6837 1.5
      vertex 27.9249 63.8077 1.5
      vertex 28.875 62.5 1.5
    endloop
  endfacet
  facet normal 0 0 1
    outer loop
      vertex 27.5 65.8928 1.5
      vertex 27.9249 63.8077 1.5
      vertex 28.954 65.6837 1.5
    endloop
  endfacet
  facet normal 0 0 1
    outer loop
      vertex 27.9249 63.8077 1.5
      vertex 27.5 65.8928 1.5
      vertex 26.3876 63.3082 1.5
    endloop
  endfacet
  facet normal 0 0 1
    outer loop
      vertex 1 4.5 1.5
      vertex 3.3876 5.3082 1.5
      vertex 1 62.5 1.5
    endloop
  endfacet
  facet normal 0 0 1
    outer loop
      vertex 3.3876 5.3082 1.5
      vertex 1 4.5 1.5
      vertex 1.14177 4.5 1.5
    endloop
  endfacet
  facet normal 0 0 1
    outer loop
      vertex 4.9249 3.1923 1.5
      vertex 4.0019 1.03562 1.5
      vertex 4.5 1.10724 1.5
    endloop
  endfacet
  facet normal 0 0 1
    outer loop
      vertex 3.3876 3.69179 1.5
      vertex 4.0019 1.03562 1.5
      vertex 4.9249 3.1923 1.5
    endloop
  endfacet
  facet normal 0 0 1
    outer loop
      vertex 3.3876 3.69179 1.5
      vertex 2.20799 1.85488 1.5
      vertex 4.0019 1.03562 1.5
    endloop
  endfacet
  facet normal 0 0 1
    outer loop
      vertex 3.3876 5.3082 1.5
      vertex 2.20799 1.85488 1.5
      vertex 3.3876 3.69179 1.5
    endloop
  endfacet
  facet normal 0 0 1
    outer loop
      vertex 1.14177 62.5 1.5
      vertex 2.20799 65.1451 1.5
      vertex 1.14177 63.4861 1.5
    endloop
  endfacet
  facet normal 0 0 1
    outer loop
      vertex 3.3876 61.6918 1.5
      vertex 1 62.5 1.5
      vertex 3.3876 5.3082 1.5
    endloop
  endfacet
  facet normal 0 0 1
    outer loop
      vertex 1.14177 3.51394 1.5
      vertex 3.3876 5.3082 1.5
      vertex 1.14177 4.5 1.5
    endloop
  endfacet
  facet normal 0 0 1
    outer loop
      vertex 3.3876 5.3082 1.5
      vertex 1.14177 3.51394 1.5
      vertex 2.20799 1.85488 1.5
    endloop
  endfacet
  facet normal 0 0 1
    outer loop
      vertex 30 20.4 1.5
      vertex 4.9249 5.8077 1.5
      vertex 26.3876 5.3082 1.5
    endloop
  endfacet
  facet normal 0 0 1
    outer loop
      vertex 26.3876 5.3082 1.5
      vertex 4.9249 5.8077 1.5
      vertex 5.875 4.5 1.5
    endloop
  endfacet
  facet normal 0 0 1
    outer loop
      vertex 3.3876 61.6918 1.5
      vertex 4.9249 5.8077 1.5
      vertex 4.9249 61.1923 1.5
    endloop
  endfacet
  facet normal 0 0 1
    outer loop
      vertex 4.9249 5.8077 1.5
      vertex 3.3876 61.6918 1.5
      vertex 3.3876 5.3082 1.5
    endloop
  endfacet
  facet normal 0 0 1
    outer loop
      vertex 27.5 66 1.5
      vertex 26.3876 63.3082 1.5
      vertex 27.5 65.8928 1.5
    endloop
  endfacet
  facet normal -0 0 1
    outer loop
      vertex 5.875 62.5 1.5
      vertex 26.3876 61.6918 1.5
      vertex 26.3876 63.3082 1.5
    endloop
  endfacet
  facet normal 0 0 1
    outer loop
      vertex 4.9249 61.1923 1.5
      vertex 26.3876 61.6918 1.5
      vertex 5.875 62.5 1.5
    endloop
  endfacet
  facet normal 0 -0 1
    outer loop
      vertex 9.175 2 1.5
      vertex 26.3876 5.3082 1.5
      vertex 5.875 4.5 1.5
    endloop
  endfacet
  facet normal 0 0 1
    outer loop
      vertex 26.3876 5.3082 1.5
      vertex 23.025 2 1.5
      vertex 26.3876 3.69179 1.5
    endloop
  endfacet
  facet normal 0 0 1
    outer loop
      vertex 26.3876 5.3082 1.5
      vertex 9.175 2 1.5
      vertex 23.025 2 1.5
    endloop
  endfacet
  facet normal 0 0 1
    outer loop
      vertex 30 38 1.5
      vertex 4.9249 5.8077 1.5
      vertex 30 20.4 1.5
    endloop
  endfacet
  facet normal -0 0 1
    outer loop
      vertex 4.5 66 1.5
      vertex 26.3876 63.3082 1.5
      vertex 27.5 66 1.5
    endloop
  endfacet
  facet normal 0 0 1
    outer loop
      vertex 26.3876 63.3082 1.5
      vertex 4.5 66 1.5
      vertex 5.875 62.5 1.5
    endloop
  endfacet
  facet normal -0 0 1
    outer loop
      vertex 4.5 65.8928 1.5
      vertex 5.875 62.5 1.5
      vertex 4.5 66 1.5
    endloop
  endfacet
  facet normal 0 0 1
    outer loop
      vertex 5.875 62.5 1.5
      vertex 4.5 65.8928 1.5
      vertex 4.9249 63.8077 1.5
    endloop
  endfacet
  facet normal 0 0 1
    outer loop
      vertex 4.0019 65.9644 1.5
      vertex 4.9249 63.8077 1.5
      vertex 4.5 65.8928 1.5
    endloop
  endfacet
  facet normal 0 0 1
    outer loop
      vertex 4.0019 65.9644 1.5
      vertex 3.3876 63.3082 1.5
      vertex 4.9249 63.8077 1.5
    endloop
  endfacet
  facet normal 0 0 1
    outer loop
      vertex 1.14177 62.5 1.5
      vertex 3.3876 63.3082 1.5
      vertex 2.20799 65.1451 1.5
    endloop
  endfacet
  facet normal 0 0 1
    outer loop
      vertex 3.3876 63.3082 1.5
      vertex 1.14177 62.5 1.5
      vertex 3.3876 61.6918 1.5
    endloop
  endfacet
  facet normal -0 0 1
    outer loop
      vertex 1 62.5 1.5
      vertex 3.3876 61.6918 1.5
      vertex 1.14177 62.5 1.5
    endloop
  endfacet
  facet normal -0 0 1
    outer loop
      vertex 2.20799 65.1451 1.5
      vertex 3.3876 63.3082 1.5
      vertex 4.0019 65.9644 1.5
    endloop
  endfacet
  facet normal 0 0 1
    outer loop
      vertex 30 20.4 1.5
      vertex 27.9249 5.8077 1.5
      vertex 30 6.4 1.5
    endloop
  endfacet
  facet normal 0 0 1
    outer loop
      vertex 30 6.4 1.5
      vertex 27.9249 5.8077 1.5
      vertex 28.875 4.5 1.5
    endloop
  endfacet
  facet normal 0 0 1
    outer loop
      vertex 30 46.8 1.5
      vertex 4.9249 61.1923 1.5
      vertex 30 38 1.5
    endloop
  endfacet
  facet normal 0 0 1
    outer loop
      vertex 30 20.4 1.5
      vertex 26.3876 5.3082 1.5
      vertex 27.9249 5.8077 1.5
    endloop
  endfacet
  facet normal -0 0 1
    outer loop
      vertex 27.9249 3.1923 1.5
      vertex 30.4444 2.60776 1.5
      vertex 28.875 4.5 1.5
    endloop
  endfacet
  facet normal 0 0 1
    outer loop
      vertex 30.4444 2.60776 1.5
      vertex 27.9249 3.1923 1.5
      vertex 28.954 1.31629 1.5
    endloop
  endfacet
  facet normal 0 0 1
    outer loop
      vertex 27.9249 3.1923 1.5
      vertex 27.5 1.10724 1.5
      vertex 28.954 1.31629 1.5
    endloop
  endfacet
  facet normal 0 0 1
    outer loop
      vertex 26.3876 3.69179 1.5
      vertex 27.5 1.10724 1.5
      vertex 27.9249 3.1923 1.5
    endloop
  endfacet
  facet normal -0 0 1
    outer loop
      vertex 23.025 2 1.5
      vertex 27.5 1.10724 1.5
      vertex 26.3876 3.69179 1.5
    endloop
  endfacet
  facet normal 0 0 1
    outer loop
      vertex 23.025 1 1.5
      vertex 27.5 1.10724 1.5
      vertex 23.025 2 1.5
    endloop
  endfacet
  facet normal 0 0 1
    outer loop
      vertex 27.5 1.10724 1.5
      vertex 23.025 1 1.5
      vertex 27.5 1 1.5
    endloop
  endfacet
  facet normal -0 0 1
    outer loop
      vertex 4.9249 3.1923 1.5
      vertex 9.175 2 1.5
      vertex 5.875 4.5 1.5
    endloop
  endfacet
  facet normal 0 0 1
    outer loop
      vertex 4.5 1.10724 1.5
      vertex 9.175 2 1.5
      vertex 4.9249 3.1923 1.5
    endloop
  endfacet
  facet normal 0 0 1
    outer loop
      vertex 9.175 2 1.5
      vertex 4.5 1.10724 1.5
      vertex 9.175 1 1.5
    endloop
  endfacet
  facet normal 0 0 1
    outer loop
      vertex 9.175 1 1.5
      vertex 4.5 1.10724 1.5
      vertex 4.5 1 1.5
    endloop
  endfacet
  facet normal -0.142315 0.989821 0
    outer loop
      vertex 4.5 1.10724 1.5
      vertex 4.0019 1.03562 4
      vertex 4.5 1.10724 4
    endloop
  endfacet
  facet normal -0.142315 0.989821 0
    outer loop
      vertex 4.0019 1.03562 4
      vertex 4.5 1.10724 1.5
      vertex 4.0019 1.03562 1.5
    endloop
  endfacet
  facet normal 0.415415 0.909632 -0
    outer loop
      vertex 4.0019 1.03562 1.5
      vertex 2.20799 1.85488 4
      vertex 4.0019 1.03562 4
    endloop
  endfacet
  facet normal 0.415415 0.909632 0
    outer loop
      vertex 2.20799 1.85488 4
      vertex 4.0019 1.03562 1.5
      vertex 2.20799 1.85488 1.5
    endloop
  endfacet
  facet normal 0.841254 0.540641 0
    outer loop
      vertex 2.20799 1.85488 4
      vertex 1.14177 3.51394 1.5
      vertex 1.14177 3.51394 4
    endloop
  endfacet
  facet normal 0.841254 0.540641 0
    outer loop
      vertex 1.14177 3.51394 1.5
      vertex 2.20799 1.85488 4
      vertex 2.20799 1.85488 1.5
    endloop
  endfacet
  facet normal -0.142315 0.989821 0
    outer loop
      vertex 28.954 1.31629 1.5
      vertex 27.5 1.10724 4
      vertex 28.954 1.31629 4
    endloop
  endfacet
  facet normal -0.142315 0.989821 0
    outer loop
      vertex 27.5 1.10724 4
      vertex 28.954 1.31629 1.5
      vertex 27.5 1.10724 1.5
    endloop
  endfacet
  facet normal -0.654861 0.755749 0
    outer loop
      vertex 30.4444 2.60776 1.5
      vertex 28.954 1.31629 4
      vertex 30.4444 2.60776 4
    endloop
  endfacet
  facet normal -0.654861 0.755749 0
    outer loop
      vertex 28.954 1.31629 4
      vertex 30.4444 2.60776 1.5
      vertex 28.954 1.31629 1.5
    endloop
  endfacet
  facet normal -0.959493 0.281733 0
    outer loop
      vertex 30.4444 2.60776 1.5
      vertex 31 4.5 4
      vertex 31 4.5 1.5
    endloop
  endfacet
  facet normal -0.959493 0.281733 0
    outer loop
      vertex 31 4.5 4
      vertex 30.4444 2.60776 1.5
      vertex 30.4444 2.60776 4
    endloop
  endfacet
  facet normal 1 -0 0
    outer loop
      vertex 1.14177 62.5 4
      vertex 1.14177 63.4861 1.5
      vertex 1.14177 63.4861 4
    endloop
  endfacet
  facet normal 1 0 0
    outer loop
      vertex 1.14177 63.4861 1.5
      vertex 1.14177 62.5 4
      vertex 1.14177 62.5 1.5
    endloop
  endfacet
  facet normal 0.415412 -0.909633 0
    outer loop
      vertex 2.20799 65.1451 1.5
      vertex 4.0019 65.9644 4
      vertex 2.20799 65.1451 4
    endloop
  endfacet
  facet normal 0.415412 -0.909633 0
    outer loop
      vertex 4.0019 65.9644 4
      vertex 2.20799 65.1451 1.5
      vertex 4.0019 65.9644 1.5
    endloop
  endfacet
  facet normal 0.841254 -0.540639 0
    outer loop
      vertex 1.14177 63.4861 4
      vertex 2.20799 65.1451 1.5
      vertex 2.20799 65.1451 4
    endloop
  endfacet
  facet normal 0.841254 -0.540639 0
    outer loop
      vertex 2.20799 65.1451 1.5
      vertex 1.14177 63.4861 4
      vertex 1.14177 63.4861 1.5
    endloop
  endfacet
  facet normal -0.142302 -0.989823 0
    outer loop
      vertex 4.0019 65.9644 1.5
      vertex 4.5 65.8928 4
      vertex 4.0019 65.9644 4
    endloop
  endfacet
  facet normal -0.142302 -0.989823 -0
    outer loop
      vertex 4.5 65.8928 4
      vertex 4.0019 65.9644 1.5
      vertex 4.5 65.8928 1.5
    endloop
  endfacet
  facet normal -0.959493 -0.281733 0
    outer loop
      vertex 31 62.5 1.5
      vertex 30.4444 64.3922 4
      vertex 30.4444 64.3922 1.5
    endloop
  endfacet
  facet normal -0.959493 -0.281733 0
    outer loop
      vertex 30.4444 64.3922 4
      vertex 31 62.5 1.5
      vertex 31 62.5 4
    endloop
  endfacet
  facet normal -0.142319 -0.989821 0
    outer loop
      vertex 27.5 65.8928 1.5
      vertex 28.954 65.6837 4
      vertex 27.5 65.8928 4
    endloop
  endfacet
  facet normal -0.142319 -0.989821 -0
    outer loop
      vertex 28.954 65.6837 4
      vertex 27.5 65.8928 1.5
      vertex 28.954 65.6837 1.5
    endloop
  endfacet
  facet normal -0.65486 -0.75575 0
    outer loop
      vertex 28.954 65.6837 1.5
      vertex 30.4444 64.3922 4
      vertex 28.954 65.6837 4
    endloop
  endfacet
  facet normal -0.65486 -0.75575 -0
    outer loop
      vertex 30.4444 64.3922 4
      vertex 28.954 65.6837 1.5
      vertex 30.4444 64.3922 1.5
    endloop
  endfacet
  facet normal 1 -0 0
    outer loop
      vertex 4.5 1 4
      vertex 4.5 1.10724 1.5
      vertex 4.5 1.10724 4
    endloop
  endfacet
  facet normal 1 0 0
    outer loop
      vertex 4.5 1.10724 1.5
      vertex 4.5 1 4
      vertex 4.5 1 1.5
    endloop
  endfacet
  facet normal 1 -0 0
    outer loop
      vertex 4.5 65.8928 4
      vertex 4.5 66 1.5
      vertex 4.5 66 4
    endloop
  endfacet
  facet normal 1 0 0
    outer loop
      vertex 4.5 66 1.5
      vertex 4.5 65.8928 4
      vertex 4.5 65.8928 1.5
    endloop
  endfacet
  facet normal -1 0 0
    outer loop
      vertex 27.5 1 1.5
      vertex 27.5 1.10724 4
      vertex 27.5 1.10724 1.5
    endloop
  endfacet
  facet normal -1 -0 0
    outer loop
      vertex 27.5 1.10724 4
      vertex 27.5 1 1.5
      vertex 27.5 1 4
    endloop
  endfacet
  facet normal -1 0 0
    outer loop
      vertex 27.5 65.8928 1.5
      vertex 27.5 66 4
      vertex 27.5 66 1.5
    endloop
  endfacet
  facet normal -1 -0 0
    outer loop
      vertex 27.5 66 4
      vertex 27.5 65.8928 1.5
      vertex 27.5 65.8928 4
    endloop
  endfacet
  facet normal 0 -1 0
    outer loop
      vertex 4.5 66 1.5
      vertex 27.5 66 4
      vertex 4.5 66 4
    endloop
  endfacet
  facet normal 0 -1 -0
    outer loop
      vertex 27.5 66 4
      vertex 4.5 66 1.5
      vertex 27.5 66 1.5
    endloop
  endfacet
  facet normal 0 1 -0
    outer loop
      vertex 9.175 1 1.5
      vertex 4.5 1 4
      vertex 9.175 1 4
    endloop
  endfacet
  facet normal 0 1 0
    outer loop
      vertex 4.5 1 4
      vertex 9.175 1 1.5
      vertex 4.5 1 1.5
    endloop
  endfacet
  facet normal 0 1 -0
    outer loop
      vertex 27.5 1 1.5
      vertex 23.025 1 4
      vertex 27.5 1 4
    endloop
  endfacet
  facet normal 0 1 0
    outer loop
      vertex 23.025 1 4
      vertex 27.5 1 1.5
      vertex 23.025 1 1.5
    endloop
  endfacet
  facet normal 1 -0 0
    outer loop
      vertex 1 4.5 4
      vertex 1 62.5 1.5
      vertex 1 62.5 4
    endloop
  endfacet
  facet normal 1 0 0
    outer loop
      vertex 1 62.5 1.5
      vertex 1 4.5 4
      vertex 1 4.5 1.5
    endloop
  endfacet
  facet normal -1 0 0
    outer loop
      vertex 31 4.5 1.5
      vertex 31 6.4 4
      vertex 31 6.4 1.5
    endloop
  endfacet
  facet normal -1 -0 0
    outer loop
      vertex 31 6.4 4
      vertex 31 4.5 1.5
      vertex 31 4.5 4
    endloop
  endfacet
  facet normal -1 0 0
    outer loop
      vertex 31 59.4 1.5
      vertex 31 62.5 4
      vertex 31 62.5 1.5
    endloop
  endfacet
  facet normal -1 -0 0
    outer loop
      vertex 31 62.5 4
      vertex 31 59.4 1.5
      vertex 31 59.4 4
    endloop
  endfacet
  facet normal -1 0 0
    outer loop
      vertex 31 20.4 1.5
      vertex 31 38 4
      vertex 31 38 1.5
    endloop
  endfacet
  facet normal -1 -0 0
    outer loop
      vertex 31 38 4
      vertex 31 20.4 1.5
      vertex 31 20.4 4
    endloop
  endfacet
  facet normal -1 0 0
    outer loop
      vertex 31 46.8 1.5
      vertex 31 50.6 4
      vertex 31 50.6 1.5
    endloop
  endfacet
  facet normal -1 -0 0
    outer loop
      vertex 31 50.6 4
      vertex 31 46.8 1.5
      vertex 31 46.8 4
    endloop
  endfacet
  facet normal 0 1 -0
    outer loop
      vertex 1.14177 4.5 1.5
      vertex 1 4.5 4
      vertex 1.14177 4.5 4
    endloop
  endfacet
  facet normal 0 1 0
    outer loop
      vertex 1 4.5 4
      vertex 1.14177 4.5 1.5
      vertex 1 4.5 1.5
    endloop
  endfacet
  facet normal 0 -1 0
    outer loop
      vertex 1 62.5 1.5
      vertex 1.14177 62.5 4
      vertex 1 62.5 4
    endloop
  endfacet
  facet normal 0 -1 -0
    outer loop
      vertex 1.14177 62.5 4
      vertex 1 62.5 1.5
      vertex 1.14177 62.5 1.5
    endloop
  endfacet
  facet normal -1 0 0
    outer loop
      vertex 0 0 0
      vertex 0 67 4
      vertex 0 67 0
    endloop
  endfacet
  facet normal -1 -0 0
    outer loop
      vertex 0 67 4
      vertex 0 0 0
      vertex 0 0 4
    endloop
  endfacet
  facet normal 0 0 1
    outer loop
      vertex 32 67 4
      vertex 31 62.5 4
      vertex 32 59.4 4
    endloop
  endfacet
  facet normal 0 0 1
    outer loop
      vertex 32 67 4
      vertex 30.4444 64.3922 4
      vertex 31 62.5 4
    endloop
  endfacet
  facet normal 0 0 1
    outer loop
      vertex 32 67 4
      vertex 28.954 65.6837 4
      vertex 30.4444 64.3922 4
    endloop
  endfacet
  facet normal 0 0 1
    outer loop
      vertex 32 67 4
      vertex 27.5 66 4
      vertex 28.954 65.6837 4
    endloop
  endfacet
  facet normal 0 0 1
    outer loop
      vertex 32 67 4
      vertex 4.5 66 4
      vertex 27.5 66 4
    endloop
  endfacet
  facet normal 0 0 1
    outer loop
      vertex 4.5 66 4
      vertex 4.0019 65.9644 4
      vertex 4.5 65.8928 4
    endloop
  endfacet
  facet normal 0 0 1
    outer loop
      vertex 1.14177 63.4861 4
      vertex 1 62.5 4
      vertex 1.14177 62.5 4
    endloop
  endfacet
  facet normal 0 0 1
    outer loop
      vertex 1 62.5 4
      vertex 0 67 4
      vertex 1 4.5 4
    endloop
  endfacet
  facet normal 0 0 1
    outer loop
      vertex 1.14177 63.4861 4
      vertex 0 67 4
      vertex 1 62.5 4
    endloop
  endfacet
  facet normal 0 0 1
    outer loop
      vertex 2.20799 65.1451 4
      vertex 0 67 4
      vertex 1.14177 63.4861 4
    endloop
  endfacet
  facet normal 0 0 1
    outer loop
      vertex 4.0019 65.9644 4
      vertex 0 67 4
      vertex 2.20799 65.1451 4
    endloop
  endfacet
  facet normal 0 0 1
    outer loop
      vertex 4.5 66 4
      vertex 0 67 4
      vertex 4.0019 65.9644 4
    endloop
  endfacet
  facet normal -0 0 1
    outer loop
      vertex 0 67 4
      vertex 4.5 66 4
      vertex 32 67 4
    endloop
  endfacet
  facet normal 0 0 1
    outer loop
      vertex 32 59.4 4
      vertex 31 62.5 4
      vertex 31 59.4 4
    endloop
  endfacet
  facet normal 0 0 1
    outer loop
      vertex 28.954 65.6837 4
      vertex 27.5 66 4
      vertex 27.5 65.8928 4
    endloop
  endfacet
  facet normal 0 0 1
    outer loop
      vertex 1.14177 4.5 4
      vertex 1 4.5 4
      vertex 1.14177 3.51394 4
    endloop
  endfacet
  facet normal 0 0 1
    outer loop
      vertex 4.5 1.10724 4
      vertex 4.0019 1.03562 4
      vertex 4.5 1 4
    endloop
  endfacet
  facet normal -0 0 1
    outer loop
      vertex 4.5 1 4
      vertex 9.175 0 4
      vertex 9.175 1 4
    endloop
  endfacet
  facet normal 0 0 1
    outer loop
      vertex 0 0 4
      vertex 4.5 1 4
      vertex 4.0019 1.03562 4
    endloop
  endfacet
  facet normal 0 0 1
    outer loop
      vertex 4.5 1 4
      vertex 0 0 4
      vertex 9.175 0 4
    endloop
  endfacet
  facet normal 0 0 1
    outer loop
      vertex 2.20799 1.85488 4
      vertex 0 0 4
      vertex 4.0019 1.03562 4
    endloop
  endfacet
  facet normal 0 0 1
    outer loop
      vertex 1.14177 3.51394 4
      vertex 0 0 4
      vertex 2.20799 1.85488 4
    endloop
  endfacet
  facet normal 0 0 1
    outer loop
      vertex 1 4.5 4
      vertex 0 0 4
      vertex 1.14177 3.51394 4
    endloop
  endfacet
  facet normal 0 0 1
    outer loop
      vertex 0 0 4
      vertex 1 4.5 4
      vertex 0 67 4
    endloop
  endfacet
  facet normal 0 0 1
    outer loop
      vertex 31 4.5 4
      vertex 32 6.4 4
      vertex 31 6.4 4
    endloop
  endfacet
  facet normal 0 0 1
    outer loop
      vertex 32 6.4 4
      vertex 31 4.5 4
      vertex 32 0 4
    endloop
  endfacet
  facet normal -0 0 1
    outer loop
      vertex 30.4444 2.60776 4
      vertex 32 0 4
      vertex 31 4.5 4
    endloop
  endfacet
  facet normal -0 0 1
    outer loop
      vertex 28.954 1.31629 4
      vertex 32 0 4
      vertex 30.4444 2.60776 4
    endloop
  endfacet
  facet normal 0 0 1
    outer loop
      vertex 27.5 1 4
      vertex 28.954 1.31629 4
      vertex 27.5 1.10724 4
    endloop
  endfacet
  facet normal 0 0 1
    outer loop
      vertex 28.954 1.31629 4
      vertex 27.5 1 4
      vertex 32 0 4
    endloop
  endfacet
  facet normal 0 0 1
    outer loop
      vertex 23.025 0 4
      vertex 27.5 1 4
      vertex 23.025 1 4
    endloop
  endfacet
  facet normal 0 0 1
    outer loop
      vertex 27.5 1 4
      vertex 23.025 0 4
      vertex 32 0 4
    endloop
  endfacet
  facet normal -0 0 1
    outer loop
      vertex 31 38 4
      vertex 32 20.4 4
      vertex 32 38 4
    endloop
  endfacet
  facet normal 0 0 1
    outer loop
      vertex 32 20.4 4
      vertex 31 38 4
      vertex 31 20.4 4
    endloop
  endfacet
  facet normal -0 0 1
    outer loop
      vertex 31 50.6 4
      vertex 32 46.8 4
      vertex 32 50.6 4
    endloop
  endfacet
  facet normal 0 0 1
    outer loop
      vertex 32 46.8 4
      vertex 31 50.6 4
      vertex 31 46.8 4
    endloop
  endfacet
  facet normal 1 0 0
    outer loop
      vertex 32 6.4 4
      vertex 32 0 4
      vertex 32 6.4 1
    endloop
  endfacet
  facet normal 1 0 0
    outer loop
      vertex 32 38 4
      vertex 32 20.4 4
      vertex 32 38 1
    endloop
  endfacet
  facet normal 1 0 0
    outer loop
      vertex 32 50.6 4
      vertex 32 46.8 4
      vertex 32 50.6 1
    endloop
  endfacet
  facet normal 1 0 0
    outer loop
      vertex 32 59.4 1
      vertex 32 67 4
      vertex 32 59.4 4
    endloop
  endfacet
  facet normal 1 0 0
    outer loop
      vertex 32 67 4
      vertex 32 59.4 1
      vertex 32 67 0
    endloop
  endfacet
  facet normal 1 -0 0
    outer loop
      vertex 32 50.6 1
      vertex 32 67 0
      vertex 32 59.4 1
    endloop
  endfacet
  facet normal 1 0 0
    outer loop
      vertex 32 46.8 1
      vertex 32 50.6 1
      vertex 32 46.8 4
    endloop
  endfacet
  facet normal 1 -0 0
    outer loop
      vertex 32 46.8 1
      vertex 32 67 0
      vertex 32 50.6 1
    endloop
  endfacet
  facet normal 1 -0 0
    outer loop
      vertex 32 38 1
      vertex 32 67 0
      vertex 32 46.8 1
    endloop
  endfacet
  facet normal 1 0 0
    outer loop
      vertex 32 20.4 1
      vertex 32 38 1
      vertex 32 20.4 4
    endloop
  endfacet
  facet normal 1 0 0
    outer loop
      vertex 32 0 0
      vertex 32 38 1
      vertex 32 20.4 1
    endloop
  endfacet
  facet normal 1 0 0
    outer loop
      vertex 32 0 0
      vertex 32 20.4 1
      vertex 32 6.4 1
    endloop
  endfacet
  facet normal 1 0 0
    outer loop
      vertex 32 38 1
      vertex 32 0 0
      vertex 32 67 0
    endloop
  endfacet
  facet normal 1 0 0
    outer loop
      vertex 32 0 0
      vertex 32 6.4 1
      vertex 32 0 4
    endloop
  endfacet
  facet normal 0 1 -0
    outer loop
      vertex 32 67 0
      vertex 0 67 4
      vertex 32 67 4
    endloop
  endfacet
  facet normal 0 1 0
    outer loop
      vertex 0 67 4
      vertex 32 67 0
      vertex 0 67 0
    endloop
  endfacet
  facet normal 0 0 -1
    outer loop
      vertex 4.9249 61.1923 0
      vertex 26.3876 61.6918 0
      vertex 4.9249 5.8077 0
    endloop
  endfacet
  facet normal -0 0 -1
    outer loop
      vertex 26.3876 61.6918 0
      vertex 4.9249 61.1923 0
      vertex 5.875 62.5 0
    endloop
  endfacet
  facet normal 0 0 -1
    outer loop
      vertex 3.3876 5.3082 0
      vertex 4.9249 61.1923 0
      vertex 4.9249 5.8077 0
    endloop
  endfacet
  facet normal -0 0 -1
    outer loop
      vertex 4.9249 61.1923 0
      vertex 3.3876 5.3082 0
      vertex 3.3876 61.6918 0
    endloop
  endfacet
  facet normal 0 0 -1
    outer loop
      vertex 27.9249 5.8077 0
      vertex 28.875 62.5 0
      vertex 28.875 4.5 0
    endloop
  endfacet
  facet normal 0 0 -1
    outer loop
      vertex 27.9249 5.8077 0
      vertex 27.9249 61.1923 0
      vertex 28.875 62.5 0
    endloop
  endfacet
  facet normal 0 0 -1
    outer loop
      vertex 26.3876 5.3082 0
      vertex 27.9249 61.1923 0
      vertex 27.9249 5.8077 0
    endloop
  endfacet
  facet normal -0 0 -1
    outer loop
      vertex 27.9249 61.1923 0
      vertex 26.3876 5.3082 0
      vertex 26.3876 61.6918 0
    endloop
  endfacet
  facet normal 0 0 -1
    outer loop
      vertex 32 0 0
      vertex 28.875 4.5 0
      vertex 32 67 0
    endloop
  endfacet
  facet normal 0 0 -1
    outer loop
      vertex 32 0 0
      vertex 27.9249 3.1923 0
      vertex 28.875 4.5 0
    endloop
  endfacet
  facet normal 0 0 -1
    outer loop
      vertex 32 0 0
      vertex 26.3876 3.69179 0
      vertex 27.9249 3.1923 0
    endloop
  endfacet
  facet normal 0 0 -1
    outer loop
      vertex 5.875 4.5 0
      vertex 26.3876 5.3082 0
      vertex 26.3876 3.69179 0
    endloop
  endfacet
  facet normal 0 0 -1
    outer loop
      vertex 4.9249 5.8077 0
      vertex 26.3876 5.3082 0
      vertex 5.875 4.5 0
    endloop
  endfacet
  facet normal 0 0 -1
    outer loop
      vertex 26.3876 5.3082 0
      vertex 4.9249 5.8077 0
      vertex 26.3876 61.6918 0
    endloop
  endfacet
  facet normal 0 0 -1
    outer loop
      vertex 4.9249 3.1923 0
      vertex 26.3876 3.69179 0
      vertex 32 0 0
    endloop
  endfacet
  facet normal -0 0 -1
    outer loop
      vertex 26.3876 3.69179 0
      vertex 4.9249 3.1923 0
      vertex 5.875 4.5 0
    endloop
  endfacet
  facet normal 0 0 -1
    outer loop
      vertex 0 0 0
      vertex 3.3876 5.3082 0
      vertex 3.3876 3.69179 0
    endloop
  endfacet
  facet normal -0 0 -1
    outer loop
      vertex 3.3876 5.3082 0
      vertex 0 0 0
      vertex 3.3876 61.6918 0
    endloop
  endfacet
  facet normal 0 0 -1
    outer loop
      vertex 0 67 0
      vertex 3.3876 61.6918 0
      vertex 0 0 0
    endloop
  endfacet
  facet normal -0 0 -1
    outer loop
      vertex 4.9249 3.1923 0
      vertex 0 0 0
      vertex 3.3876 3.69179 0
    endloop
  endfacet
  facet normal 0 0 -1
    outer loop
      vertex 0 0 0
      vertex 4.9249 3.1923 0
      vertex 32 0 0
    endloop
  endfacet
  facet normal 0 0 -1
    outer loop
      vertex 28.875 62.5 0
      vertex 32 67 0
      vertex 28.875 4.5 0
    endloop
  endfacet
  facet normal 0 0 -1
    outer loop
      vertex 27.9249 63.8077 0
      vertex 32 67 0
      vertex 28.875 62.5 0
    endloop
  endfacet
  facet normal 0 0 -1
    outer loop
      vertex 26.3876 63.3082 0
      vertex 32 67 0
      vertex 27.9249 63.8077 0
    endloop
  endfacet
  facet normal 0 0 -1
    outer loop
      vertex 26.3876 61.6918 0
      vertex 5.875 62.5 0
      vertex 26.3876 63.3082 0
    endloop
  endfacet
  facet normal 0 0 -1
    outer loop
      vertex 4.9249 63.8077 0
      vertex 26.3876 63.3082 0
      vertex 5.875 62.5 0
    endloop
  endfacet
  facet normal 0 0 -1
    outer loop
      vertex 26.3876 63.3082 0
      vertex 4.9249 63.8077 0
      vertex 32 67 0
    endloop
  endfacet
  facet normal 0 0 -1
    outer loop
      vertex 4.9249 63.8077 0
      vertex 0 67 0
      vertex 32 67 0
    endloop
  endfacet
  facet normal 0 0 -1
    outer loop
      vertex 3.3876 63.3082 0
      vertex 0 67 0
      vertex 4.9249 63.8077 0
    endloop
  endfacet
  facet normal 0 0 -1
    outer loop
      vertex 3.3876 61.6918 0
      vertex 0 67 0
      vertex 3.3876 63.3082 0
    endloop
  endfacet
  facet normal 0 -1 0
    outer loop
      vertex 0 0 4
      vertex 9.175 0 1
      vertex 9.175 0 4
    endloop
  endfacet
  facet normal 0 -1 -0
    outer loop
      vertex 9.175 0 1
      vertex 0 0 0
      vertex 23.025 0 1
    endloop
  endfacet
  facet normal 0 -1 0
    outer loop
      vertex 0 0 0
      vertex 9.175 0 1
      vertex 0 0 4
    endloop
  endfacet
  facet normal 0 -1 0
    outer loop
      vertex 23.025 0 1
      vertex 32 0 4
      vertex 23.025 0 4
    endloop
  endfacet
  facet normal 0 -1 0
    outer loop
      vertex 23.025 0 1
      vertex 32 0 0
      vertex 32 0 4
    endloop
  endfacet
  facet normal 0 -1 0
    outer loop
      vertex 32 0 0
      vertex 23.025 0 1
      vertex 0 0 0
    endloop
  endfacet
  facet normal 1 -0 0
    outer loop
      vertex 30 50.6 1.5
      vertex 30 59.4 1
      vertex 30 59.4 1.5
    endloop
  endfacet
  facet normal 1 0 0
    outer loop
      vertex 30 59.4 1
      vertex 30 50.6 1.5
      vertex 30 50.6 1
    endloop
  endfacet
  facet normal -0 0 1
    outer loop
      vertex 30 59.4 1
      vertex 32 50.6 1
      vertex 32 59.4 1
    endloop
  endfacet
  facet normal 0 0 1
    outer loop
      vertex 32 50.6 1
      vertex 30 59.4 1
      vertex 30 50.6 1
    endloop
  endfacet
  facet normal 0 1 0
    outer loop
      vertex 32 50.6 4
      vertex 31 50.6 1.5
      vertex 31 50.6 4
    endloop
  endfacet
  facet normal 0 1 -0
    outer loop
      vertex 32 50.6 1
      vertex 31 50.6 1.5
      vertex 32 50.6 4
    endloop
  endfacet
  facet normal 0 1 0
    outer loop
      vertex 30 50.6 1
      vertex 31 50.6 1.5
      vertex 32 50.6 1
    endloop
  endfacet
  facet normal 0 1 0
    outer loop
      vertex 31 50.6 1.5
      vertex 30 50.6 1
      vertex 30 50.6 1.5
    endloop
  endfacet
  facet normal 0 -1 0
    outer loop
      vertex 30 59.4 1.5
      vertex 30 59.4 1
      vertex 31 59.4 1.5
    endloop
  endfacet
  facet normal 0 -1 0
    outer loop
      vertex 31 59.4 1.5
      vertex 32 59.4 4
      vertex 31 59.4 4
    endloop
  endfacet
  facet normal 0 -1 0
    outer loop
      vertex 31 59.4 1.5
      vertex 32 59.4 1
      vertex 32 59.4 4
    endloop
  endfacet
  facet normal 0 -1 0
    outer loop
      vertex 32 59.4 1
      vertex 31 59.4 1.5
      vertex 30 59.4 1
    endloop
  endfacet
  facet normal 1 -0 0
    outer loop
      vertex 30 38 1.5
      vertex 30 46.8 1
      vertex 30 46.8 1.5
    endloop
  endfacet
  facet normal 1 0 0
    outer loop
      vertex 30 46.8 1
      vertex 30 38 1.5
      vertex 30 38 1
    endloop
  endfacet
  facet normal -0 0 1
    outer loop
      vertex 30 46.8 1
      vertex 32 38 1
      vertex 32 46.8 1
    endloop
  endfacet
  facet normal 0 0 1
    outer loop
      vertex 32 38 1
      vertex 30 46.8 1
      vertex 30 38 1
    endloop
  endfacet
  facet normal 0 1 0
    outer loop
      vertex 32 38 4
      vertex 31 38 1.5
      vertex 31 38 4
    endloop
  endfacet
  facet normal 0 1 -0
    outer loop
      vertex 32 38 1
      vertex 31 38 1.5
      vertex 32 38 4
    endloop
  endfacet
  facet normal 0 1 0
    outer loop
      vertex 30 38 1
      vertex 31 38 1.5
      vertex 32 38 1
    endloop
  endfacet
  facet normal 0 1 0
    outer loop
      vertex 31 38 1.5
      vertex 30 38 1
      vertex 30 38 1.5
    endloop
  endfacet
  facet normal 0 -1 0
    outer loop
      vertex 30 46.8 1.5
      vertex 30 46.8 1
      vertex 31 46.8 1.5
    endloop
  endfacet
  facet normal 0 -1 0
    outer loop
      vertex 31 46.8 1.5
      vertex 32 46.8 4
      vertex 31 46.8 4
    endloop
  endfacet
  facet normal 0 -1 0
    outer loop
      vertex 31 46.8 1.5
      vertex 32 46.8 1
      vertex 32 46.8 4
    endloop
  endfacet
  facet normal 0 -1 0
    outer loop
      vertex 32 46.8 1
      vertex 31 46.8 1.5
      vertex 30 46.8 1
    endloop
  endfacet
  facet normal 1 -0 0
    outer loop
      vertex 30 6.4 1.5
      vertex 30 20.4 1
      vertex 30 20.4 1.5
    endloop
  endfacet
  facet normal 1 0 0
    outer loop
      vertex 30 20.4 1
      vertex 30 6.4 1.5
      vertex 30 6.4 1
    endloop
  endfacet
  facet normal -0 0 1
    outer loop
      vertex 30 20.4 1
      vertex 32 6.4 1
      vertex 32 20.4 1
    endloop
  endfacet
  facet normal 0 0 1
    outer loop
      vertex 32 6.4 1
      vertex 30 20.4 1
      vertex 30 6.4 1
    endloop
  endfacet
  facet normal 0 1 0
    outer loop
      vertex 32 6.4 4
      vertex 31 6.4 1.5
      vertex 31 6.4 4
    endloop
  endfacet
  facet normal 0 1 -0
    outer loop
      vertex 32 6.4 1
      vertex 31 6.4 1.5
      vertex 32 6.4 4
    endloop
  endfacet
  facet normal 0 1 0
    outer loop
      vertex 30 6.4 1
      vertex 31 6.4 1.5
      vertex 32 6.4 1
    endloop
  endfacet
  facet normal 0 1 0
    outer loop
      vertex 31 6.4 1.5
      vertex 30 6.4 1
      vertex 30 6.4 1.5
    endloop
  endfacet
  facet normal 0 -1 0
    outer loop
      vertex 30 20.4 1.5
      vertex 30 20.4 1
      vertex 31 20.4 1.5
    endloop
  endfacet
  facet normal 0 -1 0
    outer loop
      vertex 31 20.4 1.5
      vertex 32 20.4 4
      vertex 31 20.4 4
    endloop
  endfacet
  facet normal 0 -1 0
    outer loop
      vertex 31 20.4 1.5
      vertex 32 20.4 1
      vertex 32 20.4 4
    endloop
  endfacet
  facet normal 0 -1 0
    outer loop
      vertex 32 20.4 1
      vertex 31 20.4 1.5
      vertex 30 20.4 1
    endloop
  endfacet
  facet normal -0.809017 -0.587786 0
    outer loop
      vertex 5.875 4.5 0
      vertex 4.9249 5.8077 1.5
      vertex 4.9249 5.8077 0
    endloop
  endfacet
  facet normal -0.809017 -0.587786 0
    outer loop
      vertex 4.9249 5.8077 1.5
      vertex 5.875 4.5 0
      vertex 5.875 4.5 1.5
    endloop
  endfacet
  facet normal 1 -0 0
    outer loop
      vertex 3.3876 3.69179 1.5
      vertex 3.3876 5.3082 0
      vertex 3.3876 5.3082 1.5
    endloop
  endfacet
  facet normal 1 0 0
    outer loop
      vertex 3.3876 5.3082 0
      vertex 3.3876 3.69179 1.5
      vertex 3.3876 3.69179 0
    endloop
  endfacet
  facet normal 0.309017 -0.951057 0
    outer loop
      vertex 3.3876 5.3082 0
      vertex 4.9249 5.8077 1.5
      vertex 3.3876 5.3082 1.5
    endloop
  endfacet
  facet normal 0.309017 -0.951057 0
    outer loop
      vertex 4.9249 5.8077 1.5
      vertex 3.3876 5.3082 0
      vertex 4.9249 5.8077 0
    endloop
  endfacet
  facet normal 0.309017 0.951057 -0
    outer loop
      vertex 4.9249 3.1923 0
      vertex 3.3876 3.69179 1.5
      vertex 4.9249 3.1923 1.5
    endloop
  endfacet
  facet normal 0.309017 0.951057 0
    outer loop
      vertex 3.3876 3.69179 1.5
      vertex 4.9249 3.1923 0
      vertex 3.3876 3.69179 0
    endloop
  endfacet
  facet normal -0.809017 0.587785 0
    outer loop
      vertex 4.9249 3.1923 0
      vertex 5.875 4.5 1.5
      vertex 5.875 4.5 0
    endloop
  endfacet
  facet normal -0.809017 0.587785 0
    outer loop
      vertex 5.875 4.5 1.5
      vertex 4.9249 3.1923 0
      vertex 4.9249 3.1923 1.5
    endloop
  endfacet
  facet normal -0.809017 -0.587786 0
    outer loop
      vertex 28.875 4.5 0
      vertex 27.9249 5.8077 1.5
      vertex 27.9249 5.8077 0
    endloop
  endfacet
  facet normal -0.809017 -0.587786 0
    outer loop
      vertex 27.9249 5.8077 1.5
      vertex 28.875 4.5 0
      vertex 28.875 4.5 1.5
    endloop
  endfacet
  facet normal 1 -0 0
    outer loop
      vertex 26.3876 3.69179 1.5
      vertex 26.3876 5.3082 0
      vertex 26.3876 5.3082 1.5
    endloop
  endfacet
  facet normal 1 0 0
    outer loop
      vertex 26.3876 5.3082 0
      vertex 26.3876 3.69179 1.5
      vertex 26.3876 3.69179 0
    endloop
  endfacet
  facet normal 0.309016 -0.951057 0
    outer loop
      vertex 26.3876 5.3082 0
      vertex 27.9249 5.8077 1.5
      vertex 26.3876 5.3082 1.5
    endloop
  endfacet
  facet normal 0.309016 -0.951057 0
    outer loop
      vertex 27.9249 5.8077 1.5
      vertex 26.3876 5.3082 0
      vertex 27.9249 5.8077 0
    endloop
  endfacet
  facet normal 0.309016 0.951057 -0
    outer loop
      vertex 27.9249 3.1923 0
      vertex 26.3876 3.69179 1.5
      vertex 27.9249 3.1923 1.5
    endloop
  endfacet
  facet normal 0.309016 0.951057 0
    outer loop
      vertex 26.3876 3.69179 1.5
      vertex 27.9249 3.1923 0
      vertex 26.3876 3.69179 0
    endloop
  endfacet
  facet normal -0.809017 0.587785 0
    outer loop
      vertex 27.9249 3.1923 0
      vertex 28.875 4.5 1.5
      vertex 28.875 4.5 0
    endloop
  endfacet
  facet normal -0.809017 0.587785 0
    outer loop
      vertex 28.875 4.5 1.5
      vertex 27.9249 3.1923 0
      vertex 27.9249 3.1923 1.5
    endloop
  endfacet
  facet normal -0.809017 -0.587786 0
    outer loop
      vertex 28.875 62.5 0
      vertex 27.9249 63.8077 1.5
      vertex 27.9249 63.8077 0
    endloop
  endfacet
  facet normal -0.809017 -0.587786 0
    outer loop
      vertex 27.9249 63.8077 1.5
      vertex 28.875 62.5 0
      vertex 28.875 62.5 1.5
    endloop
  endfacet
  facet normal 1 -0 0
    outer loop
      vertex 26.3876 61.6918 1.5
      vertex 26.3876 63.3082 0
      vertex 26.3876 63.3082 1.5
    endloop
  endfacet
  facet normal 1 0 0
    outer loop
      vertex 26.3876 63.3082 0
      vertex 26.3876 61.6918 1.5
      vertex 26.3876 61.6918 0
    endloop
  endfacet
  facet normal 0.309016 -0.951057 0
    outer loop
      vertex 26.3876 63.3082 0
      vertex 27.9249 63.8077 1.5
      vertex 26.3876 63.3082 1.5
    endloop
  endfacet
  facet normal 0.309016 -0.951057 0
    outer loop
      vertex 27.9249 63.8077 1.5
      vertex 26.3876 63.3082 0
      vertex 27.9249 63.8077 0
    endloop
  endfacet
  facet normal 0.309016 0.951057 -0
    outer loop
      vertex 27.9249 61.1923 0
      vertex 26.3876 61.6918 1.5
      vertex 27.9249 61.1923 1.5
    endloop
  endfacet
  facet normal 0.309016 0.951057 0
    outer loop
      vertex 26.3876 61.6918 1.5
      vertex 27.9249 61.1923 0
      vertex 26.3876 61.6918 0
    endloop
  endfacet
  facet normal -0.809017 0.587786 0
    outer loop
      vertex 27.9249 61.1923 0
      vertex 28.875 62.5 1.5
      vertex 28.875 62.5 0
    endloop
  endfacet
  facet normal -0.809017 0.587786 0
    outer loop
      vertex 28.875 62.5 1.5
      vertex 27.9249 61.1923 0
      vertex 27.9249 61.1923 1.5
    endloop
  endfacet
  facet normal -0.809017 -0.587786 0
    outer loop
      vertex 5.875 62.5 0
      vertex 4.9249 63.8077 1.5
      vertex 4.9249 63.8077 0
    endloop
  endfacet
  facet normal -0.809017 -0.587786 0
    outer loop
      vertex 4.9249 63.8077 1.5
      vertex 5.875 62.5 0
      vertex 5.875 62.5 1.5
    endloop
  endfacet
  facet normal 1 -0 0
    outer loop
      vertex 3.3876 61.6918 1.5
      vertex 3.3876 63.3082 0
      vertex 3.3876 63.3082 1.5
    endloop
  endfacet
  facet normal 1 0 0
    outer loop
      vertex 3.3876 63.3082 0
      vertex 3.3876 61.6918 1.5
      vertex 3.3876 61.6918 0
    endloop
  endfacet
  facet normal 0.309016 -0.951057 0
    outer loop
      vertex 3.3876 63.3082 0
      vertex 4.9249 63.8077 1.5
      vertex 3.3876 63.3082 1.5
    endloop
  endfacet
  facet normal 0.309016 -0.951057 0
    outer loop
      vertex 4.9249 63.8077 1.5
      vertex 3.3876 63.3082 0
      vertex 4.9249 63.8077 0
    endloop
  endfacet
  facet normal 0.309016 0.951057 -0
    outer loop
      vertex 4.9249 61.1923 0
      vertex 3.3876 61.6918 1.5
      vertex 4.9249 61.1923 1.5
    endloop
  endfacet
  facet normal 0.309016 0.951057 0
    outer loop
      vertex 3.3876 61.6918 1.5
      vertex 4.9249 61.1923 0
      vertex 3.3876 61.6918 0
    endloop
  endfacet
  facet normal -0.809017 0.587786 0
    outer loop
      vertex 4.9249 61.1923 0
      vertex 5.875 62.5 1.5
      vertex 5.875 62.5 0
    endloop
  endfacet
  facet normal -0.809017 0.587786 0
    outer loop
      vertex 5.875 62.5 1.5
      vertex 4.9249 61.1923 0
      vertex 4.9249 61.1923 1.5
    endloop
  endfacet
  facet normal 1 0 0
    outer loop
      vertex 9.175 1 4
      vertex 9.175 0 4
      vertex 9.175 1 1.5
    endloop
  endfacet
  facet normal 1 -0 0
    outer loop
      vertex 9.175 1 1.5
      vertex 9.175 2 1
      vertex 9.175 2 1.5
    endloop
  endfacet
  facet normal 1 0 0
    outer loop
      vertex 9.175 1 1.5
      vertex 9.175 0 1
      vertex 9.175 2 1
    endloop
  endfacet
  facet normal 1 0 0
    outer loop
      vertex 9.175 0 1
      vertex 9.175 1 1.5
      vertex 9.175 0 4
    endloop
  endfacet
  facet normal -1 0 0
    outer loop
      vertex 23.025 2 1
      vertex 23.025 1 1.5
      vertex 23.025 2 1.5
    endloop
  endfacet
  facet normal -1 0 0
    outer loop
      vertex 23.025 0 1
      vertex 23.025 1 1.5
      vertex 23.025 2 1
    endloop
  endfacet
  facet normal -1 0 0
    outer loop
      vertex 23.025 0 4
      vertex 23.025 1 1.5
      vertex 23.025 0 1
    endloop
  endfacet
  facet normal -1 0 0
    outer loop
      vertex 23.025 1 1.5
      vertex 23.025 0 4
      vertex 23.025 1 4
    endloop
  endfacet
  facet normal -0 0 1
    outer loop
      vertex 9.175 2 1
      vertex 23.025 0 1
      vertex 23.025 2 1
    endloop
  endfacet
  facet normal 0 0 1
    outer loop
      vertex 23.025 0 1
      vertex 9.175 2 1
      vertex 9.175 0 1
    endloop
  endfacet
  facet normal 0 -1 0
    outer loop
      vertex 9.175 2 1
      vertex 23.025 2 1.5
      vertex 9.175 2 1.5
    endloop
  endfacet
  facet normal 0 -1 -0
    outer loop
      vertex 23.025 2 1.5
      vertex 9.175 2 1
      vertex 23.025 2 1
    endloop
  endfacet
endsolid OpenSCAD_Model
