solid OpenSCAD_Model
  facet normal 1 -0 0
    outer loop
      vertex 1.14177 3.51394 4
      vertex 1.14177 4.5 1.5
      vertex 1.14177 4.5 4
    endloop
  endfacet
  facet normal 1 0 0
    outer loop
      vertex 1.14177 4.5 1.5
      vertex 1.14177 3.51394 4
      vertex 1.14177 3.51394 1.5
    endloop
  endfacet
  facet normal 0 0 1
    outer loop
      vertex 1 4.5 1.5
      vertex 3.52918 5.20534 1.5
      vertex 1 62.5 1.5
    endloop
  endfacet
  facet normal 0 0 1
    outer loop
      vertex 3.52918 5.20534 1.5
      vertex 1 4.5 1.5
      vertex 1.14177 4.5 1.5
    endloop
  endfacet
  facet normal 0 0 1
    outer loop
      vertex 4.87082 3.35873 1.5
      vertex 4.0019 1.03562 1.5
      vertex 4.5 1.10724 1.5
    endloop
  endfacet
  facet normal 0 0 1
    outer loop
      vertex 3.52918 3.79466 1.5
      vertex 4.0019 1.03562 1.5
      vertex 4.87082 3.35873 1.5
    endloop
  endfacet
  facet normal 0 0 1
    outer loop
      vertex 3.52918 3.79466 1.5
      vertex 2.20799 1.85488 1.5
      vertex 4.0019 1.03562 1.5
    endloop
  endfacet
  facet normal 0 0 1
    outer loop
      vertex 3.52918 5.20534 1.5
      vertex 2.20799 1.85488 1.5
      vertex 3.52918 3.79466 1.5
    endloop
  endfacet
  facet normal 0 0 1
    outer loop
      vertex 1.14177 62.5 1.5
      vertex 2.20799 65.1451 1.5
      vertex 1.14177 63.4861 1.5
    endloop
  endfacet
  facet normal 0 0 1
    outer loop
      vertex 3.52918 61.7947 1.5
      vertex 1 62.5 1.5
      vertex 3.52918 5.20534 1.5
    endloop
  endfacet
  facet normal 0 0 1
    outer loop
      vertex 1.14177 3.51394 1.5
      vertex 3.52918 5.20534 1.5
      vertex 1.14177 4.5 1.5
    endloop
  endfacet
  facet normal 0 0 1
    outer loop
      vertex 3.52918 5.20534 1.5
      vertex 1.14177 3.51394 1.5
      vertex 2.20799 1.85488 1.5
    endloop
  endfacet
  facet normal 0 0 1
    outer loop
      vertex 4.87082 5.64127 1.5
      vertex 30 38 1.5
      vertex 4.87082 61.3587 1.5
    endloop
  endfacet
  facet normal 0 0 1
    outer loop
      vertex 30 38 1.5
      vertex 4.87082 5.64127 1.5
      vertex 5.7 4.5 1.5
    endloop
  endfacet
  facet normal 0 0 1
    outer loop
      vertex 3.52918 61.7947 1.5
      vertex 4.87082 5.64127 1.5
      vertex 4.87082 61.3587 1.5
    endloop
  endfacet
  facet normal 0 0 1
    outer loop
      vertex 4.87082 5.64127 1.5
      vertex 3.52918 61.7947 1.5
      vertex 3.52918 5.20534 1.5
    endloop
  endfacet
  facet normal -0 0 1
    outer loop
      vertex 4.5 65.8928 1.5
      vertex 10.975 65 1.5
      vertex 10.975 66 1.5
    endloop
  endfacet
  facet normal 0 0 1
    outer loop
      vertex 10.975 65 1.5
      vertex 4.87082 63.6413 1.5
      vertex 5.7 62.5 1.5
    endloop
  endfacet
  facet normal 0 0 1
    outer loop
      vertex 4.5 65.8928 1.5
      vertex 10.975 66 1.5
      vertex 4.5 66 1.5
    endloop
  endfacet
  facet normal 0 0 1
    outer loop
      vertex 10.975 65 1.5
      vertex 4.5 65.8928 1.5
      vertex 4.87082 63.6413 1.5
    endloop
  endfacet
  facet normal 0 0 1
    outer loop
      vertex 4.0019 65.9644 1.5
      vertex 4.87082 63.6413 1.5
      vertex 4.5 65.8928 1.5
    endloop
  endfacet
  facet normal 0 0 1
    outer loop
      vertex 4.0019 65.9644 1.5
      vertex 3.52918 63.2053 1.5
      vertex 4.87082 63.6413 1.5
    endloop
  endfacet
  facet normal 0 0 1
    outer loop
      vertex 1.14177 62.5 1.5
      vertex 3.52918 63.2053 1.5
      vertex 2.20799 65.1451 1.5
    endloop
  endfacet
  facet normal 0 0 1
    outer loop
      vertex 3.52918 63.2053 1.5
      vertex 1.14177 62.5 1.5
      vertex 3.52918 61.7947 1.5
    endloop
  endfacet
  facet normal -0 0 1
    outer loop
      vertex 1 62.5 1.5
      vertex 3.52918 61.7947 1.5
      vertex 1.14177 62.5 1.5
    endloop
  endfacet
  facet normal -0 0 1
    outer loop
      vertex 2.20799 65.1451 1.5
      vertex 3.52918 63.2053 1.5
      vertex 4.0019 65.9644 1.5
    endloop
  endfacet
  facet normal 0 0 1
    outer loop
      vertex 28.7 62.5 1.5
      vertex 31 62.5 1.5
      vertex 30.4444 64.3922 1.5
    endloop
  endfacet
  facet normal 0 -0 1
    outer loop
      vertex 30 59.4 1.5
      vertex 31 62.5 1.5
      vertex 28.7 62.5 1.5
    endloop
  endfacet
  facet normal 0 0 1
    outer loop
      vertex 26.5292 61.7947 1.5
      vertex 30 50.6 1.5
      vertex 30 59.4 1.5
    endloop
  endfacet
  facet normal 0 0 1
    outer loop
      vertex 10.975 65 1.5
      vertex 30 50.6 1.5
      vertex 26.5292 61.7947 1.5
    endloop
  endfacet
  facet normal 0 0 1
    outer loop
      vertex 4.87082 61.3587 1.5
      vertex 10.975 65 1.5
      vertex 5.7 62.5 1.5
    endloop
  endfacet
  facet normal 0 0 1
    outer loop
      vertex 30 46.8 1.5
      vertex 4.87082 61.3587 1.5
      vertex 30 38 1.5
    endloop
  endfacet
  facet normal 0 0 1
    outer loop
      vertex 31 62.5 1.5
      vertex 30 59.4 1.5
      vertex 31 59.4 1.5
    endloop
  endfacet
  facet normal 0 0 1
    outer loop
      vertex 28.7 62.5 1.5
      vertex 30.4444 64.3922 1.5
      vertex 28.954 65.6837 1.5
    endloop
  endfacet
  facet normal -0 0 1
    outer loop
      vertex 30 50.6 1.5
      vertex 31 46.8 1.5
      vertex 31 50.6 1.5
    endloop
  endfacet
  facet normal 0 0 1
    outer loop
      vertex 31 46.8 1.5
      vertex 30 50.6 1.5
      vertex 30 46.8 1.5
    endloop
  endfacet
  facet normal -0 0 1
    outer loop
      vertex 30 38 1.5
      vertex 31 20.4 1.5
      vertex 31 38 1.5
    endloop
  endfacet
  facet normal 0 0 1
    outer loop
      vertex 31 20.4 1.5
      vertex 30 38 1.5
      vertex 30 20.4 1.5
    endloop
  endfacet
  facet normal -0 0 1
    outer loop
      vertex 30 6.4 1.5
      vertex 31 4.5 1.5
      vertex 31 6.4 1.5
    endloop
  endfacet
  facet normal 0 0 1
    outer loop
      vertex 31 4.5 1.5
      vertex 30 6.4 1.5
      vertex 28.7 4.5 1.5
    endloop
  endfacet
  facet normal 0 0 1
    outer loop
      vertex 31 4.5 1.5
      vertex 28.7 4.5 1.5
      vertex 30.4444 2.60776 1.5
    endloop
  endfacet
  facet normal -0 0 1
    outer loop
      vertex 27.8708 61.3587 1.5
      vertex 30 59.4 1.5
      vertex 28.7 62.5 1.5
    endloop
  endfacet
  facet normal 0 0 1
    outer loop
      vertex 26.5292 61.7947 1.5
      vertex 30 59.4 1.5
      vertex 27.8708 61.3587 1.5
    endloop
  endfacet
  facet normal 0 0 1
    outer loop
      vertex 28.954 65.6837 1.5
      vertex 27.8708 63.6413 1.5
      vertex 28.7 62.5 1.5
    endloop
  endfacet
  facet normal 0 0 1
    outer loop
      vertex 27.5 65.8928 1.5
      vertex 27.8708 63.6413 1.5
      vertex 28.954 65.6837 1.5
    endloop
  endfacet
  facet normal 0 0 1
    outer loop
      vertex 27.8708 63.6413 1.5
      vertex 27.5 65.8928 1.5
      vertex 26.5292 63.2053 1.5
    endloop
  endfacet
  facet normal -0 0 1
    outer loop
      vertex 24.825 66 1.5
      vertex 27.5 65.8928 1.5
      vertex 27.5 66 1.5
    endloop
  endfacet
  facet normal 0 0 1
    outer loop
      vertex 24.825 65 1.5
      vertex 26.5292 61.7947 1.5
      vertex 26.5292 63.2053 1.5
    endloop
  endfacet
  facet normal 0 0 1
    outer loop
      vertex 30 38 1.5
      vertex 5.7 4.5 1.5
      vertex 30 20.4 1.5
    endloop
  endfacet
  facet normal 0 0 1
    outer loop
      vertex 27.5 65.8928 1.5
      vertex 24.825 65 1.5
      vertex 26.5292 63.2053 1.5
    endloop
  endfacet
  facet normal 0 0 1
    outer loop
      vertex 27.5 65.8928 1.5
      vertex 24.825 66 1.5
      vertex 24.825 65 1.5
    endloop
  endfacet
  facet normal 0 0 1
    outer loop
      vertex 30 20.4 1.5
      vertex 27.8708 5.64127 1.5
      vertex 30 6.4 1.5
    endloop
  endfacet
  facet normal 0 0 1
    outer loop
      vertex 30 6.4 1.5
      vertex 27.8708 5.64127 1.5
      vertex 28.7 4.5 1.5
    endloop
  endfacet
  facet normal 0 0 1
    outer loop
      vertex 30 50.6 1.5
      vertex 4.87082 61.3587 1.5
      vertex 30 46.8 1.5
    endloop
  endfacet
  facet normal 0 0 1
    outer loop
      vertex 30 20.4 1.5
      vertex 26.5292 5.20534 1.5
      vertex 27.8708 5.64127 1.5
    endloop
  endfacet
  facet normal -0 0 1
    outer loop
      vertex 27.8708 3.35873 1.5
      vertex 30.4444 2.60776 1.5
      vertex 28.7 4.5 1.5
    endloop
  endfacet
  facet normal 0 0 1
    outer loop
      vertex 30.4444 2.60776 1.5
      vertex 27.8708 3.35873 1.5
      vertex 28.954 1.31629 1.5
    endloop
  endfacet
  facet normal 0 0 1
    outer loop
      vertex 27.8708 3.35873 1.5
      vertex 27.5 1.10724 1.5
      vertex 28.954 1.31629 1.5
    endloop
  endfacet
  facet normal 0 0 1
    outer loop
      vertex 26.5292 3.79466 1.5
      vertex 27.5 1.10724 1.5
      vertex 27.8708 3.35873 1.5
    endloop
  endfacet
  facet normal 0 0 1
    outer loop
      vertex 26.5292 3.79466 1.5
      vertex 27.5 1 1.5
      vertex 27.5 1.10724 1.5
    endloop
  endfacet
  facet normal 0 0 1
    outer loop
      vertex 26.5292 61.7947 1.5
      vertex 24.825 65 1.5
      vertex 10.975 65 1.5
    endloop
  endfacet
  facet normal 0 0 1
    outer loop
      vertex 10.975 65 1.5
      vertex 4.87082 61.3587 1.5
      vertex 30 50.6 1.5
    endloop
  endfacet
  facet normal 0 0 1
    outer loop
      vertex 30 20.4 1.5
      vertex 5.7 4.5 1.5
      vertex 26.5292 5.20534 1.5
    endloop
  endfacet
  facet normal 0 0 1
    outer loop
      vertex 26.5292 5.20534 1.5
      vertex 5.7 4.5 1.5
      vertex 26.5292 3.79466 1.5
    endloop
  endfacet
  facet normal 0 0 1
    outer loop
      vertex 4.5 1 1.5
      vertex 26.5292 3.79466 1.5
      vertex 5.7 4.5 1.5
    endloop
  endfacet
  facet normal 0 0 1
    outer loop
      vertex 4.5 1.10724 1.5
      vertex 5.7 4.5 1.5
      vertex 4.87082 3.35873 1.5
    endloop
  endfacet
  facet normal 0 0 1
    outer loop
      vertex 5.7 4.5 1.5
      vertex 4.5 1.10724 1.5
      vertex 4.5 1 1.5
    endloop
  endfacet
  facet normal 0 0 1
    outer loop
      vertex 26.5292 3.79466 1.5
      vertex 4.5 1 1.5
      vertex 27.5 1 1.5
    endloop
  endfacet
  facet normal -0.142315 0.989821 0
    outer loop
      vertex 4.5 1.10724 1.5
      vertex 4.0019 1.03562 4
      vertex 4.5 1.10724 4
    endloop
  endfacet
  facet normal -0.142315 0.989821 0
    outer loop
      vertex 4.0019 1.03562 4
      vertex 4.5 1.10724 1.5
      vertex 4.0019 1.03562 1.5
    endloop
  endfacet
  facet normal 0.415415 0.909632 -0
    outer loop
      vertex 4.0019 1.03562 1.5
      vertex 2.20799 1.85488 4
      vertex 4.0019 1.03562 4
    endloop
  endfacet
  facet normal 0.415415 0.909632 0
    outer loop
      vertex 2.20799 1.85488 4
      vertex 4.0019 1.03562 1.5
      vertex 2.20799 1.85488 1.5
    endloop
  endfacet
  facet normal 0.841254 0.540641 0
    outer loop
      vertex 2.20799 1.85488 4
      vertex 1.14177 3.51394 1.5
      vertex 1.14177 3.51394 4
    endloop
  endfacet
  facet normal 0.841254 0.540641 0
    outer loop
      vertex 1.14177 3.51394 1.5
      vertex 2.20799 1.85488 4
      vertex 2.20799 1.85488 1.5
    endloop
  endfacet
  facet normal -0.142315 0.989821 0
    outer loop
      vertex 28.954 1.31629 1.5
      vertex 27.5 1.10724 4
      vertex 28.954 1.31629 4
    endloop
  endfacet
  facet normal -0.142315 0.989821 0
    outer loop
      vertex 27.5 1.10724 4
      vertex 28.954 1.31629 1.5
      vertex 27.5 1.10724 1.5
    endloop
  endfacet
  facet normal -0.654861 0.755749 0
    outer loop
      vertex 30.4444 2.60776 1.5
      vertex 28.954 1.31629 4
      vertex 30.4444 2.60776 4
    endloop
  endfacet
  facet normal -0.654861 0.755749 0
    outer loop
      vertex 28.954 1.31629 4
      vertex 30.4444 2.60776 1.5
      vertex 28.954 1.31629 1.5
    endloop
  endfacet
  facet normal -0.959493 0.281733 0
    outer loop
      vertex 30.4444 2.60776 1.5
      vertex 31 4.5 4
      vertex 31 4.5 1.5
    endloop
  endfacet
  facet normal -0.959493 0.281733 0
    outer loop
      vertex 31 4.5 4
      vertex 30.4444 2.60776 1.5
      vertex 30.4444 2.60776 4
    endloop
  endfacet
  facet normal 1 -0 0
    outer loop
      vertex 1.14177 62.5 4
      vertex 1.14177 63.4861 1.5
      vertex 1.14177 63.4861 4
    endloop
  endfacet
  facet normal 1 0 0
    outer loop
      vertex 1.14177 63.4861 1.5
      vertex 1.14177 62.5 4
      vertex 1.14177 62.5 1.5
    endloop
  endfacet
  facet normal 0.415412 -0.909633 0
    outer loop
      vertex 2.20799 65.1451 1.5
      vertex 4.0019 65.9644 4
      vertex 2.20799 65.1451 4
    endloop
  endfacet
  facet normal 0.415412 -0.909633 0
    outer loop
      vertex 4.0019 65.9644 4
      vertex 2.20799 65.1451 1.5
      vertex 4.0019 65.9644 1.5
    endloop
  endfacet
  facet normal 0.841254 -0.540639 0
    outer loop
      vertex 1.14177 63.4861 4
      vertex 2.20799 65.1451 1.5
      vertex 2.20799 65.1451 4
    endloop
  endfacet
  facet normal 0.841254 -0.540639 0
    outer loop
      vertex 2.20799 65.1451 1.5
      vertex 1.14177 63.4861 4
      vertex 1.14177 63.4861 1.5
    endloop
  endfacet
  facet normal -0.142302 -0.989823 0
    outer loop
      vertex 4.0019 65.9644 1.5
      vertex 4.5 65.8928 4
      vertex 4.0019 65.9644 4
    endloop
  endfacet
  facet normal -0.142302 -0.989823 -0
    outer loop
      vertex 4.5 65.8928 4
      vertex 4.0019 65.9644 1.5
      vertex 4.5 65.8928 1.5
    endloop
  endfacet
  facet normal -0.959493 -0.281733 0
    outer loop
      vertex 31 62.5 1.5
      vertex 30.4444 64.3922 4
      vertex 30.4444 64.3922 1.5
    endloop
  endfacet
  facet normal -0.959493 -0.281733 0
    outer loop
      vertex 30.4444 64.3922 4
      vertex 31 62.5 1.5
      vertex 31 62.5 4
    endloop
  endfacet
  facet normal -0.142319 -0.989821 0
    outer loop
      vertex 27.5 65.8928 1.5
      vertex 28.954 65.6837 4
      vertex 27.5 65.8928 4
    endloop
  endfacet
  facet normal -0.142319 -0.989821 -0
    outer loop
      vertex 28.954 65.6837 4
      vertex 27.5 65.8928 1.5
      vertex 28.954 65.6837 1.5
    endloop
  endfacet
  facet normal -0.65486 -0.75575 0
    outer loop
      vertex 28.954 65.6837 1.5
      vertex 30.4444 64.3922 4
      vertex 28.954 65.6837 4
    endloop
  endfacet
  facet normal -0.65486 -0.75575 -0
    outer loop
      vertex 30.4444 64.3922 4
      vertex 28.954 65.6837 1.5
      vertex 30.4444 64.3922 1.5
    endloop
  endfacet
  facet normal 1 -0 0
    outer loop
      vertex 4.5 1 4
      vertex 4.5 1.10724 1.5
      vertex 4.5 1.10724 4
    endloop
  endfacet
  facet normal 1 0 0
    outer loop
      vertex 4.5 1.10724 1.5
      vertex 4.5 1 4
      vertex 4.5 1 1.5
    endloop
  endfacet
  facet normal 1 -0 0
    outer loop
      vertex 4.5 65.8928 4
      vertex 4.5 66 1.5
      vertex 4.5 66 4
    endloop
  endfacet
  facet normal 1 0 0
    outer loop
      vertex 4.5 66 1.5
      vertex 4.5 65.8928 4
      vertex 4.5 65.8928 1.5
    endloop
  endfacet
  facet normal -1 0 0
    outer loop
      vertex 27.5 1 1.5
      vertex 27.5 1.10724 4
      vertex 27.5 1.10724 1.5
    endloop
  endfacet
  facet normal -1 -0 0
    outer loop
      vertex 27.5 1.10724 4
      vertex 27.5 1 1.5
      vertex 27.5 1 4
    endloop
  endfacet
  facet normal -1 0 0
    outer loop
      vertex 27.5 65.8928 1.5
      vertex 27.5 66 4
      vertex 27.5 66 1.5
    endloop
  endfacet
  facet normal -1 -0 0
    outer loop
      vertex 27.5 66 4
      vertex 27.5 65.8928 1.5
      vertex 27.5 65.8928 4
    endloop
  endfacet
  facet normal 0 -1 0
    outer loop
      vertex 4.5 66 1.5
      vertex 10.975 66 4
      vertex 4.5 66 4
    endloop
  endfacet
  facet normal 0 -1 -0
    outer loop
      vertex 10.975 66 4
      vertex 4.5 66 1.5
      vertex 10.975 66 1.5
    endloop
  endfacet
  facet normal 0 -1 0
    outer loop
      vertex 24.825 66 1.5
      vertex 27.5 66 4
      vertex 24.825 66 4
    endloop
  endfacet
  facet normal 0 -1 -0
    outer loop
      vertex 27.5 66 4
      vertex 24.825 66 1.5
      vertex 27.5 66 1.5
    endloop
  endfacet
  facet normal 0 1 -0
    outer loop
      vertex 27.5 1 1.5
      vertex 4.5 1 4
      vertex 27.5 1 4
    endloop
  endfacet
  facet normal 0 1 0
    outer loop
      vertex 4.5 1 4
      vertex 27.5 1 1.5
      vertex 4.5 1 1.5
    endloop
  endfacet
  facet normal 1 -0 0
    outer loop
      vertex 1 4.5 4
      vertex 1 62.5 1.5
      vertex 1 62.5 4
    endloop
  endfacet
  facet normal 1 0 0
    outer loop
      vertex 1 62.5 1.5
      vertex 1 4.5 4
      vertex 1 4.5 1.5
    endloop
  endfacet
  facet normal -1 0 0
    outer loop
      vertex 31 4.5 1.5
      vertex 31 6.4 4
      vertex 31 6.4 1.5
    endloop
  endfacet
  facet normal -1 -0 0
    outer loop
      vertex 31 6.4 4
      vertex 31 4.5 1.5
      vertex 31 4.5 4
    endloop
  endfacet
  facet normal -1 0 0
    outer loop
      vertex 31 59.4 1.5
      vertex 31 62.5 4
      vertex 31 62.5 1.5
    endloop
  endfacet
  facet normal -1 -0 0
    outer loop
      vertex 31 62.5 4
      vertex 31 59.4 1.5
      vertex 31 59.4 4
    endloop
  endfacet
  facet normal -1 0 0
    outer loop
      vertex 31 20.4 1.5
      vertex 31 38 4
      vertex 31 38 1.5
    endloop
  endfacet
  facet normal -1 -0 0
    outer loop
      vertex 31 38 4
      vertex 31 20.4 1.5
      vertex 31 20.4 4
    endloop
  endfacet
  facet normal -1 0 0
    outer loop
      vertex 31 46.8 1.5
      vertex 31 50.6 4
      vertex 31 50.6 1.5
    endloop
  endfacet
  facet normal -1 -0 0
    outer loop
      vertex 31 50.6 4
      vertex 31 46.8 1.5
      vertex 31 46.8 4
    endloop
  endfacet
  facet normal 0 1 -0
    outer loop
      vertex 1.14177 4.5 1.5
      vertex 1 4.5 4
      vertex 1.14177 4.5 4
    endloop
  endfacet
  facet normal 0 1 0
    outer loop
      vertex 1 4.5 4
      vertex 1.14177 4.5 1.5
      vertex 1 4.5 1.5
    endloop
  endfacet
  facet normal 0 -1 0
    outer loop
      vertex 1 62.5 1.5
      vertex 1.14177 62.5 4
      vertex 1 62.5 4
    endloop
  endfacet
  facet normal 0 -1 -0
    outer loop
      vertex 1.14177 62.5 4
      vertex 1 62.5 1.5
      vertex 1.14177 62.5 1.5
    endloop
  endfacet
  facet normal -1 0 0
    outer loop
      vertex 0 0 0
      vertex 0 67 4
      vertex 0 67 0
    endloop
  endfacet
  facet normal -1 -0 0
    outer loop
      vertex 0 67 4
      vertex 0 0 0
      vertex 0 0 4
    endloop
  endfacet
  facet normal 0 0 1
    outer loop
      vertex 10.975 67 4
      vertex 4.5 66 4
      vertex 10.975 66 4
    endloop
  endfacet
  facet normal 0 0 1
    outer loop
      vertex 4.5 66 4
      vertex 4.0019 65.9644 4
      vertex 4.5 65.8928 4
    endloop
  endfacet
  facet normal -0 0 1
    outer loop
      vertex 0 67 4
      vertex 4.5 66 4
      vertex 10.975 67 4
    endloop
  endfacet
  facet normal 0 0 1
    outer loop
      vertex 1.14177 63.4861 4
      vertex 1 62.5 4
      vertex 1.14177 62.5 4
    endloop
  endfacet
  facet normal 0 0 1
    outer loop
      vertex 1 62.5 4
      vertex 0 67 4
      vertex 1 4.5 4
    endloop
  endfacet
  facet normal 0 0 1
    outer loop
      vertex 1.14177 63.4861 4
      vertex 0 67 4
      vertex 1 62.5 4
    endloop
  endfacet
  facet normal 0 0 1
    outer loop
      vertex 2.20799 65.1451 4
      vertex 0 67 4
      vertex 1.14177 63.4861 4
    endloop
  endfacet
  facet normal 0 0 1
    outer loop
      vertex 4.0019 65.9644 4
      vertex 0 67 4
      vertex 2.20799 65.1451 4
    endloop
  endfacet
  facet normal 0 0 1
    outer loop
      vertex 4.5 66 4
      vertex 0 67 4
      vertex 4.0019 65.9644 4
    endloop
  endfacet
  facet normal 0 0 1
    outer loop
      vertex 1.14177 4.5 4
      vertex 1 4.5 4
      vertex 1.14177 3.51394 4
    endloop
  endfacet
  facet normal 0 0 1
    outer loop
      vertex 4.5 1.10724 4
      vertex 4.0019 1.03562 4
      vertex 4.5 1 4
    endloop
  endfacet
  facet normal 0 0 1
    outer loop
      vertex 31 4.5 4
      vertex 32 6.4 4
      vertex 31 6.4 4
    endloop
  endfacet
  facet normal 0 0 1
    outer loop
      vertex 32 6.4 4
      vertex 31 4.5 4
      vertex 32 0 4
    endloop
  endfacet
  facet normal -0 0 1
    outer loop
      vertex 30.4444 2.60776 4
      vertex 32 0 4
      vertex 31 4.5 4
    endloop
  endfacet
  facet normal -0 0 1
    outer loop
      vertex 28.954 1.31629 4
      vertex 32 0 4
      vertex 30.4444 2.60776 4
    endloop
  endfacet
  facet normal 0 0 1
    outer loop
      vertex 27.5 1 4
      vertex 28.954 1.31629 4
      vertex 27.5 1.10724 4
    endloop
  endfacet
  facet normal 0 0 1
    outer loop
      vertex 28.954 1.31629 4
      vertex 27.5 1 4
      vertex 32 0 4
    endloop
  endfacet
  facet normal -0 0 1
    outer loop
      vertex 4.5 1 4
      vertex 32 0 4
      vertex 27.5 1 4
    endloop
  endfacet
  facet normal 0 0 1
    outer loop
      vertex 4.5 1 4
      vertex 0 0 4
      vertex 32 0 4
    endloop
  endfacet
  facet normal 0 0 1
    outer loop
      vertex 4.0019 1.03562 4
      vertex 0 0 4
      vertex 4.5 1 4
    endloop
  endfacet
  facet normal 0 0 1
    outer loop
      vertex 2.20799 1.85488 4
      vertex 0 0 4
      vertex 4.0019 1.03562 4
    endloop
  endfacet
  facet normal 0 0 1
    outer loop
      vertex 1.14177 3.51394 4
      vertex 0 0 4
      vertex 2.20799 1.85488 4
    endloop
  endfacet
  facet normal 0 0 1
    outer loop
      vertex 1 4.5 4
      vertex 0 0 4
      vertex 1.14177 3.51394 4
    endloop
  endfacet
  facet normal 0 0 1
    outer loop
      vertex 0 0 4
      vertex 1 4.5 4
      vertex 0 67 4
    endloop
  endfacet
  facet normal 0 0 1
    outer loop
      vertex 32 67 4
      vertex 31 62.5 4
      vertex 32 59.4 4
    endloop
  endfacet
  facet normal 0 0 1
    outer loop
      vertex 32 67 4
      vertex 30.4444 64.3922 4
      vertex 31 62.5 4
    endloop
  endfacet
  facet normal 0 0 1
    outer loop
      vertex 32 67 4
      vertex 28.954 65.6837 4
      vertex 30.4444 64.3922 4
    endloop
  endfacet
  facet normal 0 0 1
    outer loop
      vertex 32 67 4
      vertex 27.5 66 4
      vertex 28.954 65.6837 4
    endloop
  endfacet
  facet normal -0 0 1
    outer loop
      vertex 24.825 67 4
      vertex 27.5 66 4
      vertex 32 67 4
    endloop
  endfacet
  facet normal 0 0 1
    outer loop
      vertex 27.5 66 4
      vertex 24.825 67 4
      vertex 24.825 66 4
    endloop
  endfacet
  facet normal 0 0 1
    outer loop
      vertex 32 59.4 4
      vertex 31 62.5 4
      vertex 31 59.4 4
    endloop
  endfacet
  facet normal 0 0 1
    outer loop
      vertex 28.954 65.6837 4
      vertex 27.5 66 4
      vertex 27.5 65.8928 4
    endloop
  endfacet
  facet normal -0 0 1
    outer loop
      vertex 31 38 4
      vertex 32 20.4 4
      vertex 32 38 4
    endloop
  endfacet
  facet normal 0 0 1
    outer loop
      vertex 32 20.4 4
      vertex 31 38 4
      vertex 31 20.4 4
    endloop
  endfacet
  facet normal -0 0 1
    outer loop
      vertex 31 50.6 4
      vertex 32 46.8 4
      vertex 32 50.6 4
    endloop
  endfacet
  facet normal 0 0 1
    outer loop
      vertex 32 46.8 4
      vertex 31 50.6 4
      vertex 31 46.8 4
    endloop
  endfacet
  facet normal 1 0 0
    outer loop
      vertex 32 6.4 4
      vertex 32 0 4
      vertex 32 6.4 1
    endloop
  endfacet
  facet normal 1 0 0
    outer loop
      vertex 32 38 4
      vertex 32 20.4 4
      vertex 32 38 1
    endloop
  endfacet
  facet normal 1 0 0
    outer loop
      vertex 32 50.6 4
      vertex 32 46.8 4
      vertex 32 50.6 1
    endloop
  endfacet
  facet normal 1 0 0
    outer loop
      vertex 32 59.4 1
      vertex 32 67 4
      vertex 32 59.4 4
    endloop
  endfacet
  facet normal 1 0 0
    outer loop
      vertex 32 67 4
      vertex 32 59.4 1
      vertex 32 67 0
    endloop
  endfacet
  facet normal 1 -0 0
    outer loop
      vertex 32 50.6 1
      vertex 32 67 0
      vertex 32 59.4 1
    endloop
  endfacet
  facet normal 1 0 0
    outer loop
      vertex 32 46.8 1
      vertex 32 50.6 1
      vertex 32 46.8 4
    endloop
  endfacet
  facet normal 1 -0 0
    outer loop
      vertex 32 46.8 1
      vertex 32 67 0
      vertex 32 50.6 1
    endloop
  endfacet
  facet normal 1 -0 0
    outer loop
      vertex 32 38 1
      vertex 32 67 0
      vertex 32 46.8 1
    endloop
  endfacet
  facet normal 1 0 0
    outer loop
      vertex 32 20.4 1
      vertex 32 38 1
      vertex 32 20.4 4
    endloop
  endfacet
  facet normal 1 0 0
    outer loop
      vertex 32 0 0
      vertex 32 38 1
      vertex 32 20.4 1
    endloop
  endfacet
  facet normal 1 0 0
    outer loop
      vertex 32 0 0
      vertex 32 20.4 1
      vertex 32 6.4 1
    endloop
  endfacet
  facet normal 1 0 0
    outer loop
      vertex 32 38 1
      vertex 32 0 0
      vertex 32 67 0
    endloop
  endfacet
  facet normal 1 0 0
    outer loop
      vertex 32 0 0
      vertex 32 6.4 1
      vertex 32 0 4
    endloop
  endfacet
  facet normal 0 1 0
    outer loop
      vertex 32 67 4
      vertex 24.825 67 1
      vertex 24.825 67 4
    endloop
  endfacet
  facet normal 0 1 0
    outer loop
      vertex 24.825 67 1
      vertex 32 67 0
      vertex 10.975 67 1
    endloop
  endfacet
  facet normal 0 1 -0
    outer loop
      vertex 32 67 0
      vertex 24.825 67 1
      vertex 32 67 4
    endloop
  endfacet
  facet normal 0 1 -0
    outer loop
      vertex 10.975 67 1
      vertex 0 67 4
      vertex 10.975 67 4
    endloop
  endfacet
  facet normal 0 1 0
    outer loop
      vertex 10.975 67 1
      vertex 0 67 0
      vertex 0 67 4
    endloop
  endfacet
  facet normal 0 1 0
    outer loop
      vertex 0 67 0
      vertex 10.975 67 1
      vertex 32 67 0
    endloop
  endfacet
  facet normal 0 0 -1
    outer loop
      vertex 0 0 0
      vertex 32 67 0
      vertex 32 0 0
    endloop
  endfacet
  facet normal -0 0 -1
    outer loop
      vertex 32 67 0
      vertex 0 0 0
      vertex 0 67 0
    endloop
  endfacet
  facet normal 0 -1 0
    outer loop
      vertex 0 0 0
      vertex 32 0 4
      vertex 0 0 4
    endloop
  endfacet
  facet normal 0 -1 -0
    outer loop
      vertex 32 0 4
      vertex 0 0 0
      vertex 32 0 0
    endloop
  endfacet
  facet normal 0.806997 0.586318 -0.0706124
    outer loop
      vertex 5.7 4.5 1.5
      vertex 4.87082 5.64127 1.5
      vertex 5.875 4.5 3.5
    endloop
  endfacet
  facet normal -0.997504 0 -0.0706126
    outer loop
      vertex 3.52918 3.79466 1.5
      vertex 3.3876 5.3082 3.5
      vertex 3.52918 5.20534 1.5
    endloop
  endfacet
  facet normal -0.997504 -0 -0.0706126
    outer loop
      vertex 3.3876 5.3082 3.5
      vertex 3.52918 3.79466 1.5
      vertex 3.3876 3.69179 3.5
    endloop
  endfacet
  facet normal 0 0 1
    outer loop
      vertex 4.9249 5.8077 3.5
      vertex 4.9249 3.1923 3.5
      vertex 5.875 4.5 3.5
    endloop
  endfacet
  facet normal -0 0 1
    outer loop
      vertex 3.3876 5.3082 3.5
      vertex 4.9249 3.1923 3.5
      vertex 4.9249 5.8077 3.5
    endloop
  endfacet
  facet normal 0 0 1
    outer loop
      vertex 4.9249 3.1923 3.5
      vertex 3.3876 5.3082 3.5
      vertex 3.3876 3.69179 3.5
    endloop
  endfacet
  facet normal -0.308245 0.948683 -0.070612
    outer loop
      vertex 4.87082 5.64127 1.5
      vertex 3.3876 5.3082 3.5
      vertex 4.9249 5.8077 3.5
    endloop
  endfacet
  facet normal 0.806998 -0.586318 -0.0706122
    outer loop
      vertex 4.9249 3.1923 3.5
      vertex 4.87082 3.35873 1.5
      vertex 5.875 4.5 3.5
    endloop
  endfacet
  facet normal -0.308245 -0.948683 -0.070612
    outer loop
      vertex 4.9249 3.1923 3.5
      vertex 3.3876 3.69179 3.5
      vertex 4.87082 3.35873 1.5
    endloop
  endfacet
  facet normal -0.308246 0.948683 -0.0706124
    outer loop
      vertex 3.52918 5.20534 1.5
      vertex 3.3876 5.3082 3.5
      vertex 4.87082 5.64127 1.5
    endloop
  endfacet
  facet normal 0.806997 0.586318 -0.0706122
    outer loop
      vertex 5.875 4.5 3.5
      vertex 4.87082 5.64127 1.5
      vertex 4.9249 5.8077 3.5
    endloop
  endfacet
  facet normal 0.806998 -0.586318 -0.0706124
    outer loop
      vertex 5.875 4.5 3.5
      vertex 4.87082 3.35873 1.5
      vertex 5.7 4.5 1.5
    endloop
  endfacet
  facet normal -0.308246 -0.948683 -0.0706124
    outer loop
      vertex 4.87082 3.35873 1.5
      vertex 3.3876 3.69179 3.5
      vertex 3.52918 3.79466 1.5
    endloop
  endfacet
  facet normal 0.806997 0.586319 -0.0706119
    outer loop
      vertex 28.7 4.5 1.5
      vertex 27.8708 5.64127 1.5
      vertex 28.875 4.5 3.5
    endloop
  endfacet
  facet normal -0.997504 0 -0.0706126
    outer loop
      vertex 26.5292 3.79466 1.5
      vertex 26.3876 5.3082 3.5
      vertex 26.5292 5.20534 1.5
    endloop
  endfacet
  facet normal -0.997504 -0 -0.0706126
    outer loop
      vertex 26.3876 5.3082 3.5
      vertex 26.5292 3.79466 1.5
      vertex 26.3876 3.69179 3.5
    endloop
  endfacet
  facet normal 0 0 1
    outer loop
      vertex 27.9249 5.8077 3.5
      vertex 27.9249 3.1923 3.5
      vertex 28.875 4.5 3.5
    endloop
  endfacet
  facet normal -0 0 1
    outer loop
      vertex 26.3876 5.3082 3.5
      vertex 27.9249 3.1923 3.5
      vertex 27.9249 5.8077 3.5
    endloop
  endfacet
  facet normal 0 0 1
    outer loop
      vertex 27.9249 3.1923 3.5
      vertex 26.3876 5.3082 3.5
      vertex 26.3876 3.69179 3.5
    endloop
  endfacet
  facet normal -0.308245 0.948683 -0.0706119
    outer loop
      vertex 27.8708 5.64127 1.5
      vertex 26.3876 5.3082 3.5
      vertex 27.9249 5.8077 3.5
    endloop
  endfacet
  facet normal 0.806998 -0.586318 -0.0706125
    outer loop
      vertex 27.9249 3.1923 3.5
      vertex 27.8708 3.35873 1.5
      vertex 28.875 4.5 3.5
    endloop
  endfacet
  facet normal -0.308245 -0.948683 -0.0706119
    outer loop
      vertex 27.9249 3.1923 3.5
      vertex 26.3876 3.69179 3.5
      vertex 27.8708 3.35873 1.5
    endloop
  endfacet
  facet normal -0.308246 0.948683 -0.0706124
    outer loop
      vertex 26.5292 5.20534 1.5
      vertex 26.3876 5.3082 3.5
      vertex 27.8708 5.64127 1.5
    endloop
  endfacet
  facet normal 0.806997 0.586318 -0.0706126
    outer loop
      vertex 28.875 4.5 3.5
      vertex 27.8708 5.64127 1.5
      vertex 27.9249 5.8077 3.5
    endloop
  endfacet
  facet normal 0.806997 -0.586319 -0.0706119
    outer loop
      vertex 28.875 4.5 3.5
      vertex 27.8708 3.35873 1.5
      vertex 28.7 4.5 1.5
    endloop
  endfacet
  facet normal -0.308246 -0.948683 -0.0706124
    outer loop
      vertex 27.8708 3.35873 1.5
      vertex 26.3876 3.69179 3.5
      vertex 26.5292 3.79466 1.5
    endloop
  endfacet
  facet normal 0.806996 0.58632 -0.0706119
    outer loop
      vertex 28.7 62.5 1.5
      vertex 27.8708 63.6413 1.5
      vertex 28.875 62.5 3.5
    endloop
  endfacet
  facet normal -0.997504 0 -0.0706126
    outer loop
      vertex 26.5292 61.7947 1.5
      vertex 26.3876 63.3082 3.5
      vertex 26.5292 63.2053 1.5
    endloop
  endfacet
  facet normal -0.997504 -0 -0.0706126
    outer loop
      vertex 26.3876 63.3082 3.5
      vertex 26.5292 61.7947 1.5
      vertex 26.3876 61.6918 3.5
    endloop
  endfacet
  facet normal 0 0 1
    outer loop
      vertex 27.9249 63.8077 3.5
      vertex 27.9249 61.1923 3.5
      vertex 28.875 62.5 3.5
    endloop
  endfacet
  facet normal -0 0 1
    outer loop
      vertex 26.3876 63.3082 3.5
      vertex 27.9249 61.1923 3.5
      vertex 27.9249 63.8077 3.5
    endloop
  endfacet
  facet normal 0 0 1
    outer loop
      vertex 27.9249 61.1923 3.5
      vertex 26.3876 63.3082 3.5
      vertex 26.3876 61.6918 3.5
    endloop
  endfacet
  facet normal -0.308245 0.948683 -0.0706123
    outer loop
      vertex 27.8708 63.6413 1.5
      vertex 26.3876 63.3082 3.5
      vertex 27.9249 63.8077 3.5
    endloop
  endfacet
  facet normal 0.806997 -0.586319 -0.0706117
    outer loop
      vertex 27.9249 61.1923 3.5
      vertex 27.8708 61.3587 1.5
      vertex 28.875 62.5 3.5
    endloop
  endfacet
  facet normal -0.308245 -0.948683 -0.0706105
    outer loop
      vertex 27.9249 61.1923 3.5
      vertex 26.3876 61.6918 3.5
      vertex 27.8708 61.3587 1.5
    endloop
  endfacet
  facet normal -0.308245 0.948683 -0.0706128
    outer loop
      vertex 26.5292 63.2053 1.5
      vertex 26.3876 63.3082 3.5
      vertex 27.8708 63.6413 1.5
    endloop
  endfacet
  facet normal 0.806997 0.586319 -0.0706129
    outer loop
      vertex 28.875 62.5 3.5
      vertex 27.8708 63.6413 1.5
      vertex 27.9249 63.8077 3.5
    endloop
  endfacet
  facet normal 0.806997 -0.586318 -0.070612
    outer loop
      vertex 28.875 62.5 3.5
      vertex 27.8708 61.3587 1.5
      vertex 28.7 62.5 1.5
    endloop
  endfacet
  facet normal -0.308245 -0.948683 -0.070611
    outer loop
      vertex 27.8708 61.3587 1.5
      vertex 26.3876 61.6918 3.5
      vertex 26.5292 61.7947 1.5
    endloop
  endfacet
  facet normal 0.806997 0.586319 -0.0706123
    outer loop
      vertex 5.7 62.5 1.5
      vertex 4.87082 63.6413 1.5
      vertex 5.875 62.5 3.5
    endloop
  endfacet
  facet normal -0.997504 0 -0.0706126
    outer loop
      vertex 3.52918 61.7947 1.5
      vertex 3.3876 63.3082 3.5
      vertex 3.52918 63.2053 1.5
    endloop
  endfacet
  facet normal -0.997504 -0 -0.0706126
    outer loop
      vertex 3.3876 63.3082 3.5
      vertex 3.52918 61.7947 1.5
      vertex 3.3876 61.6918 3.5
    endloop
  endfacet
  facet normal 0 0 1
    outer loop
      vertex 4.9249 63.8077 3.5
      vertex 4.9249 61.1923 3.5
      vertex 5.875 62.5 3.5
    endloop
  endfacet
  facet normal -0 0 1
    outer loop
      vertex 3.3876 63.3082 3.5
      vertex 4.9249 61.1923 3.5
      vertex 4.9249 63.8077 3.5
    endloop
  endfacet
  facet normal 0 0 1
    outer loop
      vertex 4.9249 61.1923 3.5
      vertex 3.3876 63.3082 3.5
      vertex 3.3876 61.6918 3.5
    endloop
  endfacet
  facet normal -0.308245 0.948683 -0.0706125
    outer loop
      vertex 4.87082 63.6413 1.5
      vertex 3.3876 63.3082 3.5
      vertex 4.9249 63.8077 3.5
    endloop
  endfacet
  facet normal 0.806997 -0.586319 -0.0706114
    outer loop
      vertex 4.9249 61.1923 3.5
      vertex 4.87082 61.3587 1.5
      vertex 5.875 62.5 3.5
    endloop
  endfacet
  facet normal -0.308245 -0.948683 -0.0706107
    outer loop
      vertex 4.9249 61.1923 3.5
      vertex 3.3876 61.6918 3.5
      vertex 4.87082 61.3587 1.5
    endloop
  endfacet
  facet normal -0.308245 0.948683 -0.0706128
    outer loop
      vertex 3.52918 63.2053 1.5
      vertex 3.3876 63.3082 3.5
      vertex 4.87082 63.6413 1.5
    endloop
  endfacet
  facet normal 0.806997 0.586319 -0.0706125
    outer loop
      vertex 5.875 62.5 3.5
      vertex 4.87082 63.6413 1.5
      vertex 4.9249 63.8077 3.5
    endloop
  endfacet
  facet normal 0.806998 -0.586317 -0.0706124
    outer loop
      vertex 5.875 62.5 3.5
      vertex 4.87082 61.3587 1.5
      vertex 5.7 62.5 1.5
    endloop
  endfacet
  facet normal -0.308245 -0.948683 -0.070611
    outer loop
      vertex 4.87082 61.3587 1.5
      vertex 3.3876 61.6918 3.5
      vertex 3.52918 61.7947 1.5
    endloop
  endfacet
  facet normal 1 -0 0
    outer loop
      vertex 30 50.6 1.5
      vertex 30 59.4 1
      vertex 30 59.4 1.5
    endloop
  endfacet
  facet normal 1 0 0
    outer loop
      vertex 30 59.4 1
      vertex 30 50.6 1.5
      vertex 30 50.6 1
    endloop
  endfacet
  facet normal -0 0 1
    outer loop
      vertex 30 59.4 1
      vertex 32 50.6 1
      vertex 32 59.4 1
    endloop
  endfacet
  facet normal 0 0 1
    outer loop
      vertex 32 50.6 1
      vertex 30 59.4 1
      vertex 30 50.6 1
    endloop
  endfacet
  facet normal 0 1 0
    outer loop
      vertex 32 50.6 4
      vertex 31 50.6 1.5
      vertex 31 50.6 4
    endloop
  endfacet
  facet normal 0 1 -0
    outer loop
      vertex 32 50.6 1
      vertex 31 50.6 1.5
      vertex 32 50.6 4
    endloop
  endfacet
  facet normal 0 1 0
    outer loop
      vertex 30 50.6 1
      vertex 31 50.6 1.5
      vertex 32 50.6 1
    endloop
  endfacet
  facet normal 0 1 0
    outer loop
      vertex 31 50.6 1.5
      vertex 30 50.6 1
      vertex 30 50.6 1.5
    endloop
  endfacet
  facet normal 0 -1 0
    outer loop
      vertex 30 59.4 1.5
      vertex 30 59.4 1
      vertex 31 59.4 1.5
    endloop
  endfacet
  facet normal 0 -1 0
    outer loop
      vertex 31 59.4 1.5
      vertex 32 59.4 4
      vertex 31 59.4 4
    endloop
  endfacet
  facet normal 0 -1 0
    outer loop
      vertex 31 59.4 1.5
      vertex 32 59.4 1
      vertex 32 59.4 4
    endloop
  endfacet
  facet normal 0 -1 0
    outer loop
      vertex 32 59.4 1
      vertex 31 59.4 1.5
      vertex 30 59.4 1
    endloop
  endfacet
  facet normal 1 -0 0
    outer loop
      vertex 30 38 1.5
      vertex 30 46.8 1
      vertex 30 46.8 1.5
    endloop
  endfacet
  facet normal 1 0 0
    outer loop
      vertex 30 46.8 1
      vertex 30 38 1.5
      vertex 30 38 1
    endloop
  endfacet
  facet normal -0 0 1
    outer loop
      vertex 30 46.8 1
      vertex 32 38 1
      vertex 32 46.8 1
    endloop
  endfacet
  facet normal 0 0 1
    outer loop
      vertex 32 38 1
      vertex 30 46.8 1
      vertex 30 38 1
    endloop
  endfacet
  facet normal 0 1 0
    outer loop
      vertex 32 38 4
      vertex 31 38 1.5
      vertex 31 38 4
    endloop
  endfacet
  facet normal 0 1 -0
    outer loop
      vertex 32 38 1
      vertex 31 38 1.5
      vertex 32 38 4
    endloop
  endfacet
  facet normal 0 1 0
    outer loop
      vertex 30 38 1
      vertex 31 38 1.5
      vertex 32 38 1
    endloop
  endfacet
  facet normal 0 1 0
    outer loop
      vertex 31 38 1.5
      vertex 30 38 1
      vertex 30 38 1.5
    endloop
  endfacet
  facet normal 0 -1 0
    outer loop
      vertex 30 46.8 1.5
      vertex 30 46.8 1
      vertex 31 46.8 1.5
    endloop
  endfacet
  facet normal 0 -1 0
    outer loop
      vertex 31 46.8 1.5
      vertex 32 46.8 4
      vertex 31 46.8 4
    endloop
  endfacet
  facet normal 0 -1 0
    outer loop
      vertex 31 46.8 1.5
      vertex 32 46.8 1
      vertex 32 46.8 4
    endloop
  endfacet
  facet normal 0 -1 0
    outer loop
      vertex 32 46.8 1
      vertex 31 46.8 1.5
      vertex 30 46.8 1
    endloop
  endfacet
  facet normal 1 -0 0
    outer loop
      vertex 30 6.4 1.5
      vertex 30 20.4 1
      vertex 30 20.4 1.5
    endloop
  endfacet
  facet normal 1 0 0
    outer loop
      vertex 30 20.4 1
      vertex 30 6.4 1.5
      vertex 30 6.4 1
    endloop
  endfacet
  facet normal -0 0 1
    outer loop
      vertex 30 20.4 1
      vertex 32 6.4 1
      vertex 32 20.4 1
    endloop
  endfacet
  facet normal 0 0 1
    outer loop
      vertex 32 6.4 1
      vertex 30 20.4 1
      vertex 30 6.4 1
    endloop
  endfacet
  facet normal 0 1 0
    outer loop
      vertex 32 6.4 4
      vertex 31 6.4 1.5
      vertex 31 6.4 4
    endloop
  endfacet
  facet normal 0 1 -0
    outer loop
      vertex 32 6.4 1
      vertex 31 6.4 1.5
      vertex 32 6.4 4
    endloop
  endfacet
  facet normal 0 1 0
    outer loop
      vertex 30 6.4 1
      vertex 31 6.4 1.5
      vertex 32 6.4 1
    endloop
  endfacet
  facet normal 0 1 0
    outer loop
      vertex 31 6.4 1.5
      vertex 30 6.4 1
      vertex 30 6.4 1.5
    endloop
  endfacet
  facet normal 0 -1 0
    outer loop
      vertex 30 20.4 1.5
      vertex 30 20.4 1
      vertex 31 20.4 1.5
    endloop
  endfacet
  facet normal 0 -1 0
    outer loop
      vertex 31 20.4 1.5
      vertex 32 20.4 4
      vertex 31 20.4 4
    endloop
  endfacet
  facet normal 0 -1 0
    outer loop
      vertex 31 20.4 1.5
      vertex 32 20.4 1
      vertex 32 20.4 4
    endloop
  endfacet
  facet normal 0 -1 0
    outer loop
      vertex 32 20.4 1
      vertex 31 20.4 1.5
      vertex 30 20.4 1
    endloop
  endfacet
  facet normal 1 0 0
    outer loop
      vertex 10.975 66 1.5
      vertex 10.975 67 4
      vertex 10.975 66 4
    endloop
  endfacet
  facet normal 1 0 0
    outer loop
      vertex 10.975 67 4
      vertex 10.975 66 1.5
      vertex 10.975 67 1
    endloop
  endfacet
  facet normal 1 0 0
    outer loop
      vertex 10.975 65 1
      vertex 10.975 66 1.5
      vertex 10.975 65 1.5
    endloop
  endfacet
  facet normal 1 0 0
    outer loop
      vertex 10.975 66 1.5
      vertex 10.975 65 1
      vertex 10.975 67 1
    endloop
  endfacet
  facet normal -1 0 0
    outer loop
      vertex 24.825 67 1
      vertex 24.825 66 1.5
      vertex 24.825 67 4
    endloop
  endfacet
  facet normal -1 0 0
    outer loop
      vertex 24.825 65 1
      vertex 24.825 66 1.5
      vertex 24.825 67 1
    endloop
  endfacet
  facet normal -1 -0 0
    outer loop
      vertex 24.825 66 1.5
      vertex 24.825 65 1
      vertex 24.825 65 1.5
    endloop
  endfacet
  facet normal -1 -0 0
    outer loop
      vertex 24.825 67 4
      vertex 24.825 66 1.5
      vertex 24.825 66 4
    endloop
  endfacet
  facet normal -0 0 1
    outer loop
      vertex 10.975 67 1
      vertex 24.825 65 1
      vertex 24.825 67 1
    endloop
  endfacet
  facet normal 0 0 1
    outer loop
      vertex 24.825 65 1
      vertex 10.975 67 1
      vertex 10.975 65 1
    endloop
  endfacet
  facet normal 0 1 -0
    outer loop
      vertex 24.825 65 1
      vertex 10.975 65 1.5
      vertex 24.825 65 1.5
    endloop
  endfacet
  facet normal 0 1 0
    outer loop
      vertex 10.975 65 1.5
      vertex 24.825 65 1
      vertex 10.975 65 1
    endloop
  endfacet
endsolid OpenSCAD_Model
