solid OpenSCAD_Model
  facet normal 0 0 -1
    outer loop
      vertex 5.9249 62.1923 0
      vertex 27.3876 62.6918 0
      vertex 5.9249 5.8077 0
    endloop
  endfacet
  facet normal -0 0 -1
    outer loop
      vertex 27.3876 62.6918 0
      vertex 5.9249 62.1923 0
      vertex 6.875 63.5 0
    endloop
  endfacet
  facet normal 0 0 -1
    outer loop
      vertex 4.3876 5.3082 0
      vertex 5.9249 62.1923 0
      vertex 5.9249 5.8077 0
    endloop
  endfacet
  facet normal -0 0 -1
    outer loop
      vertex 5.9249 62.1923 0
      vertex 4.3876 5.3082 0
      vertex 4.3876 62.6918 0
    endloop
  endfacet
  facet normal 0 0 -1
    outer loop
      vertex 28.9249 62.1923 0
      vertex 34 0 0
      vertex 28.9249 5.8077 0
    endloop
  endfacet
  facet normal 0 0 -1
    outer loop
      vertex 34 0 0
      vertex 28.9249 62.1923 0
      vertex 29.875 63.5 0
    endloop
  endfacet
  facet normal 0 0 -1
    outer loop
      vertex 27.3876 5.3082 0
      vertex 28.9249 62.1923 0
      vertex 28.9249 5.8077 0
    endloop
  endfacet
  facet normal -0 0 -1
    outer loop
      vertex 28.9249 62.1923 0
      vertex 27.3876 5.3082 0
      vertex 27.3876 62.6918 0
    endloop
  endfacet
  facet normal 0 0 -1
    outer loop
      vertex 28.9249 5.8077 0
      vertex 34 0 0
      vertex 29.875 4.5 0
    endloop
  endfacet
  facet normal 0 0 -1
    outer loop
      vertex 34 0 0
      vertex 28.9249 3.1923 0
      vertex 29.875 4.5 0
    endloop
  endfacet
  facet normal 0 0 -1
    outer loop
      vertex 34 0 0
      vertex 27.3876 3.69179 0
      vertex 28.9249 3.1923 0
    endloop
  endfacet
  facet normal 0 0 -1
    outer loop
      vertex 6.875 4.5 0
      vertex 27.3876 5.3082 0
      vertex 27.3876 3.69179 0
    endloop
  endfacet
  facet normal 0 0 -1
    outer loop
      vertex 5.9249 5.8077 0
      vertex 27.3876 5.3082 0
      vertex 6.875 4.5 0
    endloop
  endfacet
  facet normal 0 0 -1
    outer loop
      vertex 27.3876 5.3082 0
      vertex 5.9249 5.8077 0
      vertex 27.3876 62.6918 0
    endloop
  endfacet
  facet normal 0 0 -1
    outer loop
      vertex 5.9249 3.1923 0
      vertex 27.3876 3.69179 0
      vertex 34 0 0
    endloop
  endfacet
  facet normal -0 0 -1
    outer loop
      vertex 27.3876 3.69179 0
      vertex 5.9249 3.1923 0
      vertex 6.875 4.5 0
    endloop
  endfacet
  facet normal 0 0 -1
    outer loop
      vertex 0 0 0
      vertex 4.3876 5.3082 0
      vertex 4.3876 3.69179 0
    endloop
  endfacet
  facet normal -0 0 -1
    outer loop
      vertex 4.3876 5.3082 0
      vertex 0 0 0
      vertex 4.3876 62.6918 0
    endloop
  endfacet
  facet normal 0 0 -1
    outer loop
      vertex 0 69 0
      vertex 4.3876 62.6918 0
      vertex 0 0 0
    endloop
  endfacet
  facet normal -0 0 -1
    outer loop
      vertex 5.9249 3.1923 0
      vertex 0 0 0
      vertex 4.3876 3.69179 0
    endloop
  endfacet
  facet normal 0 0 -1
    outer loop
      vertex 0 0 0
      vertex 5.9249 3.1923 0
      vertex 34 0 0
    endloop
  endfacet
  facet normal 0 0 -1
    outer loop
      vertex 34 0 0
      vertex 29.875 63.5 0
      vertex 34 69 0
    endloop
  endfacet
  facet normal 0 0 -1
    outer loop
      vertex 28.9249 64.8077 0
      vertex 34 69 0
      vertex 29.875 63.5 0
    endloop
  endfacet
  facet normal 0 0 -1
    outer loop
      vertex 27.3876 64.3082 0
      vertex 34 69 0
      vertex 28.9249 64.8077 0
    endloop
  endfacet
  facet normal 0 0 -1
    outer loop
      vertex 27.3876 62.6918 0
      vertex 6.875 63.5 0
      vertex 27.3876 64.3082 0
    endloop
  endfacet
  facet normal 0 0 -1
    outer loop
      vertex 5.9249 64.8077 0
      vertex 27.3876 64.3082 0
      vertex 6.875 63.5 0
    endloop
  endfacet
  facet normal 0 0 -1
    outer loop
      vertex 27.3876 64.3082 0
      vertex 5.9249 64.8077 0
      vertex 34 69 0
    endloop
  endfacet
  facet normal 0 0 -1
    outer loop
      vertex 5.9249 64.8077 0
      vertex 0 69 0
      vertex 34 69 0
    endloop
  endfacet
  facet normal 0 0 -1
    outer loop
      vertex 4.3876 64.3082 0
      vertex 0 69 0
      vertex 5.9249 64.8077 0
    endloop
  endfacet
  facet normal 0 0 -1
    outer loop
      vertex 4.3876 62.6918 0
      vertex 0 69 0
      vertex 4.3876 64.3082 0
    endloop
  endfacet
  facet normal -0.809017 -0.587786 0
    outer loop
      vertex 6.875 4.5 0
      vertex 5.9249 5.8077 4.5
      vertex 5.9249 5.8077 0
    endloop
  endfacet
  facet normal -0.809017 -0.587786 0
    outer loop
      vertex 5.9249 5.8077 4.5
      vertex 6.875 4.5 0
      vertex 6.875 4.5 4.5
    endloop
  endfacet
  facet normal 1 -0 0
    outer loop
      vertex 4.3876 3.69179 4.5
      vertex 4.3876 5.3082 0
      vertex 4.3876 5.3082 4.5
    endloop
  endfacet
  facet normal 1 0 0
    outer loop
      vertex 4.3876 5.3082 0
      vertex 4.3876 3.69179 4.5
      vertex 4.3876 3.69179 0
    endloop
  endfacet
  facet normal 0.309017 -0.951057 0
    outer loop
      vertex 4.3876 5.3082 0
      vertex 5.9249 5.8077 4.5
      vertex 4.3876 5.3082 4.5
    endloop
  endfacet
  facet normal 0.309017 -0.951057 0
    outer loop
      vertex 5.9249 5.8077 4.5
      vertex 4.3876 5.3082 0
      vertex 5.9249 5.8077 0
    endloop
  endfacet
  facet normal 0.309017 0.951057 -0
    outer loop
      vertex 5.9249 3.1923 0
      vertex 4.3876 3.69179 4.5
      vertex 5.9249 3.1923 4.5
    endloop
  endfacet
  facet normal 0.309017 0.951057 0
    outer loop
      vertex 4.3876 3.69179 4.5
      vertex 5.9249 3.1923 0
      vertex 4.3876 3.69179 0
    endloop
  endfacet
  facet normal -0.809017 0.587785 0
    outer loop
      vertex 5.9249 3.1923 0
      vertex 6.875 4.5 4.5
      vertex 6.875 4.5 0
    endloop
  endfacet
  facet normal -0.809017 0.587785 0
    outer loop
      vertex 6.875 4.5 4.5
      vertex 5.9249 3.1923 0
      vertex 5.9249 3.1923 4.5
    endloop
  endfacet
  facet normal -0.809017 -0.587786 0
    outer loop
      vertex 29.875 4.5 0
      vertex 28.9249 5.8077 4.5
      vertex 28.9249 5.8077 0
    endloop
  endfacet
  facet normal -0.809017 -0.587786 0
    outer loop
      vertex 28.9249 5.8077 4.5
      vertex 29.875 4.5 0
      vertex 29.875 4.5 4.5
    endloop
  endfacet
  facet normal 1 -0 0
    outer loop
      vertex 27.3876 3.69179 4.5
      vertex 27.3876 5.3082 0
      vertex 27.3876 5.3082 4.5
    endloop
  endfacet
  facet normal 1 0 0
    outer loop
      vertex 27.3876 5.3082 0
      vertex 27.3876 3.69179 4.5
      vertex 27.3876 3.69179 0
    endloop
  endfacet
  facet normal 0.309016 -0.951057 0
    outer loop
      vertex 27.3876 5.3082 0
      vertex 28.9249 5.8077 4.5
      vertex 27.3876 5.3082 4.5
    endloop
  endfacet
  facet normal 0.309016 -0.951057 0
    outer loop
      vertex 28.9249 5.8077 4.5
      vertex 27.3876 5.3082 0
      vertex 28.9249 5.8077 0
    endloop
  endfacet
  facet normal 0.309016 0.951057 -0
    outer loop
      vertex 28.9249 3.1923 0
      vertex 27.3876 3.69179 4.5
      vertex 28.9249 3.1923 4.5
    endloop
  endfacet
  facet normal 0.309016 0.951057 0
    outer loop
      vertex 27.3876 3.69179 4.5
      vertex 28.9249 3.1923 0
      vertex 27.3876 3.69179 0
    endloop
  endfacet
  facet normal -0.809017 0.587785 0
    outer loop
      vertex 28.9249 3.1923 0
      vertex 29.875 4.5 4.5
      vertex 29.875 4.5 0
    endloop
  endfacet
  facet normal -0.809017 0.587785 0
    outer loop
      vertex 29.875 4.5 4.5
      vertex 28.9249 3.1923 0
      vertex 28.9249 3.1923 4.5
    endloop
  endfacet
  facet normal -0.809017 -0.587786 0
    outer loop
      vertex 29.875 63.5 0
      vertex 28.9249 64.8077 4.5
      vertex 28.9249 64.8077 0
    endloop
  endfacet
  facet normal -0.809017 -0.587786 0
    outer loop
      vertex 28.9249 64.8077 4.5
      vertex 29.875 63.5 0
      vertex 29.875 63.5 4.5
    endloop
  endfacet
  facet normal 1 -0 0
    outer loop
      vertex 27.3876 62.6918 4.5
      vertex 27.3876 64.3082 0
      vertex 27.3876 64.3082 4.5
    endloop
  endfacet
  facet normal 1 0 0
    outer loop
      vertex 27.3876 64.3082 0
      vertex 27.3876 62.6918 4.5
      vertex 27.3876 62.6918 0
    endloop
  endfacet
  facet normal 0.309016 -0.951057 0
    outer loop
      vertex 27.3876 64.3082 0
      vertex 28.9249 64.8077 4.5
      vertex 27.3876 64.3082 4.5
    endloop
  endfacet
  facet normal 0.309016 -0.951057 0
    outer loop
      vertex 28.9249 64.8077 4.5
      vertex 27.3876 64.3082 0
      vertex 28.9249 64.8077 0
    endloop
  endfacet
  facet normal 0.309016 0.951057 -0
    outer loop
      vertex 28.9249 62.1923 0
      vertex 27.3876 62.6918 4.5
      vertex 28.9249 62.1923 4.5
    endloop
  endfacet
  facet normal 0.309016 0.951057 0
    outer loop
      vertex 27.3876 62.6918 4.5
      vertex 28.9249 62.1923 0
      vertex 27.3876 62.6918 0
    endloop
  endfacet
  facet normal -0.809017 0.587786 0
    outer loop
      vertex 28.9249 62.1923 0
      vertex 29.875 63.5 4.5
      vertex 29.875 63.5 0
    endloop
  endfacet
  facet normal -0.809017 0.587786 0
    outer loop
      vertex 29.875 63.5 4.5
      vertex 28.9249 62.1923 0
      vertex 28.9249 62.1923 4.5
    endloop
  endfacet
  facet normal -0.809017 -0.587786 0
    outer loop
      vertex 6.875 63.5 0
      vertex 5.9249 64.8077 4.5
      vertex 5.9249 64.8077 0
    endloop
  endfacet
  facet normal -0.809017 -0.587786 0
    outer loop
      vertex 5.9249 64.8077 4.5
      vertex 6.875 63.5 0
      vertex 6.875 63.5 4.5
    endloop
  endfacet
  facet normal 1 -0 0
    outer loop
      vertex 4.3876 62.6918 4.5
      vertex 4.3876 64.3082 0
      vertex 4.3876 64.3082 4.5
    endloop
  endfacet
  facet normal 1 0 0
    outer loop
      vertex 4.3876 64.3082 0
      vertex 4.3876 62.6918 4.5
      vertex 4.3876 62.6918 0
    endloop
  endfacet
  facet normal 0.309016 -0.951057 0
    outer loop
      vertex 4.3876 64.3082 0
      vertex 5.9249 64.8077 4.5
      vertex 4.3876 64.3082 4.5
    endloop
  endfacet
  facet normal 0.309016 -0.951057 0
    outer loop
      vertex 5.9249 64.8077 4.5
      vertex 4.3876 64.3082 0
      vertex 5.9249 64.8077 0
    endloop
  endfacet
  facet normal 0.309016 0.951057 -0
    outer loop
      vertex 5.9249 62.1923 0
      vertex 4.3876 62.6918 4.5
      vertex 5.9249 62.1923 4.5
    endloop
  endfacet
  facet normal 0.309016 0.951057 0
    outer loop
      vertex 4.3876 62.6918 4.5
      vertex 5.9249 62.1923 0
      vertex 4.3876 62.6918 0
    endloop
  endfacet
  facet normal -0.809017 0.587786 0
    outer loop
      vertex 5.9249 62.1923 0
      vertex 6.875 63.5 4.5
      vertex 6.875 63.5 0
    endloop
  endfacet
  facet normal -0.809017 0.587786 0
    outer loop
      vertex 6.875 63.5 4.5
      vertex 5.9249 62.1923 0
      vertex 5.9249 62.1923 4.5
    endloop
  endfacet
  facet normal -1 0 0
    outer loop
      vertex 1.14177 3.51394 2
      vertex 1.14177 4.5 4.5
      vertex 1.14177 4.5 2
    endloop
  endfacet
  facet normal -1 -0 0
    outer loop
      vertex 1.14177 4.5 4.5
      vertex 1.14177 3.51394 2
      vertex 1.14177 3.51394 4.5
    endloop
  endfacet
  facet normal 0 0 1
    outer loop
      vertex 29.875 63.5 4.5
      vertex 33 64 4.5
      vertex 32.4444 65.8922 4.5
    endloop
  endfacet
  facet normal 0 0 1
    outer loop
      vertex 28.9249 62.1923 4.5
      vertex 33 63.5 4.5
      vertex 32.8532 63.5 4.5
    endloop
  endfacet
  facet normal 0 0 1
    outer loop
      vertex 33 64 4.5
      vertex 29.875 63.5 4.5
      vertex 32.8532 63.5 4.5
    endloop
  endfacet
  facet normal 0 0 1
    outer loop
      vertex 33 63.5 4.5
      vertex 28.9249 62.1923 4.5
      vertex 33 4.5 4.5
    endloop
  endfacet
  facet normal 0 0 1
    outer loop
      vertex 28.9249 64.8077 4.5
      vertex 32.4444 65.8922 4.5
      vertex 30.954 67.1837 4.5
    endloop
  endfacet
  facet normal 0 0 1
    outer loop
      vertex 32.8532 63.5 4.5
      vertex 29.875 63.5 4.5
      vertex 28.9249 62.1923 4.5
    endloop
  endfacet
  facet normal -0 0 1
    outer loop
      vertex 28.9249 5.8077 4.5
      vertex 33 4.5 4.5
      vertex 28.9249 62.1923 4.5
    endloop
  endfacet
  facet normal 0 0 1
    outer loop
      vertex 28.9249 64.8077 4.5
      vertex 30.954 67.1837 4.5
      vertex 29.0019 67.4644 4.5
    endloop
  endfacet
  facet normal 0 0 1
    outer loop
      vertex 32.4444 65.8922 4.5
      vertex 28.9249 64.8077 4.5
      vertex 29.875 63.5 4.5
    endloop
  endfacet
  facet normal -0 0 1
    outer loop
      vertex 28.5 67.2352 4.5
      vertex 28.9249 64.8077 4.5
      vertex 29.0019 67.4644 4.5
    endloop
  endfacet
  facet normal 0 0 1
    outer loop
      vertex 28.9249 64.8077 4.5
      vertex 28.5 67.2352 4.5
      vertex 27.3876 64.3082 4.5
    endloop
  endfacet
  facet normal 0 0 1
    outer loop
      vertex 4.3876 3.69179 4.5
      vertex 1.14177 3.51394 4.5
      vertex 2.20799 1.85488 4.5
    endloop
  endfacet
  facet normal 0 0 1
    outer loop
      vertex 4.3876 3.69179 4.5
      vertex 4.5 1.10724 4.5
      vertex 5.9249 3.1923 4.5
    endloop
  endfacet
  facet normal 0 0 1
    outer loop
      vertex 4.5 1.10724 4.5
      vertex 4.3876 3.69179 4.5
      vertex 4.0019 1.03562 4.5
    endloop
  endfacet
  facet normal 0 0 1
    outer loop
      vertex 10 7.5 4.5
      vertex 5.9249 5.8077 4.5
      vertex 6.875 4.5 4.5
    endloop
  endfacet
  facet normal -0 0 1
    outer loop
      vertex 1 7.5 4.5
      vertex 5.9249 5.8077 4.5
      vertex 10 7.5 4.5
    endloop
  endfacet
  facet normal -0 0 1
    outer loop
      vertex 1.14177 4.5 4.5
      vertex 4.3876 3.69179 4.5
      vertex 4.3876 5.3082 4.5
    endloop
  endfacet
  facet normal 0 0 1
    outer loop
      vertex 4.3876 3.69179 4.5
      vertex 2.20799 1.85488 4.5
      vertex 4.0019 1.03562 4.5
    endloop
  endfacet
  facet normal 0 0 1
    outer loop
      vertex 1.14177 3.51394 4.5
      vertex 4.3876 3.69179 4.5
      vertex 1.14177 4.5 4.5
    endloop
  endfacet
  facet normal 0 0 1
    outer loop
      vertex 5.9249 5.8077 4.5
      vertex 1 7.5 4.5
      vertex 4.3876 5.3082 4.5
    endloop
  endfacet
  facet normal 0 0 1
    outer loop
      vertex 4.3876 5.3082 4.5
      vertex 1 7.5 4.5
      vertex 1.14177 4.5 4.5
    endloop
  endfacet
  facet normal 0 0 1
    outer loop
      vertex 1.14177 4.5 4.5
      vertex 1 7.5 4.5
      vertex 1 4.5 4.5
    endloop
  endfacet
  facet normal -0 0 1
    outer loop
      vertex 1 51.5 4.5
      vertex 8 47.5 4.5
      vertex 8 51.5 4.5
    endloop
  endfacet
  facet normal 0 0 1
    outer loop
      vertex 8 47.5 4.5
      vertex 1 51.5 4.5
      vertex 1 47.5 4.5
    endloop
  endfacet
  facet normal 0 0 1
    outer loop
      vertex 28.5 67.5 4.5
      vertex 27.3876 64.3082 4.5
      vertex 28.5 67.2352 4.5
    endloop
  endfacet
  facet normal 0 0 1
    outer loop
      vertex 8 60.5 4.5
      vertex 27.3876 62.6918 4.5
      vertex 27.3876 64.3082 4.5
    endloop
  endfacet
  facet normal 0 0 1
    outer loop
      vertex 27.3876 62.6918 4.5
      vertex 8 38.5 4.5
      vertex 27.3876 5.3082 4.5
    endloop
  endfacet
  facet normal -0 -0 1
    outer loop
      vertex 10 20.5 4.5
      vertex 27.3876 5.3082 4.5
      vertex 8 38.5 4.5
    endloop
  endfacet
  facet normal 0 0 1
    outer loop
      vertex 6.875 63.5 4.5
      vertex 27.3876 64.3082 4.5
      vertex 28.5 67.5 4.5
    endloop
  endfacet
  facet normal 0 0 1
    outer loop
      vertex 27.3876 62.6918 4.5
      vertex 8 60.5 4.5
      vertex 8 51.5 4.5
    endloop
  endfacet
  facet normal 0 0 1
    outer loop
      vertex 27.3876 64.3082 4.5
      vertex 6.875 63.5 4.5
      vertex 8 60.5 4.5
    endloop
  endfacet
  facet normal 0 0 1
    outer loop
      vertex 28.5 67.5 4.5
      vertex 5.9249 64.8077 4.5
      vertex 6.875 63.5 4.5
    endloop
  endfacet
  facet normal -0 0 1
    outer loop
      vertex 4.5 67.5 4.5
      vertex 5.9249 64.8077 4.5
      vertex 28.5 67.5 4.5
    endloop
  endfacet
  facet normal -0 0 1
    outer loop
      vertex 4.5 67.3928 4.5
      vertex 5.9249 64.8077 4.5
      vertex 4.5 67.5 4.5
    endloop
  endfacet
  facet normal 0 0 1
    outer loop
      vertex 4.5 67.3928 4.5
      vertex 4.3876 64.3082 4.5
      vertex 5.9249 64.8077 4.5
    endloop
  endfacet
  facet normal -0 0 1
    outer loop
      vertex 2.20799 66.6451 4.5
      vertex 4.3876 64.3082 4.5
      vertex 4.0019 67.4644 4.5
    endloop
  endfacet
  facet normal 0 0 1
    outer loop
      vertex 4.0019 67.4644 4.5
      vertex 4.3876 64.3082 4.5
      vertex 4.5 67.3928 4.5
    endloop
  endfacet
  facet normal 0 -0 1
    outer loop
      vertex 29.875 4.5 4.5
      vertex 33 4.5 4.5
      vertex 28.9249 5.8077 4.5
    endloop
  endfacet
  facet normal 0 0 1
    outer loop
      vertex 33 4.5 4.5
      vertex 29.875 4.5 4.5
      vertex 32.4444 2.60776 4.5
    endloop
  endfacet
  facet normal 0 0 1
    outer loop
      vertex 27.3876 62.6918 4.5
      vertex 28.9249 5.8077 4.5
      vertex 28.9249 62.1923 4.5
    endloop
  endfacet
  facet normal 0 0 1
    outer loop
      vertex 28.9249 5.8077 4.5
      vertex 27.3876 62.6918 4.5
      vertex 27.3876 5.3082 4.5
    endloop
  endfacet
  facet normal 0 0 1
    outer loop
      vertex 32.4444 2.60776 4.5
      vertex 29.875 4.5 4.5
      vertex 30.954 1.31629 4.5
    endloop
  endfacet
  facet normal -0 0 1
    outer loop
      vertex 28.9249 3.1923 4.5
      vertex 30.954 1.31629 4.5
      vertex 29.875 4.5 4.5
    endloop
  endfacet
  facet normal 0 0 1
    outer loop
      vertex 30.954 1.31629 4.5
      vertex 28.9249 3.1923 4.5
      vertex 29.0019 1.03562 4.5
    endloop
  endfacet
  facet normal 0 0 1
    outer loop
      vertex 28.9249 3.1923 4.5
      vertex 28.5 1.26483 4.5
      vertex 29.0019 1.03562 4.5
    endloop
  endfacet
  facet normal 0 0 1
    outer loop
      vertex 27.3876 3.69179 4.5
      vertex 28.5 1.26483 4.5
      vertex 28.9249 3.1923 4.5
    endloop
  endfacet
  facet normal 0 0 1
    outer loop
      vertex 27.3876 3.69179 4.5
      vertex 28.5 1 4.5
      vertex 28.5 1.26483 4.5
    endloop
  endfacet
  facet normal 0 0 1
    outer loop
      vertex 27.3876 5.3082 4.5
      vertex 10 7.5 4.5
      vertex 27.3876 3.69179 4.5
    endloop
  endfacet
  facet normal 0 0 1
    outer loop
      vertex 27.3876 3.69179 4.5
      vertex 10 7.5 4.5
      vertex 28.5 1 4.5
    endloop
  endfacet
  facet normal -0 0 1
    outer loop
      vertex 6.875 4.5 4.5
      vertex 28.5 1 4.5
      vertex 10 7.5 4.5
    endloop
  endfacet
  facet normal -0 0 1
    outer loop
      vertex 5.9249 3.1923 4.5
      vertex 28.5 1 4.5
      vertex 6.875 4.5 4.5
    endloop
  endfacet
  facet normal 0 0 1
    outer loop
      vertex 4.5 1 4.5
      vertex 5.9249 3.1923 4.5
      vertex 4.5 1.10724 4.5
    endloop
  endfacet
  facet normal 0 0 1
    outer loop
      vertex 5.9249 3.1923 4.5
      vertex 4.5 1 4.5
      vertex 28.5 1 4.5
    endloop
  endfacet
  facet normal 0 0 1
    outer loop
      vertex 27.3876 62.6918 4.5
      vertex 8 51.5 4.5
      vertex 8 47.5 4.5
    endloop
  endfacet
  facet normal 0 0 1
    outer loop
      vertex 27.3876 62.6918 4.5
      vertex 8 47.5 4.5
      vertex 8 38.5 4.5
    endloop
  endfacet
  facet normal -0 0 1
    outer loop
      vertex 10 7.5 4.5
      vertex 27.3876 5.3082 4.5
      vertex 10 20.5 4.5
    endloop
  endfacet
  facet normal 0 0 1
    outer loop
      vertex 1 20.5 4.5
      vertex 8 38.5 4.5
      vertex 1 38.5 4.5
    endloop
  endfacet
  facet normal 0 0 1
    outer loop
      vertex 8 38.5 4.5
      vertex 1 20.5 4.5
      vertex 10 20.5 4.5
    endloop
  endfacet
  facet normal -0 0 1
    outer loop
      vertex 5.9249 62.1923 4.5
      vertex 8 60.5 4.5
      vertex 6.875 63.5 4.5
    endloop
  endfacet
  facet normal 0 0 1
    outer loop
      vertex 1 60.5 4.5
      vertex 5.9249 62.1923 4.5
      vertex 4.3876 62.6918 4.5
    endloop
  endfacet
  facet normal -0 0 1
    outer loop
      vertex 1.14177 64.9861 4.5
      vertex 4.3876 64.3082 4.5
      vertex 2.20799 66.6451 4.5
    endloop
  endfacet
  facet normal 0 0 1
    outer loop
      vertex 1.14177 63.5 4.5
      vertex 4.3876 64.3082 4.5
      vertex 1.14177 64.9861 4.5
    endloop
  endfacet
  facet normal 0 0 1
    outer loop
      vertex 4.3876 64.3082 4.5
      vertex 1.14177 63.5 4.5
      vertex 4.3876 62.6918 4.5
    endloop
  endfacet
  facet normal 0 0 1
    outer loop
      vertex 1 60.5 4.5
      vertex 4.3876 62.6918 4.5
      vertex 1.14177 63.5 4.5
    endloop
  endfacet
  facet normal 0 0 1
    outer loop
      vertex 1 60.5 4.5
      vertex 1.14177 63.5 4.5
      vertex 1 63.5 4.5
    endloop
  endfacet
  facet normal 0 0 1
    outer loop
      vertex 5.9249 62.1923 4.5
      vertex 1 60.5 4.5
      vertex 8 60.5 4.5
    endloop
  endfacet
  facet normal 0.142315 -0.989821 0
    outer loop
      vertex 4.0019 1.03562 2
      vertex 4.5 1.10724 4.5
      vertex 4.0019 1.03562 4.5
    endloop
  endfacet
  facet normal 0.142315 -0.989821 0
    outer loop
      vertex 4.5 1.10724 4.5
      vertex 4.0019 1.03562 2
      vertex 4.5 1.10724 2
    endloop
  endfacet
  facet normal -0.415415 -0.909632 0
    outer loop
      vertex 2.20799 1.85488 2
      vertex 4.0019 1.03562 4.5
      vertex 2.20799 1.85488 4.5
    endloop
  endfacet
  facet normal -0.415415 -0.909632 -0
    outer loop
      vertex 4.0019 1.03562 4.5
      vertex 2.20799 1.85488 2
      vertex 4.0019 1.03562 2
    endloop
  endfacet
  facet normal -0.841254 -0.540641 0
    outer loop
      vertex 2.20799 1.85488 2
      vertex 1.14177 3.51394 4.5
      vertex 1.14177 3.51394 2
    endloop
  endfacet
  facet normal -0.841254 -0.540641 0
    outer loop
      vertex 1.14177 3.51394 4.5
      vertex 2.20799 1.85488 2
      vertex 2.20799 1.85488 4.5
    endloop
  endfacet
  facet normal 0.959493 -0.281733 0
    outer loop
      vertex 32.4444 2.60776 4.5
      vertex 33 4.5 2
      vertex 33 4.5 4.5
    endloop
  endfacet
  facet normal 0.959493 -0.281733 0
    outer loop
      vertex 33 4.5 2
      vertex 32.4444 2.60776 4.5
      vertex 32.4444 2.60776 2
    endloop
  endfacet
  facet normal 0.654861 -0.755749 0
    outer loop
      vertex 30.954 1.31629 2
      vertex 32.4444 2.60776 4.5
      vertex 30.954 1.31629 4.5
    endloop
  endfacet
  facet normal 0.654861 -0.755749 0
    outer loop
      vertex 32.4444 2.60776 4.5
      vertex 30.954 1.31629 2
      vertex 32.4444 2.60776 2
    endloop
  endfacet
  facet normal 0.142315 -0.989821 0
    outer loop
      vertex 29.0019 1.03562 2
      vertex 30.954 1.31629 4.5
      vertex 29.0019 1.03562 4.5
    endloop
  endfacet
  facet normal 0.142315 -0.989821 0
    outer loop
      vertex 30.954 1.31629 4.5
      vertex 29.0019 1.03562 2
      vertex 30.954 1.31629 2
    endloop
  endfacet
  facet normal -0.415415 -0.909632 0
    outer loop
      vertex 28.5 1.26483 2
      vertex 29.0019 1.03562 4.5
      vertex 28.5 1.26483 4.5
    endloop
  endfacet
  facet normal -0.415415 -0.909632 -0
    outer loop
      vertex 29.0019 1.03562 4.5
      vertex 28.5 1.26483 2
      vertex 29.0019 1.03562 2
    endloop
  endfacet
  facet normal -1 0 0
    outer loop
      vertex 1.14177 63.5 2
      vertex 1.14177 64.9861 4.5
      vertex 1.14177 64.9861 2
    endloop
  endfacet
  facet normal -1 -0 0
    outer loop
      vertex 1.14177 64.9861 4.5
      vertex 1.14177 63.5 2
      vertex 1.14177 63.5 4.5
    endloop
  endfacet
  facet normal -0.415412 0.909633 0
    outer loop
      vertex 4.0019 67.4644 2
      vertex 2.20799 66.6451 4.5
      vertex 4.0019 67.4644 4.5
    endloop
  endfacet
  facet normal -0.415412 0.909633 0
    outer loop
      vertex 2.20799 66.6451 4.5
      vertex 4.0019 67.4644 2
      vertex 2.20799 66.6451 2
    endloop
  endfacet
  facet normal -0.841254 0.540639 0
    outer loop
      vertex 1.14177 64.9861 2
      vertex 2.20799 66.6451 4.5
      vertex 2.20799 66.6451 2
    endloop
  endfacet
  facet normal -0.841254 0.540639 0
    outer loop
      vertex 2.20799 66.6451 4.5
      vertex 1.14177 64.9861 2
      vertex 1.14177 64.9861 4.5
    endloop
  endfacet
  facet normal 0.142302 0.989823 -0
    outer loop
      vertex 4.5 67.3928 2
      vertex 4.0019 67.4644 4.5
      vertex 4.5 67.3928 4.5
    endloop
  endfacet
  facet normal 0.142302 0.989823 0
    outer loop
      vertex 4.0019 67.4644 4.5
      vertex 4.5 67.3928 2
      vertex 4.0019 67.4644 2
    endloop
  endfacet
  facet normal 0.959493 0.281733 0
    outer loop
      vertex 33 64 4.5
      vertex 32.4444 65.8922 2
      vertex 32.4444 65.8922 4.5
    endloop
  endfacet
  facet normal 0.959493 0.281733 0
    outer loop
      vertex 32.4444 65.8922 2
      vertex 33 64 4.5
      vertex 33 64 2
    endloop
  endfacet
  facet normal -0.415405 0.909637 0
    outer loop
      vertex 29.0019 67.4644 2
      vertex 28.5 67.2352 4.5
      vertex 29.0019 67.4644 4.5
    endloop
  endfacet
  facet normal -0.415405 0.909637 0
    outer loop
      vertex 28.5 67.2352 4.5
      vertex 29.0019 67.4644 2
      vertex 28.5 67.2352 2
    endloop
  endfacet
  facet normal 0.959493 -0.281731 0
    outer loop
      vertex 32.8532 63.5 4.5
      vertex 33 64 2
      vertex 33 64 4.5
    endloop
  endfacet
  facet normal 0.959493 -0.281731 0
    outer loop
      vertex 33 64 2
      vertex 32.8532 63.5 4.5
      vertex 32.8532 63.5 2
    endloop
  endfacet
  facet normal 0.142315 0.989821 -0
    outer loop
      vertex 30.954 67.1837 2
      vertex 29.0019 67.4644 4.5
      vertex 30.954 67.1837 4.5
    endloop
  endfacet
  facet normal 0.142315 0.989821 0
    outer loop
      vertex 29.0019 67.4644 4.5
      vertex 30.954 67.1837 2
      vertex 29.0019 67.4644 2
    endloop
  endfacet
  facet normal 0.65486 0.75575 -0
    outer loop
      vertex 32.4444 65.8922 2
      vertex 30.954 67.1837 4.5
      vertex 32.4444 65.8922 4.5
    endloop
  endfacet
  facet normal 0.65486 0.75575 0
    outer loop
      vertex 30.954 67.1837 4.5
      vertex 32.4444 65.8922 2
      vertex 30.954 67.1837 2
    endloop
  endfacet
  facet normal -1 0 0
    outer loop
      vertex 4.5 1 2
      vertex 4.5 1.10724 4.5
      vertex 4.5 1.10724 2
    endloop
  endfacet
  facet normal -1 -0 0
    outer loop
      vertex 4.5 1.10724 4.5
      vertex 4.5 1 2
      vertex 4.5 1 4.5
    endloop
  endfacet
  facet normal -1 0 0
    outer loop
      vertex 4.5 67.3928 2
      vertex 4.5 67.5 4.5
      vertex 4.5 67.5 2
    endloop
  endfacet
  facet normal -1 -0 0
    outer loop
      vertex 4.5 67.5 4.5
      vertex 4.5 67.3928 2
      vertex 4.5 67.3928 4.5
    endloop
  endfacet
  facet normal 1 -0 0
    outer loop
      vertex 28.5 1 4.5
      vertex 28.5 1.26483 2
      vertex 28.5 1.26483 4.5
    endloop
  endfacet
  facet normal 1 0 0
    outer loop
      vertex 28.5 1.26483 2
      vertex 28.5 1 4.5
      vertex 28.5 1 2
    endloop
  endfacet
  facet normal 1 -0 0
    outer loop
      vertex 28.5 67.2352 4.5
      vertex 28.5 67.5 2
      vertex 28.5 67.5 4.5
    endloop
  endfacet
  facet normal 1 0 0
    outer loop
      vertex 28.5 67.5 2
      vertex 28.5 67.2352 4.5
      vertex 28.5 67.2352 2
    endloop
  endfacet
  facet normal 0 1 -0
    outer loop
      vertex 28.5 67.5 2
      vertex 4.5 67.5 4.5
      vertex 28.5 67.5 4.5
    endloop
  endfacet
  facet normal 0 1 0
    outer loop
      vertex 4.5 67.5 4.5
      vertex 28.5 67.5 2
      vertex 4.5 67.5 2
    endloop
  endfacet
  facet normal 0 -1 0
    outer loop
      vertex 4.5 1 2
      vertex 28.5 1 4.5
      vertex 4.5 1 4.5
    endloop
  endfacet
  facet normal 0 -1 -0
    outer loop
      vertex 28.5 1 4.5
      vertex 4.5 1 2
      vertex 28.5 1 2
    endloop
  endfacet
  facet normal -1 0 0
    outer loop
      vertex 1 63.5 2
      vertex 1 60.5 3
      vertex 1 63.5 4.5
    endloop
  endfacet
  facet normal -1 0 0
    outer loop
      vertex 1 63.5 2
      vertex 1 51.5 3
      vertex 1 60.5 3
    endloop
  endfacet
  facet normal -1 0 0
    outer loop
      vertex 1 51.5 3
      vertex 1 47.5 3
      vertex 1 51.5 4.5
    endloop
  endfacet
  facet normal -1 0 0
    outer loop
      vertex 1 63.5 2
      vertex 1 47.5 3
      vertex 1 51.5 3
    endloop
  endfacet
  facet normal -1 0 0
    outer loop
      vertex 1 63.5 2
      vertex 1 38.5 3
      vertex 1 47.5 3
    endloop
  endfacet
  facet normal -1 0 0
    outer loop
      vertex 1 38.5 3
      vertex 1 20.5 3
      vertex 1 38.5 4.5
    endloop
  endfacet
  facet normal -1 0 0
    outer loop
      vertex 1 4.5 2
      vertex 1 38.5 3
      vertex 1 63.5 2
    endloop
  endfacet
  facet normal -1 -0 0
    outer loop
      vertex 1 38.5 3
      vertex 1 4.5 2
      vertex 1 20.5 3
    endloop
  endfacet
  facet normal -1 -0 0
    outer loop
      vertex 1 20.5 3
      vertex 1 4.5 2
      vertex 1 7.5 3
    endloop
  endfacet
  facet normal -1 0 0
    outer loop
      vertex 1 4.5 4.5
      vertex 1 7.5 3
      vertex 1 4.5 2
    endloop
  endfacet
  facet normal -1 0 0
    outer loop
      vertex 1 7.5 3
      vertex 1 4.5 4.5
      vertex 1 7.5 4.5
    endloop
  endfacet
  facet normal -1 -0 0
    outer loop
      vertex 1 63.5 4.5
      vertex 1 60.5 3
      vertex 1 60.5 4.5
    endloop
  endfacet
  facet normal -1 -0 0
    outer loop
      vertex 1 51.5 4.5
      vertex 1 47.5 3
      vertex 1 47.5 4.5
    endloop
  endfacet
  facet normal -1 -0 0
    outer loop
      vertex 1 38.5 4.5
      vertex 1 20.5 3
      vertex 1 20.5 4.5
    endloop
  endfacet
  facet normal 1 -0 0
    outer loop
      vertex 33 4.5 4.5
      vertex 33 63.5 2
      vertex 33 63.5 4.5
    endloop
  endfacet
  facet normal 1 0 0
    outer loop
      vertex 33 63.5 2
      vertex 33 4.5 4.5
      vertex 33 4.5 2
    endloop
  endfacet
  facet normal 0 1 -0
    outer loop
      vertex 33 63.5 2
      vertex 32.8532 63.5 4.5
      vertex 33 63.5 4.5
    endloop
  endfacet
  facet normal 0 1 0
    outer loop
      vertex 32.8532 63.5 4.5
      vertex 33 63.5 2
      vertex 32.8532 63.5 2
    endloop
  endfacet
  facet normal 0 1 -0
    outer loop
      vertex 1.14177 63.5 2
      vertex 1 63.5 4.5
      vertex 1.14177 63.5 4.5
    endloop
  endfacet
  facet normal 0 1 0
    outer loop
      vertex 1 63.5 4.5
      vertex 1.14177 63.5 2
      vertex 1 63.5 2
    endloop
  endfacet
  facet normal 0 -1 0
    outer loop
      vertex 1 4.5 2
      vertex 1.14177 4.5 4.5
      vertex 1 4.5 4.5
    endloop
  endfacet
  facet normal 0 -1 -0
    outer loop
      vertex 1.14177 4.5 4.5
      vertex 1 4.5 2
      vertex 1.14177 4.5 2
    endloop
  endfacet
  facet normal -1 0 0
    outer loop
      vertex 0 0 0
      vertex 0 69 2
      vertex 0 69 0
    endloop
  endfacet
  facet normal -1 -0 0
    outer loop
      vertex 0 69 2
      vertex 0 0 0
      vertex 0 0 2
    endloop
  endfacet
  facet normal 0 0 1
    outer loop
      vertex 1.14177 4.5 2
      vertex 1 4.5 2
      vertex 1.14177 3.51394 2
    endloop
  endfacet
  facet normal 0 0 1
    outer loop
      vertex 4.5 1.10724 2
      vertex 4.0019 1.03562 2
      vertex 4.5 1 2
    endloop
  endfacet
  facet normal 0 0 1
    outer loop
      vertex 33 64 2
      vertex 32.8532 63.5 2
      vertex 33 63.5 2
    endloop
  endfacet
  facet normal 0 0 1
    outer loop
      vertex 33 63.5 2
      vertex 34 69 2
      vertex 33 64 2
    endloop
  endfacet
  facet normal 0 0 1
    outer loop
      vertex 34 69 2
      vertex 32.4444 65.8922 2
      vertex 33 64 2
    endloop
  endfacet
  facet normal 0 0 1
    outer loop
      vertex 34 69 2
      vertex 30.954 67.1837 2
      vertex 32.4444 65.8922 2
    endloop
  endfacet
  facet normal 0 0 1
    outer loop
      vertex 34 69 2
      vertex 29.0019 67.4644 2
      vertex 30.954 67.1837 2
    endloop
  endfacet
  facet normal 0 0 1
    outer loop
      vertex 34 69 2
      vertex 28.5 67.5 2
      vertex 29.0019 67.4644 2
    endloop
  endfacet
  facet normal -0 0 1
    outer loop
      vertex 0 69 2
      vertex 28.5 67.5 2
      vertex 34 69 2
    endloop
  endfacet
  facet normal 0 0 1
    outer loop
      vertex 4.5 67.5 2
      vertex 4.0019 67.4644 2
      vertex 4.5 67.3928 2
    endloop
  endfacet
  facet normal 0 0 1
    outer loop
      vertex 1.14177 64.9861 2
      vertex 1 63.5 2
      vertex 1.14177 63.5 2
    endloop
  endfacet
  facet normal 0 0 1
    outer loop
      vertex 0 0 2
      vertex 1 63.5 2
      vertex 0 69 2
    endloop
  endfacet
  facet normal 0 0 1
    outer loop
      vertex 1.14177 64.9861 2
      vertex 0 69 2
      vertex 1 63.5 2
    endloop
  endfacet
  facet normal 0 0 1
    outer loop
      vertex 2.20799 66.6451 2
      vertex 0 69 2
      vertex 1.14177 64.9861 2
    endloop
  endfacet
  facet normal 0 0 1
    outer loop
      vertex 4.0019 67.4644 2
      vertex 0 69 2
      vertex 2.20799 66.6451 2
    endloop
  endfacet
  facet normal 0 0 1
    outer loop
      vertex 4.5 67.5 2
      vertex 0 69 2
      vertex 4.0019 67.4644 2
    endloop
  endfacet
  facet normal 0 0 1
    outer loop
      vertex 28.5 67.5 2
      vertex 0 69 2
      vertex 4.5 67.5 2
    endloop
  endfacet
  facet normal 0 0 1
    outer loop
      vertex 34 69 2
      vertex 33 63.5 2
      vertex 34 0 2
    endloop
  endfacet
  facet normal -0 0 1
    outer loop
      vertex 33 4.5 2
      vertex 34 0 2
      vertex 33 63.5 2
    endloop
  endfacet
  facet normal -0 0 1
    outer loop
      vertex 32.4444 2.60776 2
      vertex 34 0 2
      vertex 33 4.5 2
    endloop
  endfacet
  facet normal -0 0 1
    outer loop
      vertex 30.954 1.31629 2
      vertex 34 0 2
      vertex 32.4444 2.60776 2
    endloop
  endfacet
  facet normal -0 0 1
    outer loop
      vertex 29.0019 1.03562 2
      vertex 34 0 2
      vertex 30.954 1.31629 2
    endloop
  endfacet
  facet normal 0 0 1
    outer loop
      vertex 28.5 1 2
      vertex 29.0019 1.03562 2
      vertex 28.5 1.26483 2
    endloop
  endfacet
  facet normal -0 0 1
    outer loop
      vertex 28.5 1 2
      vertex 34 0 2
      vertex 29.0019 1.03562 2
    endloop
  endfacet
  facet normal 0 0 1
    outer loop
      vertex 0 0 2
      vertex 28.5 1 2
      vertex 4.5 1 2
    endloop
  endfacet
  facet normal 0 0 1
    outer loop
      vertex 28.5 1 2
      vertex 0 0 2
      vertex 34 0 2
    endloop
  endfacet
  facet normal 0 0 1
    outer loop
      vertex 4.0019 1.03562 2
      vertex 0 0 2
      vertex 4.5 1 2
    endloop
  endfacet
  facet normal 0 0 1
    outer loop
      vertex 2.20799 1.85488 2
      vertex 0 0 2
      vertex 4.0019 1.03562 2
    endloop
  endfacet
  facet normal 0 0 1
    outer loop
      vertex 1.14177 3.51394 2
      vertex 0 0 2
      vertex 2.20799 1.85488 2
    endloop
  endfacet
  facet normal 0 0 1
    outer loop
      vertex 1 4.5 2
      vertex 0 0 2
      vertex 1.14177 3.51394 2
    endloop
  endfacet
  facet normal 0 0 1
    outer loop
      vertex 1 63.5 2
      vertex 0 0 2
      vertex 1 4.5 2
    endloop
  endfacet
  facet normal 0 0 1
    outer loop
      vertex 29.0019 67.4644 2
      vertex 28.5 67.5 2
      vertex 28.5 67.2352 2
    endloop
  endfacet
  facet normal 1 -0 0
    outer loop
      vertex 34 0 2
      vertex 34 69 0
      vertex 34 69 2
    endloop
  endfacet
  facet normal 1 0 0
    outer loop
      vertex 34 69 0
      vertex 34 0 2
      vertex 34 0 0
    endloop
  endfacet
  facet normal 0 1 -0
    outer loop
      vertex 34 69 0
      vertex 0 69 2
      vertex 34 69 2
    endloop
  endfacet
  facet normal 0 1 0
    outer loop
      vertex 0 69 2
      vertex 34 69 0
      vertex 0 69 0
    endloop
  endfacet
  facet normal 0 -1 0
    outer loop
      vertex 0 0 0
      vertex 34 0 2
      vertex 0 0 2
    endloop
  endfacet
  facet normal 0 -1 -0
    outer loop
      vertex 34 0 2
      vertex 0 0 0
      vertex 34 0 0
    endloop
  endfacet
  facet normal -1 0 0
    outer loop
      vertex 8 51.5 3
      vertex 8 60.5 4.5
      vertex 8 60.5 3
    endloop
  endfacet
  facet normal -1 -0 0
    outer loop
      vertex 8 60.5 4.5
      vertex 8 51.5 3
      vertex 8 51.5 4.5
    endloop
  endfacet
  facet normal -0 0 1
    outer loop
      vertex 1 60.5 3
      vertex 8 51.5 3
      vertex 8 60.5 3
    endloop
  endfacet
  facet normal 0 0 1
    outer loop
      vertex 8 51.5 3
      vertex 1 60.5 3
      vertex 1 51.5 3
    endloop
  endfacet
  facet normal 0 1 -0
    outer loop
      vertex 8 51.5 3
      vertex 1 51.5 4.5
      vertex 8 51.5 4.5
    endloop
  endfacet
  facet normal 0 1 0
    outer loop
      vertex 1 51.5 4.5
      vertex 8 51.5 3
      vertex 1 51.5 3
    endloop
  endfacet
  facet normal 0 -1 0
    outer loop
      vertex 1 60.5 3
      vertex 8 60.5 4.5
      vertex 1 60.5 4.5
    endloop
  endfacet
  facet normal 0 -1 -0
    outer loop
      vertex 8 60.5 4.5
      vertex 1 60.5 3
      vertex 8 60.5 3
    endloop
  endfacet
  facet normal -1 0 0
    outer loop
      vertex 8 38.5 3
      vertex 8 47.5 4.5
      vertex 8 47.5 3
    endloop
  endfacet
  facet normal -1 -0 0
    outer loop
      vertex 8 47.5 4.5
      vertex 8 38.5 3
      vertex 8 38.5 4.5
    endloop
  endfacet
  facet normal 0 -1 0
    outer loop
      vertex 1 47.5 3
      vertex 8 47.5 4.5
      vertex 1 47.5 4.5
    endloop
  endfacet
  facet normal 0 -1 -0
    outer loop
      vertex 8 47.5 4.5
      vertex 1 47.5 3
      vertex 8 47.5 3
    endloop
  endfacet
  facet normal -0 0 1
    outer loop
      vertex 1 47.5 3
      vertex 8 38.5 3
      vertex 8 47.5 3
    endloop
  endfacet
  facet normal 0 0 1
    outer loop
      vertex 8 38.5 3
      vertex 1 47.5 3
      vertex 1 38.5 3
    endloop
  endfacet
  facet normal 0 1 -0
    outer loop
      vertex 8 38.5 3
      vertex 1 38.5 4.5
      vertex 8 38.5 4.5
    endloop
  endfacet
  facet normal 0 1 0
    outer loop
      vertex 1 38.5 4.5
      vertex 8 38.5 3
      vertex 1 38.5 3
    endloop
  endfacet
  facet normal -1 0 0
    outer loop
      vertex 10 7.5 3
      vertex 10 20.5 4.5
      vertex 10 20.5 3
    endloop
  endfacet
  facet normal -1 -0 0
    outer loop
      vertex 10 20.5 4.5
      vertex 10 7.5 3
      vertex 10 7.5 4.5
    endloop
  endfacet
  facet normal -0 0 1
    outer loop
      vertex 1 20.5 3
      vertex 10 7.5 3
      vertex 10 20.5 3
    endloop
  endfacet
  facet normal 0 0 1
    outer loop
      vertex 10 7.5 3
      vertex 1 20.5 3
      vertex 1 7.5 3
    endloop
  endfacet
  facet normal 0 1 -0
    outer loop
      vertex 10 7.5 3
      vertex 1 7.5 4.5
      vertex 10 7.5 4.5
    endloop
  endfacet
  facet normal 0 1 0
    outer loop
      vertex 1 7.5 4.5
      vertex 10 7.5 3
      vertex 1 7.5 3
    endloop
  endfacet
  facet normal 0 -1 0
    outer loop
      vertex 1 20.5 3
      vertex 10 20.5 4.5
      vertex 1 20.5 4.5
    endloop
  endfacet
  facet normal 0 -1 -0
    outer loop
      vertex 10 20.5 4.5
      vertex 1 20.5 3
      vertex 10 20.5 3
    endloop
  endfacet
endsolid OpenSCAD_Model
