solid OpenSCAD_Model
  facet normal 0.207912 -0.978148 0
    outer loop
      vertex 45.8379 0.227341 0
      vertex 54.3242 2.03115 4.5
      vertex 45.8379 0.227341 4.5
    endloop
  endfacet
  facet normal 0.207912 -0.978148 0
    outer loop
      vertex 54.3242 2.03115 4.5
      vertex 45.8379 0.227341 0
      vertex 54.3242 2.03115 0
    endloop
  endfacet
  facet normal 0 0 -1
    outer loop
      vertex 77 89 0
      vertex 58.2283 50.5786 0
      vertex 60 85 0
    endloop
  endfacet
  facet normal 0 0 -1
    outer loop
      vertex 54 53.6506 0
      vertex 60 85 0
      vertex 58.2283 50.5786 0
    endloop
  endfacet
  facet normal 0 0 -1
    outer loop
      vertex 49.2254 55.7764 0
      vertex 60 85 0
      vertex 54 53.6506 0
    endloop
  endfacet
  facet normal 0 0 -1
    outer loop
      vertex 44.1132 56.863 0
      vertex 60 85 0
      vertex 49.2254 55.7764 0
    endloop
  endfacet
  facet normal 0 0 -1
    outer loop
      vertex 38.8868 56.863 0
      vertex 60 85 0
      vertex 44.1132 56.863 0
    endloop
  endfacet
  facet normal 0 0 -1
    outer loop
      vertex 20 85 0
      vertex 38.8868 56.863 0
      vertex 33.7746 55.7764 0
    endloop
  endfacet
  facet normal 0 0 -1
    outer loop
      vertex 20 85 0
      vertex 33.7746 55.7764 0
      vertex 29 53.6506 0
    endloop
  endfacet
  facet normal 0 0 -1
    outer loop
      vertex 20 85 0
      vertex 29 53.6506 0
      vertex 24.7717 50.5786 0
    endloop
  endfacet
  facet normal 0 0 -1
    outer loop
      vertex 38.8868 56.863 0
      vertex 20 85 0
      vertex 60 85 0
    endloop
  endfacet
  facet normal 0 0 -1
    outer loop
      vertex 0 41.5 0
      vertex 24.7717 50.5786 0
      vertex 21.2746 46.6946 0
    endloop
  endfacet
  facet normal 0 0 -1
    outer loop
      vertex 0 41.5 0
      vertex 21.2746 46.6946 0
      vertex 18.6614 42.1684 0
    endloop
  endfacet
  facet normal 0 0 -1
    outer loop
      vertex 0 89 0
      vertex 24.7717 50.5786 0
      vertex 0 41.5 0
    endloop
  endfacet
  facet normal 0 0 -1
    outer loop
      vertex 0 41.5 0
      vertex 18.6614 42.1684 0
      vertex 17.0463 37.1978 0
    endloop
  endfacet
  facet normal 0 0 -1
    outer loop
      vertex 0.906874 32.8717 0
      vertex 17.0463 37.1978 0
      vertex 16.5 32 0
    endloop
  endfacet
  facet normal 0 0 -1
    outer loop
      vertex 3.58786 24.6204 0
      vertex 17.0463 26.8022 0
      vertex 7.92579 17.1069 0
    endloop
  endfacet
  facet normal -0 0 -1
    outer loop
      vertex 17.0463 26.8022 0
      vertex 3.58786 24.6204 0
      vertex 16.5 32 0
    endloop
  endfacet
  facet normal 0 0 -1
    outer loop
      vertex 0.906874 32.8717 0
      vertex 16.5 32 0
      vertex 3.58786 24.6204 0
    endloop
  endfacet
  facet normal -0 0 -1
    outer loop
      vertex 17.0463 37.1978 0
      vertex 0.906874 32.8717 0
      vertex 0 41.5 0
    endloop
  endfacet
  facet normal 0 0 -1
    outer loop
      vertex 24.7717 50.5786 0
      vertex 0 89 0
      vertex 20 85 0
    endloop
  endfacet
  facet normal 0 0 -1
    outer loop
      vertex 20 85 0
      vertex 0 89 0
      vertex 20 89 0
    endloop
  endfacet
  facet normal 0 0 -1
    outer loop
      vertex 77 20.4425 0
      vertex 65.9537 26.8022 0
      vertex 66.5 32 0
    endloop
  endfacet
  facet normal 0 0 -1
    outer loop
      vertex 75.0742 17.1069 0
      vertex 64.3386 21.8316 0
      vertex 65.9537 26.8022 0
    endloop
  endfacet
  facet normal 0 0 -1
    outer loop
      vertex 58.2283 13.4214 0
      vertex 69.2689 10.6595 0
      vertex 62.25 5.55995 0
    endloop
  endfacet
  facet normal 0 0 -1
    outer loop
      vertex 69.2689 10.6595 0
      vertex 61.7254 17.3054 0
      vertex 64.3386 21.8316 0
    endloop
  endfacet
  facet normal 0 0 -1
    outer loop
      vertex 69.2689 10.6595 0
      vertex 58.2283 13.4214 0
      vertex 61.7254 17.3054 0
    endloop
  endfacet
  facet normal 0 0 -1
    outer loop
      vertex 54 10.3494 0
      vertex 62.25 5.55995 0
      vertex 54.3242 2.03115 0
    endloop
  endfacet
  facet normal 0 0 -1
    outer loop
      vertex 62.25 5.55995 0
      vertex 54 10.3494 0
      vertex 58.2283 13.4214 0
    endloop
  endfacet
  facet normal 0 0 -1
    outer loop
      vertex 54.3242 2.03115 0
      vertex 49.2254 8.22359 0
      vertex 54 10.3494 0
    endloop
  endfacet
  facet normal 0 0 -1
    outer loop
      vertex 45.8379 0.227341 0
      vertex 49.2254 8.22359 0
      vertex 54.3242 2.03115 0
    endloop
  endfacet
  facet normal 0 0 -1
    outer loop
      vertex 45.8379 0.227341 0
      vertex 44.1132 7.13695 0
      vertex 49.2254 8.22359 0
    endloop
  endfacet
  facet normal 0 0 -1
    outer loop
      vertex 45.8379 0.227341 0
      vertex 38.8868 7.13695 0
      vertex 44.1132 7.13695 0
    endloop
  endfacet
  facet normal 0 0 -1
    outer loop
      vertex 37.1621 0.227341 0
      vertex 38.8868 7.13695 0
      vertex 45.8379 0.227341 0
    endloop
  endfacet
  facet normal 0 0 -1
    outer loop
      vertex 37.1621 0.227341 0
      vertex 33.7746 8.22359 0
      vertex 38.8868 7.13695 0
    endloop
  endfacet
  facet normal 0 0 -1
    outer loop
      vertex 28.6758 2.03115 0
      vertex 33.7746 8.22359 0
      vertex 37.1621 0.227341 0
    endloop
  endfacet
  facet normal -0 0 -1
    outer loop
      vertex 33.7746 8.22359 0
      vertex 28.6758 2.03115 0
      vertex 29 10.3494 0
    endloop
  endfacet
  facet normal 0 0 -1
    outer loop
      vertex 20.75 5.55995 0
      vertex 29 10.3494 0
      vertex 28.6758 2.03115 0
    endloop
  endfacet
  facet normal -0 0 -1
    outer loop
      vertex 29 10.3494 0
      vertex 20.75 5.55995 0
      vertex 24.7717 13.4214 0
    endloop
  endfacet
  facet normal 0 0 -1
    outer loop
      vertex 13.7311 10.6595 0
      vertex 24.7717 13.4214 0
      vertex 20.75 5.55995 0
    endloop
  endfacet
  facet normal -0 0 -1
    outer loop
      vertex 24.7717 13.4214 0
      vertex 13.7311 10.6595 0
      vertex 21.2746 17.3054 0
    endloop
  endfacet
  facet normal -0 0 -1
    outer loop
      vertex 21.2746 17.3054 0
      vertex 13.7311 10.6595 0
      vertex 18.6614 21.8316 0
    endloop
  endfacet
  facet normal -0 0 -1
    outer loop
      vertex 18.6614 21.8316 0
      vertex 7.92579 17.1069 0
      vertex 17.0463 26.8022 0
    endloop
  endfacet
  facet normal 0 0 -1
    outer loop
      vertex 7.92579 17.1069 0
      vertex 18.6614 21.8316 0
      vertex 13.7311 10.6595 0
    endloop
  endfacet
  facet normal 0 0 -1
    outer loop
      vertex 65.9537 26.8022 0
      vertex 77 20.4425 0
      vertex 75.0742 17.1069 0
    endloop
  endfacet
  facet normal 0 0 -1
    outer loop
      vertex 64.3386 21.8316 0
      vertex 75.0742 17.1069 0
      vertex 69.2689 10.6595 0
    endloop
  endfacet
  facet normal 0 0 -1
    outer loop
      vertex 77 20.4425 0
      vertex 66.5 32 0
      vertex 65.9537 37.1978 0
    endloop
  endfacet
  facet normal 0 0 -1
    outer loop
      vertex 77 20.4425 0
      vertex 65.9537 37.1978 0
      vertex 77 89 0
    endloop
  endfacet
  facet normal 0 0 -1
    outer loop
      vertex 64.3386 42.1684 0
      vertex 77 89 0
      vertex 65.9537 37.1978 0
    endloop
  endfacet
  facet normal 0 0 -1
    outer loop
      vertex 61.7254 46.6946 0
      vertex 77 89 0
      vertex 64.3386 42.1684 0
    endloop
  endfacet
  facet normal 0 0 -1
    outer loop
      vertex 58.2283 50.5786 0
      vertex 77 89 0
      vertex 61.7254 46.6946 0
    endloop
  endfacet
  facet normal -0 0 -1
    outer loop
      vertex 77 89 0
      vertex 60 85 0
      vertex 60 89 0
    endloop
  endfacet
  facet normal -0 0 1
    outer loop
      vertex 0 89 4.5
      vertex 20 85 4.5
      vertex 20 89 4.5
    endloop
  endfacet
  facet normal 0 0 1
    outer loop
      vertex 0 41.5 4.5
      vertex 20 85 4.5
      vertex 0 89 4.5
    endloop
  endfacet
  facet normal 0 0 1
    outer loop
      vertex 18.6614 42.1684 4.5
      vertex 0 41.5 4.5
      vertex 17.0463 37.1978 4.5
    endloop
  endfacet
  facet normal 0 -0 1
    outer loop
      vertex 0.906874 32.8717 4.5
      vertex 17.0463 37.1978 4.5
      vertex 0 41.5 4.5
    endloop
  endfacet
  facet normal 0 0 1
    outer loop
      vertex 17.0463 37.1978 4.5
      vertex 0.906874 32.8717 4.5
      vertex 16.5 32 4.5
    endloop
  endfacet
  facet normal 0 0 1
    outer loop
      vertex 16.5 32 4.5
      vertex 7.92579 17.1069 4.5
      vertex 13.7311 10.6595 4.5
    endloop
  endfacet
  facet normal 0 0 1
    outer loop
      vertex 16.5 32 4.5
      vertex 3.58786 24.6204 4.5
      vertex 7.92579 17.1069 4.5
    endloop
  endfacet
  facet normal 0 0 1
    outer loop
      vertex 20 85 4.5
      vertex 0 41.5 4.5
      vertex 18.6614 42.1684 4.5
    endloop
  endfacet
  facet normal 0 0 1
    outer loop
      vertex 16.5 32 4.5
      vertex 0.906874 32.8717 4.5
      vertex 3.58786 24.6204 4.5
    endloop
  endfacet
  facet normal -0 0 1
    outer loop
      vertex 65.9537 37.1978 4.5
      vertex 77 20.4425 4.5
      vertex 77 89 4.5
    endloop
  endfacet
  facet normal -0 -0 1
    outer loop
      vertex 66.5 32 4.5
      vertex 77 20.4425 4.5
      vertex 65.9537 37.1978 4.5
    endloop
  endfacet
  facet normal -0 0 1
    outer loop
      vertex 64.3386 21.8316 4.5
      vertex 77 20.4425 4.5
      vertex 65.9537 26.8022 4.5
    endloop
  endfacet
  facet normal -0 0 1
    outer loop
      vertex 65.9537 26.8022 4.5
      vertex 77 20.4425 4.5
      vertex 66.5 32 4.5
    endloop
  endfacet
  facet normal 0 0 1
    outer loop
      vertex 77 89 4.5
      vertex 64.3386 42.1684 4.5
      vertex 65.9537 37.1978 4.5
    endloop
  endfacet
  facet normal 0 0 1
    outer loop
      vertex 77 89 4.5
      vertex 61.7254 46.6946 4.5
      vertex 64.3386 42.1684 4.5
    endloop
  endfacet
  facet normal 0 0 1
    outer loop
      vertex 60 85 4.5
      vertex 77 89 4.5
      vertex 60 89 4.5
    endloop
  endfacet
  facet normal 0 0 1
    outer loop
      vertex 58.2283 50.5786 4.5
      vertex 77 89 4.5
      vertex 60 85 4.5
    endloop
  endfacet
  facet normal 0 0 1
    outer loop
      vertex 77 89 4.5
      vertex 58.2283 50.5786 4.5
      vertex 61.7254 46.6946 4.5
    endloop
  endfacet
  facet normal 0 0 1
    outer loop
      vertex 60 85 4.5
      vertex 54 53.6506 4.5
      vertex 58.2283 50.5786 4.5
    endloop
  endfacet
  facet normal 0 0 1
    outer loop
      vertex 60 85 4.5
      vertex 49.2254 55.7764 4.5
      vertex 54 53.6506 4.5
    endloop
  endfacet
  facet normal 0 0 1
    outer loop
      vertex 60 85 4.5
      vertex 44.1132 56.863 4.5
      vertex 49.2254 55.7764 4.5
    endloop
  endfacet
  facet normal 0 0 1
    outer loop
      vertex 60 85 4.5
      vertex 38.8868 56.863 4.5
      vertex 44.1132 56.863 4.5
    endloop
  endfacet
  facet normal -0 0 1
    outer loop
      vertex 20 85 4.5
      vertex 38.8868 56.863 4.5
      vertex 60 85 4.5
    endloop
  endfacet
  facet normal 0 0 1
    outer loop
      vertex 38.8868 56.863 4.5
      vertex 20 85 4.5
      vertex 33.7746 55.7764 4.5
    endloop
  endfacet
  facet normal 0 0 1
    outer loop
      vertex 33.7746 55.7764 4.5
      vertex 20 85 4.5
      vertex 29 53.6506 4.5
    endloop
  endfacet
  facet normal 0 0 1
    outer loop
      vertex 29 53.6506 4.5
      vertex 20 85 4.5
      vertex 24.7717 50.5786 4.5
    endloop
  endfacet
  facet normal 0 0 1
    outer loop
      vertex 20 85 4.5
      vertex 21.2746 46.6946 4.5
      vertex 24.7717 50.5786 4.5
    endloop
  endfacet
  facet normal 0 0 1
    outer loop
      vertex 21.2746 46.6946 4.5
      vertex 20 85 4.5
      vertex 18.6614 42.1684 4.5
    endloop
  endfacet
  facet normal 0 0 1
    outer loop
      vertex 77 20.4425 4.5
      vertex 64.3386 21.8316 4.5
      vertex 75.0742 17.1069 4.5
    endloop
  endfacet
  facet normal 0 0 1
    outer loop
      vertex 75.0742 17.1069 4.5
      vertex 64.3386 21.8316 4.5
      vertex 69.2689 10.6595 4.5
    endloop
  endfacet
  facet normal -0 0 1
    outer loop
      vertex 61.7254 17.3054 4.5
      vertex 69.2689 10.6595 4.5
      vertex 64.3386 21.8316 4.5
    endloop
  endfacet
  facet normal -0 0 1
    outer loop
      vertex 58.2283 13.4214 4.5
      vertex 69.2689 10.6595 4.5
      vertex 61.7254 17.3054 4.5
    endloop
  endfacet
  facet normal 0 0 1
    outer loop
      vertex 69.2689 10.6595 4.5
      vertex 58.2283 13.4214 4.5
      vertex 62.25 5.55995 4.5
    endloop
  endfacet
  facet normal -0 0 1
    outer loop
      vertex 54 10.3494 4.5
      vertex 62.25 5.55995 4.5
      vertex 58.2283 13.4214 4.5
    endloop
  endfacet
  facet normal 0 0 1
    outer loop
      vertex 62.25 5.55995 4.5
      vertex 54 10.3494 4.5
      vertex 54.3242 2.03115 4.5
    endloop
  endfacet
  facet normal -0 0 1
    outer loop
      vertex 49.2254 8.22359 4.5
      vertex 54.3242 2.03115 4.5
      vertex 54 10.3494 4.5
    endloop
  endfacet
  facet normal 0 0 1
    outer loop
      vertex 49.2254 8.22359 4.5
      vertex 45.8379 0.227341 4.5
      vertex 54.3242 2.03115 4.5
    endloop
  endfacet
  facet normal -0 0 1
    outer loop
      vertex 44.1132 7.13695 4.5
      vertex 45.8379 0.227341 4.5
      vertex 49.2254 8.22359 4.5
    endloop
  endfacet
  facet normal -0 0 1
    outer loop
      vertex 38.8868 7.13695 4.5
      vertex 45.8379 0.227341 4.5
      vertex 44.1132 7.13695 4.5
    endloop
  endfacet
  facet normal 0 0 1
    outer loop
      vertex 38.8868 7.13695 4.5
      vertex 37.1621 0.227341 4.5
      vertex 45.8379 0.227341 4.5
    endloop
  endfacet
  facet normal 0 0 1
    outer loop
      vertex 33.7746 8.22359 4.5
      vertex 37.1621 0.227341 4.5
      vertex 38.8868 7.13695 4.5
    endloop
  endfacet
  facet normal 0 0 1
    outer loop
      vertex 28.6758 2.03115 4.5
      vertex 33.7746 8.22359 4.5
      vertex 29 10.3494 4.5
    endloop
  endfacet
  facet normal 0 0 1
    outer loop
      vertex 33.7746 8.22359 4.5
      vertex 28.6758 2.03115 4.5
      vertex 37.1621 0.227341 4.5
    endloop
  endfacet
  facet normal 0 0 1
    outer loop
      vertex 20.75 5.55995 4.5
      vertex 29 10.3494 4.5
      vertex 24.7717 13.4214 4.5
    endloop
  endfacet
  facet normal 0 0 1
    outer loop
      vertex 13.7311 10.6595 4.5
      vertex 24.7717 13.4214 4.5
      vertex 21.2746 17.3054 4.5
    endloop
  endfacet
  facet normal 0 0 1
    outer loop
      vertex 29 10.3494 4.5
      vertex 20.75 5.55995 4.5
      vertex 28.6758 2.03115 4.5
    endloop
  endfacet
  facet normal 0 0 1
    outer loop
      vertex 13.7311 10.6595 4.5
      vertex 21.2746 17.3054 4.5
      vertex 18.6614 21.8316 4.5
    endloop
  endfacet
  facet normal 0 0 1
    outer loop
      vertex 13.7311 10.6595 4.5
      vertex 18.6614 21.8316 4.5
      vertex 17.0463 26.8022 4.5
    endloop
  endfacet
  facet normal 0 0 1
    outer loop
      vertex 24.7717 13.4214 4.5
      vertex 13.7311 10.6595 4.5
      vertex 20.75 5.55995 4.5
    endloop
  endfacet
  facet normal 0 0 1
    outer loop
      vertex 13.7311 10.6595 4.5
      vertex 17.0463 26.8022 4.5
      vertex 16.5 32 4.5
    endloop
  endfacet
  facet normal 0.406737 -0.913545 0
    outer loop
      vertex 54.3242 2.03115 0
      vertex 62.25 5.55995 4.5
      vertex 54.3242 2.03115 4.5
    endloop
  endfacet
  facet normal 0.406737 -0.913545 0
    outer loop
      vertex 62.25 5.55995 4.5
      vertex 54.3242 2.03115 0
      vertex 62.25 5.55995 0
    endloop
  endfacet
  facet normal -0.994522 -0.104528 0
    outer loop
      vertex 0.906874 32.8717 0
      vertex 0 41.5 4.5
      vertex 0 41.5 0
    endloop
  endfacet
  facet normal -0.994522 -0.104528 0
    outer loop
      vertex 0 41.5 4.5
      vertex 0.906874 32.8717 0
      vertex 0.906874 32.8717 4.5
    endloop
  endfacet
  facet normal -0.406737 -0.913545 0
    outer loop
      vertex 20.75 5.55995 0
      vertex 28.6758 2.03115 4.5
      vertex 20.75 5.55995 4.5
    endloop
  endfacet
  facet normal -0.406737 -0.913545 -0
    outer loop
      vertex 28.6758 2.03115 4.5
      vertex 20.75 5.55995 0
      vertex 28.6758 2.03115 0
    endloop
  endfacet
  facet normal -0.743145 -0.669131 0
    outer loop
      vertex 13.7311 10.6595 0
      vertex 7.92579 17.1069 4.5
      vertex 7.92579 17.1069 0
    endloop
  endfacet
  facet normal -0.743145 -0.669131 0
    outer loop
      vertex 7.92579 17.1069 4.5
      vertex 13.7311 10.6595 0
      vertex 13.7311 10.6595 4.5
    endloop
  endfacet
  facet normal -0.951057 -0.309017 0
    outer loop
      vertex 3.58786 24.6204 0
      vertex 0.906874 32.8717 4.5
      vertex 0.906874 32.8717 0
    endloop
  endfacet
  facet normal -0.951057 -0.309017 0
    outer loop
      vertex 0.906874 32.8717 4.5
      vertex 3.58786 24.6204 0
      vertex 3.58786 24.6204 4.5
    endloop
  endfacet
  facet normal 0.743145 -0.669131 0
    outer loop
      vertex 69.2689 10.6595 4.5
      vertex 75.0742 17.1069 0
      vertex 75.0742 17.1069 4.5
    endloop
  endfacet
  facet normal 0.743145 -0.669131 0
    outer loop
      vertex 75.0742 17.1069 0
      vertex 69.2689 10.6595 4.5
      vertex 69.2689 10.6595 0
    endloop
  endfacet
  facet normal 0.587785 -0.809017 0
    outer loop
      vertex 62.25 5.55995 0
      vertex 69.2689 10.6595 4.5
      vertex 62.25 5.55995 4.5
    endloop
  endfacet
  facet normal 0.587785 -0.809017 0
    outer loop
      vertex 69.2689 10.6595 4.5
      vertex 62.25 5.55995 0
      vertex 69.2689 10.6595 0
    endloop
  endfacet
  facet normal 0 -1 0
    outer loop
      vertex 37.1621 0.227341 0
      vertex 45.8379 0.227341 4.5
      vertex 37.1621 0.227341 4.5
    endloop
  endfacet
  facet normal 0 -1 -0
    outer loop
      vertex 45.8379 0.227341 4.5
      vertex 37.1621 0.227341 0
      vertex 45.8379 0.227341 0
    endloop
  endfacet
  facet normal -0.207912 -0.978148 0
    outer loop
      vertex 28.6758 2.03115 0
      vertex 37.1621 0.227341 4.5
      vertex 28.6758 2.03115 4.5
    endloop
  endfacet
  facet normal -0.207912 -0.978148 -0
    outer loop
      vertex 37.1621 0.227341 4.5
      vertex 28.6758 2.03115 0
      vertex 37.1621 0.227341 0
    endloop
  endfacet
  facet normal -0.587785 -0.809017 0
    outer loop
      vertex 13.7311 10.6595 0
      vertex 20.75 5.55995 4.5
      vertex 13.7311 10.6595 4.5
    endloop
  endfacet
  facet normal -0.587785 -0.809017 -0
    outer loop
      vertex 20.75 5.55995 4.5
      vertex 13.7311 10.6595 0
      vertex 20.75 5.55995 0
    endloop
  endfacet
  facet normal -0.866025 -0.5 0
    outer loop
      vertex 7.92579 17.1069 0
      vertex 3.58786 24.6204 4.5
      vertex 3.58786 24.6204 0
    endloop
  endfacet
  facet normal -0.866025 -0.5 0
    outer loop
      vertex 3.58786 24.6204 4.5
      vertex 7.92579 17.1069 0
      vertex 7.92579 17.1069 4.5
    endloop
  endfacet
  facet normal 0.866025 -0.5 0
    outer loop
      vertex 75.0742 17.1069 4.5
      vertex 77 20.4425 0
      vertex 77 20.4425 4.5
    endloop
  endfacet
  facet normal 0.866025 -0.5 0
    outer loop
      vertex 77 20.4425 0
      vertex 75.0742 17.1069 4.5
      vertex 75.0742 17.1069 0
    endloop
  endfacet
  facet normal -1 0 0
    outer loop
      vertex 0 41.5 0
      vertex 0 89 4.5
      vertex 0 89 0
    endloop
  endfacet
  facet normal -1 -0 0
    outer loop
      vertex 0 89 4.5
      vertex 0 41.5 0
      vertex 0 41.5 4.5
    endloop
  endfacet
  facet normal 0 1 -0
    outer loop
      vertex 20 89 0
      vertex 0 89 4.5
      vertex 20 89 4.5
    endloop
  endfacet
  facet normal 0 1 0
    outer loop
      vertex 0 89 4.5
      vertex 20 89 0
      vertex 0 89 0
    endloop
  endfacet
  facet normal 0 1 -0
    outer loop
      vertex 77 89 0
      vertex 60 89 4.5
      vertex 77 89 4.5
    endloop
  endfacet
  facet normal 0 1 0
    outer loop
      vertex 60 89 4.5
      vertex 77 89 0
      vertex 60 89 0
    endloop
  endfacet
  facet normal -0.994522 -0.104529 0
    outer loop
      vertex 66.5 32 0
      vertex 65.9537 37.1978 4.5
      vertex 65.9537 37.1978 0
    endloop
  endfacet
  facet normal -0.994522 -0.104529 0
    outer loop
      vertex 65.9537 37.1978 4.5
      vertex 66.5 32 0
      vertex 66.5 32 4.5
    endloop
  endfacet
  facet normal 0.207911 -0.978148 0
    outer loop
      vertex 33.7746 55.7764 0
      vertex 38.8868 56.863 4.5
      vertex 33.7746 55.7764 4.5
    endloop
  endfacet
  facet normal 0.207911 -0.978148 0
    outer loop
      vertex 38.8868 56.863 4.5
      vertex 33.7746 55.7764 0
      vertex 38.8868 56.863 0
    endloop
  endfacet
  facet normal -0.207912 0.978148 0
    outer loop
      vertex 49.2254 8.22359 0
      vertex 44.1132 7.13695 4.5
      vertex 49.2254 8.22359 4.5
    endloop
  endfacet
  facet normal -0.207912 0.978148 0
    outer loop
      vertex 44.1132 7.13695 4.5
      vertex 49.2254 8.22359 0
      vertex 44.1132 7.13695 0
    endloop
  endfacet
  facet normal -0.587785 -0.809017 0
    outer loop
      vertex 54 53.6506 0
      vertex 58.2283 50.5786 4.5
      vertex 54 53.6506 4.5
    endloop
  endfacet
  facet normal -0.587785 -0.809017 -0
    outer loop
      vertex 58.2283 50.5786 4.5
      vertex 54 53.6506 0
      vertex 58.2283 50.5786 0
    endloop
  endfacet
  facet normal 0.866025 -0.5 0
    outer loop
      vertex 18.6614 42.1684 4.5
      vertex 21.2746 46.6946 0
      vertex 21.2746 46.6946 4.5
    endloop
  endfacet
  facet normal 0.866025 -0.5 0
    outer loop
      vertex 21.2746 46.6946 0
      vertex 18.6614 42.1684 4.5
      vertex 18.6614 42.1684 0
    endloop
  endfacet
  facet normal 0.951057 -0.309017 0
    outer loop
      vertex 17.0463 37.1978 4.5
      vertex 18.6614 42.1684 0
      vertex 18.6614 42.1684 4.5
    endloop
  endfacet
  facet normal 0.951057 -0.309017 0
    outer loop
      vertex 18.6614 42.1684 0
      vertex 17.0463 37.1978 4.5
      vertex 17.0463 37.1978 0
    endloop
  endfacet
  facet normal 0.587785 -0.809017 0
    outer loop
      vertex 24.7717 50.5786 0
      vertex 29 53.6506 4.5
      vertex 24.7717 50.5786 4.5
    endloop
  endfacet
  facet normal 0.587785 -0.809017 0
    outer loop
      vertex 29 53.6506 4.5
      vertex 24.7717 50.5786 0
      vertex 29 53.6506 0
    endloop
  endfacet
  facet normal -0.866025 -0.5 0
    outer loop
      vertex 64.3386 42.1684 0
      vertex 61.7254 46.6946 4.5
      vertex 61.7254 46.6946 0
    endloop
  endfacet
  facet normal -0.866025 -0.5 0
    outer loop
      vertex 61.7254 46.6946 4.5
      vertex 64.3386 42.1684 0
      vertex 64.3386 42.1684 4.5
    endloop
  endfacet
  facet normal -0.951057 -0.309017 0
    outer loop
      vertex 65.9537 37.1978 0
      vertex 64.3386 42.1684 4.5
      vertex 64.3386 42.1684 0
    endloop
  endfacet
  facet normal -0.951057 -0.309017 0
    outer loop
      vertex 64.3386 42.1684 4.5
      vertex 65.9537 37.1978 0
      vertex 65.9537 37.1978 4.5
    endloop
  endfacet
  facet normal -0.743145 -0.669131 0
    outer loop
      vertex 61.7254 46.6946 0
      vertex 58.2283 50.5786 4.5
      vertex 58.2283 50.5786 0
    endloop
  endfacet
  facet normal -0.743145 -0.669131 0
    outer loop
      vertex 58.2283 50.5786 4.5
      vertex 61.7254 46.6946 0
      vertex 61.7254 46.6946 4.5
    endloop
  endfacet
  facet normal -0.207911 -0.978148 0
    outer loop
      vertex 44.1132 56.863 0
      vertex 49.2254 55.7764 4.5
      vertex 44.1132 56.863 4.5
    endloop
  endfacet
  facet normal -0.207911 -0.978148 -0
    outer loop
      vertex 49.2254 55.7764 4.5
      vertex 44.1132 56.863 0
      vertex 49.2254 55.7764 0
    endloop
  endfacet
  facet normal 0 -1 0
    outer loop
      vertex 38.8868 56.863 0
      vertex 44.1132 56.863 4.5
      vertex 38.8868 56.863 4.5
    endloop
  endfacet
  facet normal 0 -1 -0
    outer loop
      vertex 44.1132 56.863 4.5
      vertex 38.8868 56.863 0
      vertex 44.1132 56.863 0
    endloop
  endfacet
  facet normal -0.406737 -0.913545 0
    outer loop
      vertex 49.2254 55.7764 0
      vertex 54 53.6506 4.5
      vertex 49.2254 55.7764 4.5
    endloop
  endfacet
  facet normal -0.406737 -0.913545 -0
    outer loop
      vertex 54 53.6506 4.5
      vertex 49.2254 55.7764 0
      vertex 54 53.6506 0
    endloop
  endfacet
  facet normal 0.994522 -0.104529 0
    outer loop
      vertex 16.5 32 4.5
      vertex 17.0463 37.1978 0
      vertex 17.0463 37.1978 4.5
    endloop
  endfacet
  facet normal 0.994522 -0.104529 0
    outer loop
      vertex 17.0463 37.1978 0
      vertex 16.5 32 4.5
      vertex 16.5 32 0
    endloop
  endfacet
  facet normal 0.743145 -0.66913 0
    outer loop
      vertex 21.2746 46.6946 4.5
      vertex 24.7717 50.5786 0
      vertex 24.7717 50.5786 4.5
    endloop
  endfacet
  facet normal 0.743145 -0.66913 0
    outer loop
      vertex 24.7717 50.5786 0
      vertex 21.2746 46.6946 4.5
      vertex 21.2746 46.6946 0
    endloop
  endfacet
  facet normal 0.406737 -0.913545 0
    outer loop
      vertex 29 53.6506 0
      vertex 33.7746 55.7764 4.5
      vertex 29 53.6506 4.5
    endloop
  endfacet
  facet normal 0.406737 -0.913545 0
    outer loop
      vertex 33.7746 55.7764 4.5
      vertex 29 53.6506 0
      vertex 33.7746 55.7764 0
    endloop
  endfacet
  facet normal -0.994522 0.104529 0
    outer loop
      vertex 65.9537 26.8022 0
      vertex 66.5 32 4.5
      vertex 66.5 32 0
    endloop
  endfacet
  facet normal -0.994522 0.104529 0
    outer loop
      vertex 66.5 32 4.5
      vertex 65.9537 26.8022 0
      vertex 65.9537 26.8022 4.5
    endloop
  endfacet
  facet normal -0.406737 0.913545 0
    outer loop
      vertex 54 10.3494 0
      vertex 49.2254 8.22359 4.5
      vertex 54 10.3494 4.5
    endloop
  endfacet
  facet normal -0.406737 0.913545 0
    outer loop
      vertex 49.2254 8.22359 4.5
      vertex 54 10.3494 0
      vertex 49.2254 8.22359 0
    endloop
  endfacet
  facet normal -0.951057 0.309017 0
    outer loop
      vertex 64.3386 21.8316 0
      vertex 65.9537 26.8022 4.5
      vertex 65.9537 26.8022 0
    endloop
  endfacet
  facet normal -0.951057 0.309017 0
    outer loop
      vertex 65.9537 26.8022 4.5
      vertex 64.3386 21.8316 0
      vertex 64.3386 21.8316 4.5
    endloop
  endfacet
  facet normal 0.994522 0.104529 0
    outer loop
      vertex 17.0463 26.8022 4.5
      vertex 16.5 32 0
      vertex 16.5 32 4.5
    endloop
  endfacet
  facet normal 0.994522 0.104529 0
    outer loop
      vertex 16.5 32 0
      vertex 17.0463 26.8022 4.5
      vertex 17.0463 26.8022 0
    endloop
  endfacet
  facet normal 0.406737 0.913545 -0
    outer loop
      vertex 33.7746 8.22359 0
      vertex 29 10.3494 4.5
      vertex 33.7746 8.22359 4.5
    endloop
  endfacet
  facet normal 0.406737 0.913545 0
    outer loop
      vertex 29 10.3494 4.5
      vertex 33.7746 8.22359 0
      vertex 29 10.3494 0
    endloop
  endfacet
  facet normal 0.743145 0.669131 0
    outer loop
      vertex 24.7717 13.4214 4.5
      vertex 21.2746 17.3054 0
      vertex 21.2746 17.3054 4.5
    endloop
  endfacet
  facet normal 0.743145 0.669131 0
    outer loop
      vertex 21.2746 17.3054 0
      vertex 24.7717 13.4214 4.5
      vertex 24.7717 13.4214 0
    endloop
  endfacet
  facet normal 0.587785 0.809017 -0
    outer loop
      vertex 29 10.3494 0
      vertex 24.7717 13.4214 4.5
      vertex 29 10.3494 4.5
    endloop
  endfacet
  facet normal 0.587785 0.809017 0
    outer loop
      vertex 24.7717 13.4214 4.5
      vertex 29 10.3494 0
      vertex 24.7717 13.4214 0
    endloop
  endfacet
  facet normal -0.743145 0.669131 0
    outer loop
      vertex 58.2283 13.4214 0
      vertex 61.7254 17.3054 4.5
      vertex 61.7254 17.3054 0
    endloop
  endfacet
  facet normal -0.743145 0.669131 0
    outer loop
      vertex 61.7254 17.3054 4.5
      vertex 58.2283 13.4214 0
      vertex 58.2283 13.4214 4.5
    endloop
  endfacet
  facet normal -0.587785 0.809017 0
    outer loop
      vertex 58.2283 13.4214 0
      vertex 54 10.3494 4.5
      vertex 58.2283 13.4214 4.5
    endloop
  endfacet
  facet normal -0.587785 0.809017 0
    outer loop
      vertex 54 10.3494 4.5
      vertex 58.2283 13.4214 0
      vertex 54 10.3494 0
    endloop
  endfacet
  facet normal 0 1 -0
    outer loop
      vertex 44.1132 7.13695 0
      vertex 38.8868 7.13695 4.5
      vertex 44.1132 7.13695 4.5
    endloop
  endfacet
  facet normal 0 1 0
    outer loop
      vertex 38.8868 7.13695 4.5
      vertex 44.1132 7.13695 0
      vertex 38.8868 7.13695 0
    endloop
  endfacet
  facet normal 0.866025 0.5 0
    outer loop
      vertex 21.2746 17.3054 4.5
      vertex 18.6614 21.8316 0
      vertex 18.6614 21.8316 4.5
    endloop
  endfacet
  facet normal 0.866025 0.5 0
    outer loop
      vertex 18.6614 21.8316 0
      vertex 21.2746 17.3054 4.5
      vertex 21.2746 17.3054 0
    endloop
  endfacet
  facet normal 0.951057 0.309017 0
    outer loop
      vertex 18.6614 21.8316 4.5
      vertex 17.0463 26.8022 0
      vertex 17.0463 26.8022 4.5
    endloop
  endfacet
  facet normal 0.951057 0.309017 0
    outer loop
      vertex 17.0463 26.8022 0
      vertex 18.6614 21.8316 4.5
      vertex 18.6614 21.8316 0
    endloop
  endfacet
  facet normal -0.866025 0.5 0
    outer loop
      vertex 61.7254 17.3054 0
      vertex 64.3386 21.8316 4.5
      vertex 64.3386 21.8316 0
    endloop
  endfacet
  facet normal -0.866025 0.5 0
    outer loop
      vertex 64.3386 21.8316 4.5
      vertex 61.7254 17.3054 0
      vertex 61.7254 17.3054 4.5
    endloop
  endfacet
  facet normal 0.207912 0.978148 -0
    outer loop
      vertex 38.8868 7.13695 0
      vertex 33.7746 8.22359 4.5
      vertex 38.8868 7.13695 4.5
    endloop
  endfacet
  facet normal 0.207912 0.978148 0
    outer loop
      vertex 33.7746 8.22359 4.5
      vertex 38.8868 7.13695 0
      vertex 33.7746 8.22359 0
    endloop
  endfacet
  facet normal 1 -0 0
    outer loop
      vertex 20 85 4.5
      vertex 20 89 0
      vertex 20 89 4.5
    endloop
  endfacet
  facet normal 1 0 0
    outer loop
      vertex 20 89 0
      vertex 20 85 4.5
      vertex 20 85 0
    endloop
  endfacet
  facet normal -1 0 0
    outer loop
      vertex 60 85 0
      vertex 60 89 4.5
      vertex 60 89 0
    endloop
  endfacet
  facet normal -1 -0 0
    outer loop
      vertex 60 89 4.5
      vertex 60 85 0
      vertex 60 85 4.5
    endloop
  endfacet
  facet normal 0 1 -0
    outer loop
      vertex 60 85 0
      vertex 20 85 4.5
      vertex 60 85 4.5
    endloop
  endfacet
  facet normal 0 1 0
    outer loop
      vertex 20 85 4.5
      vertex 60 85 0
      vertex 20 85 0
    endloop
  endfacet
  facet normal 1 -0 0
    outer loop
      vertex 77 20.4425 4.5
      vertex 77 89 0
      vertex 77 89 4.5
    endloop
  endfacet
  facet normal 1 0 0
    outer loop
      vertex 77 89 0
      vertex 77 20.4425 4.5
      vertex 77 20.4425 0
    endloop
  endfacet
endsolid OpenSCAD_Model
