solid OpenSCAD_Model
  facet normal -1 0 0
    outer loop
      vertex 0 40 0
      vertex 0 3 5
      vertex 0 40 5
    endloop
  endfacet
  facet normal -1 0 0
    outer loop
      vertex 0 0 11.6
      vertex 0 3 5
      vertex 0 0 0
    endloop
  endfacet
  facet normal -1 0 0
    outer loop
      vertex 0 0 0
      vertex 0 3 5
      vertex 0 40 0
    endloop
  endfacet
  facet normal -1 0 0
    outer loop
      vertex 0 3 8.6
      vertex 0 20 11.6
      vertex 0 20 8.6
    endloop
  endfacet
  facet normal -1 0 0
    outer loop
      vertex 0 3 8.6
      vertex 0 0 11.6
      vertex 0 20 11.6
    endloop
  endfacet
  facet normal -1 0 0
    outer loop
      vertex 0 3 5
      vertex 0 0 11.6
      vertex 0 3 8.6
    endloop
  endfacet
  facet normal 0 0 1
    outer loop
      vertex 14.6194 30.5866 5
      vertex 20 40 5
      vertex 15 32.5 5
    endloop
  endfacet
  facet normal 0 0 1
    outer loop
      vertex 20 40 5
      vertex 14.6194 34.4134 5
      vertex 15 32.5 5
    endloop
  endfacet
  facet normal 0 0 1
    outer loop
      vertex 20 40 5
      vertex 13.5355 36.0355 5
      vertex 14.6194 34.4134 5
    endloop
  endfacet
  facet normal 0 0 1
    outer loop
      vertex 20 40 5
      vertex 11.9134 37.1194 5
      vertex 13.5355 36.0355 5
    endloop
  endfacet
  facet normal 0 0 1
    outer loop
      vertex 20 40 5
      vertex 10 37.5 5
      vertex 11.9134 37.1194 5
    endloop
  endfacet
  facet normal -0 0 1
    outer loop
      vertex 0 40 5
      vertex 10 37.5 5
      vertex 20 40 5
    endloop
  endfacet
  facet normal 0 0 1
    outer loop
      vertex 5.3806 34.4134 5
      vertex 0 40 5
      vertex 5 32.5 5
    endloop
  endfacet
  facet normal 0 0 1
    outer loop
      vertex 6.46447 36.0355 5
      vertex 0 40 5
      vertex 5.3806 34.4134 5
    endloop
  endfacet
  facet normal 0 0 1
    outer loop
      vertex 8.08658 37.1194 5
      vertex 0 40 5
      vertex 6.46447 36.0355 5
    endloop
  endfacet
  facet normal 0 0 1
    outer loop
      vertex 10 37.5 5
      vertex 0 40 5
      vertex 8.08658 37.1194 5
    endloop
  endfacet
  facet normal 0 0 1
    outer loop
      vertex 20 40 5
      vertex 14.6194 30.5866 5
      vertex 20 3 5
    endloop
  endfacet
  facet normal -0 0 1
    outer loop
      vertex 13.5355 28.9645 5
      vertex 20 3 5
      vertex 14.6194 30.5866 5
    endloop
  endfacet
  facet normal -0 0 1
    outer loop
      vertex 11.9134 27.8806 5
      vertex 20 3 5
      vertex 13.5355 28.9645 5
    endloop
  endfacet
  facet normal -0 0 1
    outer loop
      vertex 10 27.5 5
      vertex 20 3 5
      vertex 11.9134 27.8806 5
    endloop
  endfacet
  facet normal 0 0 1
    outer loop
      vertex 0 3 5
      vertex 10 27.5 5
      vertex 8.08658 27.8806 5
    endloop
  endfacet
  facet normal 0 0 1
    outer loop
      vertex 0 3 5
      vertex 8.08658 27.8806 5
      vertex 6.46447 28.9645 5
    endloop
  endfacet
  facet normal 0 0 1
    outer loop
      vertex 0 3 5
      vertex 6.46447 28.9645 5
      vertex 5.3806 30.5866 5
    endloop
  endfacet
  facet normal 0 0 1
    outer loop
      vertex 0 40 5
      vertex 5.3806 30.5866 5
      vertex 5 32.5 5
    endloop
  endfacet
  facet normal 0 0 1
    outer loop
      vertex 0 3 5
      vertex 5.3806 30.5866 5
      vertex 0 40 5
    endloop
  endfacet
  facet normal 0 0 1
    outer loop
      vertex 10 27.5 5
      vertex 0 3 5
      vertex 20 3 5
    endloop
  endfacet
  facet normal 1 0 0
    outer loop
      vertex 20 20 11.6
      vertex 20 3 8.6
      vertex 20 20 8.6
    endloop
  endfacet
  facet normal 1 0 0
    outer loop
      vertex 20 3 8.6
      vertex 20 0 11.6
      vertex 20 3 5
    endloop
  endfacet
  facet normal 1 -0 0
    outer loop
      vertex 20 0 11.6
      vertex 20 3 8.6
      vertex 20 20 11.6
    endloop
  endfacet
  facet normal 1 -0 0
    outer loop
      vertex 20 3 5
      vertex 20 40 0
      vertex 20 40 5
    endloop
  endfacet
  facet normal 1 0 0
    outer loop
      vertex 20 3 5
      vertex 20 0 0
      vertex 20 40 0
    endloop
  endfacet
  facet normal 1 0 0
    outer loop
      vertex 20 0 0
      vertex 20 3 5
      vertex 20 0 11.6
    endloop
  endfacet
  facet normal 0 0 -1
    outer loop
      vertex 12.4271 30.7366 0
      vertex 20 40 0
      vertex 20 0 0
    endloop
  endfacet
  facet normal 0 0 -1
    outer loop
      vertex 20 40 0
      vertex 12.4271 30.7366 0
      vertex 13 32.5 0
    endloop
  endfacet
  facet normal 0 0 -1
    outer loop
      vertex 20 0 0
      vertex 10.9271 29.6468 0
      vertex 12.4271 30.7366 0
    endloop
  endfacet
  facet normal 0 0 -1
    outer loop
      vertex 20 0 0
      vertex 9.07295 29.6468 0
      vertex 10.9271 29.6468 0
    endloop
  endfacet
  facet normal 0 0 -1
    outer loop
      vertex 0 0 0
      vertex 9.07295 29.6468 0
      vertex 20 0 0
    endloop
  endfacet
  facet normal 0 0 -1
    outer loop
      vertex 0 40 0
      vertex 7.57295 30.7366 0
      vertex 0 0 0
    endloop
  endfacet
  facet normal -0 0 -1
    outer loop
      vertex 9.07295 29.6468 0
      vertex 0 0 0
      vertex 7.57295 30.7366 0
    endloop
  endfacet
  facet normal 0 0 -1
    outer loop
      vertex 12.4271 34.2634 0
      vertex 20 40 0
      vertex 13 32.5 0
    endloop
  endfacet
  facet normal 0 0 -1
    outer loop
      vertex 10.9271 35.3532 0
      vertex 20 40 0
      vertex 12.4271 34.2634 0
    endloop
  endfacet
  facet normal 0 0 -1
    outer loop
      vertex 9.07295 35.3532 0
      vertex 20 40 0
      vertex 10.9271 35.3532 0
    endloop
  endfacet
  facet normal 0 0 -1
    outer loop
      vertex 9.07295 35.3532 0
      vertex 0 40 0
      vertex 20 40 0
    endloop
  endfacet
  facet normal 0 0 -1
    outer loop
      vertex 7.57295 34.2634 0
      vertex 0 40 0
      vertex 9.07295 35.3532 0
    endloop
  endfacet
  facet normal 0 0 -1
    outer loop
      vertex 7 32.5 0
      vertex 0 40 0
      vertex 7.57295 34.2634 0
    endloop
  endfacet
  facet normal 0 0 -1
    outer loop
      vertex 7.57295 30.7366 0
      vertex 0 40 0
      vertex 7 32.5 0
    endloop
  endfacet
  facet normal 0 -1 0
    outer loop
      vertex 0 0 0
      vertex 20 0 11.6
      vertex 0 0 11.6
    endloop
  endfacet
  facet normal 0 -1 -0
    outer loop
      vertex 20 0 11.6
      vertex 0 0 0
      vertex 20 0 0
    endloop
  endfacet
  facet normal 0 1 -0
    outer loop
      vertex 20 40 0
      vertex 0 40 5
      vertex 20 40 5
    endloop
  endfacet
  facet normal 0 1 0
    outer loop
      vertex 0 40 5
      vertex 20 40 0
      vertex 0 40 0
    endloop
  endfacet
  facet normal 0 1 -0
    outer loop
      vertex 20 3 5
      vertex 0 3 8.6
      vertex 20 3 8.6
    endloop
  endfacet
  facet normal 0 1 0
    outer loop
      vertex 0 3 8.6
      vertex 20 3 5
      vertex 0 3 5
    endloop
  endfacet
  facet normal -0 0 1
    outer loop
      vertex 0 20 11.6
      vertex 20 0 11.6
      vertex 20 20 11.6
    endloop
  endfacet
  facet normal 0 0 1
    outer loop
      vertex 20 0 11.6
      vertex 0 20 11.6
      vertex 0 0 11.6
    endloop
  endfacet
  facet normal 0 0 -1
    outer loop
      vertex 0 3 8.6
      vertex 20 20 8.6
      vertex 20 3 8.6
    endloop
  endfacet
  facet normal -0 0 -1
    outer loop
      vertex 20 20 8.6
      vertex 0 3 8.6
      vertex 0 20 8.6
    endloop
  endfacet
  facet normal 0 1 -0
    outer loop
      vertex 20 20 8.6
      vertex 0 20 11.6
      vertex 20 20 11.6
    endloop
  endfacet
  facet normal 0 1 0
    outer loop
      vertex 0 20 11.6
      vertex 20 20 8.6
      vertex 0 20 8.6
    endloop
  endfacet
  facet normal -0.951056 -0.309017 0
    outer loop
      vertex 13 32.5 0
      vertex 12.4271 34.2634 3
      vertex 12.4271 34.2634 0
    endloop
  endfacet
  facet normal -0.951056 -0.309017 0
    outer loop
      vertex 12.4271 34.2634 3
      vertex 13 32.5 0
      vertex 13 32.5 3
    endloop
  endfacet
  facet normal 0 -1 0
    outer loop
      vertex 9.07295 35.3532 0
      vertex 10.9271 35.3532 3
      vertex 9.07295 35.3532 3
    endloop
  endfacet
  facet normal 0 -1 -0
    outer loop
      vertex 10.9271 35.3532 3
      vertex 9.07295 35.3532 0
      vertex 10.9271 35.3532 0
    endloop
  endfacet
  facet normal -0.587785 -0.809017 0
    outer loop
      vertex 10.9271 35.3532 0
      vertex 12.4271 34.2634 3
      vertex 10.9271 35.3532 3
    endloop
  endfacet
  facet normal -0.587785 -0.809017 -0
    outer loop
      vertex 12.4271 34.2634 3
      vertex 10.9271 35.3532 0
      vertex 12.4271 34.2634 0
    endloop
  endfacet
  facet normal 0.951057 0.309017 0
    outer loop
      vertex 7.57295 30.7366 3
      vertex 7 32.5 0
      vertex 7 32.5 3
    endloop
  endfacet
  facet normal 0.951057 0.309017 0
    outer loop
      vertex 7 32.5 0
      vertex 7.57295 30.7366 3
      vertex 7.57295 30.7366 0
    endloop
  endfacet
  facet normal 0.587785 -0.809017 0
    outer loop
      vertex 7.57295 34.2634 0
      vertex 9.07295 35.3532 3
      vertex 7.57295 34.2634 3
    endloop
  endfacet
  facet normal 0.587785 -0.809017 0
    outer loop
      vertex 9.07295 35.3532 3
      vertex 7.57295 34.2634 0
      vertex 9.07295 35.3532 0
    endloop
  endfacet
  facet normal -0.951056 0.309017 0
    outer loop
      vertex 12.4271 30.7366 0
      vertex 13 32.5 3
      vertex 13 32.5 0
    endloop
  endfacet
  facet normal -0.951056 0.309017 0
    outer loop
      vertex 13 32.5 3
      vertex 12.4271 30.7366 0
      vertex 12.4271 30.7366 3
    endloop
  endfacet
  facet normal -0.587786 0.809017 0
    outer loop
      vertex 12.4271 30.7366 0
      vertex 10.9271 29.6468 3
      vertex 12.4271 30.7366 3
    endloop
  endfacet
  facet normal -0.587786 0.809017 0
    outer loop
      vertex 10.9271 29.6468 3
      vertex 12.4271 30.7366 0
      vertex 10.9271 29.6468 0
    endloop
  endfacet
  facet normal 0.587786 0.809017 -0
    outer loop
      vertex 9.07295 29.6468 0
      vertex 7.57295 30.7366 3
      vertex 9.07295 29.6468 3
    endloop
  endfacet
  facet normal 0.587786 0.809017 0
    outer loop
      vertex 7.57295 30.7366 3
      vertex 9.07295 29.6468 0
      vertex 7.57295 30.7366 0
    endloop
  endfacet
  facet normal 0.951057 -0.309017 0
    outer loop
      vertex 7 32.5 3
      vertex 7.57295 34.2634 0
      vertex 7.57295 34.2634 3
    endloop
  endfacet
  facet normal 0.951057 -0.309017 0
    outer loop
      vertex 7.57295 34.2634 0
      vertex 7 32.5 3
      vertex 7 32.5 0
    endloop
  endfacet
  facet normal 0 1 -0
    outer loop
      vertex 10.9271 29.6468 0
      vertex 9.07295 29.6468 3
      vertex 10.9271 29.6468 3
    endloop
  endfacet
  facet normal 0 1 0
    outer loop
      vertex 9.07295 29.6468 3
      vertex 10.9271 29.6468 0
      vertex 9.07295 29.6468 0
    endloop
  endfacet
  facet normal -0.980785 -0.195091 0
    outer loop
      vertex 15 32.5 3
      vertex 14.6194 34.4134 5
      vertex 14.6194 34.4134 3
    endloop
  endfacet
  facet normal -0.980785 -0.195091 0
    outer loop
      vertex 14.6194 34.4134 5
      vertex 15 32.5 3
      vertex 15 32.5 5
    endloop
  endfacet
  facet normal -0.195091 -0.980785 0
    outer loop
      vertex 10 37.5 3
      vertex 11.9134 37.1194 5
      vertex 10 37.5 5
    endloop
  endfacet
  facet normal -0.195091 -0.980785 -0
    outer loop
      vertex 11.9134 37.1194 5
      vertex 10 37.5 3
      vertex 11.9134 37.1194 3
    endloop
  endfacet
  facet normal 0.980785 0.19509 0
    outer loop
      vertex 5.3806 30.5866 5
      vertex 5 32.5 3
      vertex 5 32.5 5
    endloop
  endfacet
  facet normal 0.980785 0.19509 0
    outer loop
      vertex 5 32.5 3
      vertex 5.3806 30.5866 5
      vertex 5.3806 30.5866 3
    endloop
  endfacet
  facet normal -0.83147 0.55557 0
    outer loop
      vertex 13.5355 28.9645 3
      vertex 14.6194 30.5866 5
      vertex 14.6194 30.5866 3
    endloop
  endfacet
  facet normal -0.83147 0.55557 0
    outer loop
      vertex 14.6194 30.5866 5
      vertex 13.5355 28.9645 3
      vertex 13.5355 28.9645 5
    endloop
  endfacet
  facet normal -0.55557 0.83147 0
    outer loop
      vertex 13.5355 28.9645 3
      vertex 11.9134 27.8806 5
      vertex 13.5355 28.9645 5
    endloop
  endfacet
  facet normal -0.55557 0.83147 0
    outer loop
      vertex 11.9134 27.8806 5
      vertex 13.5355 28.9645 3
      vertex 11.9134 27.8806 3
    endloop
  endfacet
  facet normal -0.19509 0.980785 0
    outer loop
      vertex 11.9134 27.8806 3
      vertex 10 27.5 5
      vertex 11.9134 27.8806 5
    endloop
  endfacet
  facet normal -0.19509 0.980785 0
    outer loop
      vertex 10 27.5 5
      vertex 11.9134 27.8806 3
      vertex 10 27.5 3
    endloop
  endfacet
  facet normal -0.55557 -0.83147 0
    outer loop
      vertex 11.9134 37.1194 3
      vertex 13.5355 36.0355 5
      vertex 11.9134 37.1194 5
    endloop
  endfacet
  facet normal -0.55557 -0.83147 -0
    outer loop
      vertex 13.5355 36.0355 5
      vertex 11.9134 37.1194 3
      vertex 13.5355 36.0355 3
    endloop
  endfacet
  facet normal -0.83147 -0.55557 0
    outer loop
      vertex 14.6194 34.4134 3
      vertex 13.5355 36.0355 5
      vertex 13.5355 36.0355 3
    endloop
  endfacet
  facet normal -0.83147 -0.55557 0
    outer loop
      vertex 13.5355 36.0355 5
      vertex 14.6194 34.4134 3
      vertex 14.6194 34.4134 5
    endloop
  endfacet
  facet normal 0.195091 -0.980785 0
    outer loop
      vertex 8.08658 37.1194 3
      vertex 10 37.5 5
      vertex 8.08658 37.1194 5
    endloop
  endfacet
  facet normal 0.195091 -0.980785 0
    outer loop
      vertex 10 37.5 5
      vertex 8.08658 37.1194 3
      vertex 10 37.5 3
    endloop
  endfacet
  facet normal 0 0 1
    outer loop
      vertex 13 32.5 3
      vertex 15 32.5 3
      vertex 14.6194 34.4134 3
    endloop
  endfacet
  facet normal 0 0 1
    outer loop
      vertex 12.4271 34.2634 3
      vertex 14.6194 34.4134 3
      vertex 13.5355 36.0355 3
    endloop
  endfacet
  facet normal 0 0 1
    outer loop
      vertex 15 32.5 3
      vertex 13 32.5 3
      vertex 14.6194 30.5866 3
    endloop
  endfacet
  facet normal -0 0 1
    outer loop
      vertex 12.4271 30.7366 3
      vertex 14.6194 30.5866 3
      vertex 13 32.5 3
    endloop
  endfacet
  facet normal 0 0 1
    outer loop
      vertex 14.6194 34.4134 3
      vertex 12.4271 34.2634 3
      vertex 13 32.5 3
    endloop
  endfacet
  facet normal 0 0 1
    outer loop
      vertex 10.9271 35.3532 3
      vertex 13.5355 36.0355 3
      vertex 11.9134 37.1194 3
    endloop
  endfacet
  facet normal 0 0 1
    outer loop
      vertex 13.5355 36.0355 3
      vertex 10.9271 35.3532 3
      vertex 12.4271 34.2634 3
    endloop
  endfacet
  facet normal 0 0 1
    outer loop
      vertex 10 37.5 3
      vertex 10.9271 35.3532 3
      vertex 11.9134 37.1194 3
    endloop
  endfacet
  facet normal 0 0 1
    outer loop
      vertex 10 37.5 3
      vertex 9.07295 35.3532 3
      vertex 10.9271 35.3532 3
    endloop
  endfacet
  facet normal -0 0 1
    outer loop
      vertex 8.08658 37.1194 3
      vertex 9.07295 35.3532 3
      vertex 10 37.5 3
    endloop
  endfacet
  facet normal -0 0 1
    outer loop
      vertex 6.46447 36.0355 3
      vertex 9.07295 35.3532 3
      vertex 8.08658 37.1194 3
    endloop
  endfacet
  facet normal 0 0 1
    outer loop
      vertex 9.07295 35.3532 3
      vertex 6.46447 36.0355 3
      vertex 7.57295 34.2634 3
    endloop
  endfacet
  facet normal -0 0 1
    outer loop
      vertex 5.3806 34.4134 3
      vertex 7.57295 34.2634 3
      vertex 6.46447 36.0355 3
    endloop
  endfacet
  facet normal 0 0 1
    outer loop
      vertex 14.6194 30.5866 3
      vertex 12.4271 30.7366 3
      vertex 13.5355 28.9645 3
    endloop
  endfacet
  facet normal -0 0 1
    outer loop
      vertex 10.9271 29.6468 3
      vertex 13.5355 28.9645 3
      vertex 12.4271 30.7366 3
    endloop
  endfacet
  facet normal 0 0 1
    outer loop
      vertex 13.5355 28.9645 3
      vertex 10.9271 29.6468 3
      vertex 11.9134 27.8806 3
    endloop
  endfacet
  facet normal 0 0 1
    outer loop
      vertex 10.9271 29.6468 3
      vertex 10 27.5 3
      vertex 11.9134 27.8806 3
    endloop
  endfacet
  facet normal -0 0 1
    outer loop
      vertex 9.07295 29.6468 3
      vertex 10 27.5 3
      vertex 10.9271 29.6468 3
    endloop
  endfacet
  facet normal 0 0 1
    outer loop
      vertex 9.07295 29.6468 3
      vertex 8.08658 27.8806 3
      vertex 10 27.5 3
    endloop
  endfacet
  facet normal 0 0 1
    outer loop
      vertex 6.46447 28.9645 3
      vertex 9.07295 29.6468 3
      vertex 7.57295 30.7366 3
    endloop
  endfacet
  facet normal 0 0 1
    outer loop
      vertex 5.3806 30.5866 3
      vertex 7.57295 30.7366 3
      vertex 7 32.5 3
    endloop
  endfacet
  facet normal 0 0 1
    outer loop
      vertex 9.07295 29.6468 3
      vertex 6.46447 28.9645 3
      vertex 8.08658 27.8806 3
    endloop
  endfacet
  facet normal 0 0 1
    outer loop
      vertex 7.57295 34.2634 3
      vertex 5.3806 34.4134 3
      vertex 7 32.5 3
    endloop
  endfacet
  facet normal 0 0 1
    outer loop
      vertex 5 32.5 3
      vertex 7 32.5 3
      vertex 5.3806 34.4134 3
    endloop
  endfacet
  facet normal 0 0 1
    outer loop
      vertex 7.57295 30.7366 3
      vertex 5.3806 30.5866 3
      vertex 6.46447 28.9645 3
    endloop
  endfacet
  facet normal 0 0 1
    outer loop
      vertex 7 32.5 3
      vertex 5 32.5 3
      vertex 5.3806 30.5866 3
    endloop
  endfacet
  facet normal 0.55557 -0.83147 0
    outer loop
      vertex 6.46447 36.0355 3
      vertex 8.08658 37.1194 5
      vertex 6.46447 36.0355 5
    endloop
  endfacet
  facet normal 0.55557 -0.83147 0
    outer loop
      vertex 8.08658 37.1194 5
      vertex 6.46447 36.0355 3
      vertex 8.08658 37.1194 3
    endloop
  endfacet
  facet normal 0.83147 -0.55557 0
    outer loop
      vertex 5.3806 34.4134 5
      vertex 6.46447 36.0355 3
      vertex 6.46447 36.0355 5
    endloop
  endfacet
  facet normal 0.83147 -0.55557 0
    outer loop
      vertex 6.46447 36.0355 3
      vertex 5.3806 34.4134 5
      vertex 5.3806 34.4134 3
    endloop
  endfacet
  facet normal 0.83147 0.55557 0
    outer loop
      vertex 6.46447 28.9645 5
      vertex 5.3806 30.5866 3
      vertex 5.3806 30.5866 5
    endloop
  endfacet
  facet normal 0.83147 0.55557 0
    outer loop
      vertex 5.3806 30.5866 3
      vertex 6.46447 28.9645 5
      vertex 6.46447 28.9645 3
    endloop
  endfacet
  facet normal 0.19509 0.980785 -0
    outer loop
      vertex 10 27.5 3
      vertex 8.08658 27.8806 5
      vertex 10 27.5 5
    endloop
  endfacet
  facet normal 0.19509 0.980785 0
    outer loop
      vertex 8.08658 27.8806 5
      vertex 10 27.5 3
      vertex 8.08658 27.8806 3
    endloop
  endfacet
  facet normal 0.55557 0.83147 -0
    outer loop
      vertex 8.08658 27.8806 3
      vertex 6.46447 28.9645 5
      vertex 8.08658 27.8806 5
    endloop
  endfacet
  facet normal 0.55557 0.83147 0
    outer loop
      vertex 6.46447 28.9645 5
      vertex 8.08658 27.8806 3
      vertex 6.46447 28.9645 3
    endloop
  endfacet
  facet normal 0.980785 -0.19509 0
    outer loop
      vertex 5 32.5 5
      vertex 5.3806 34.4134 3
      vertex 5.3806 34.4134 5
    endloop
  endfacet
  facet normal 0.980785 -0.19509 0
    outer loop
      vertex 5.3806 34.4134 3
      vertex 5 32.5 5
      vertex 5 32.5 3
    endloop
  endfacet
  facet normal -0.980785 0.195091 0
    outer loop
      vertex 14.6194 30.5866 3
      vertex 15 32.5 5
      vertex 15 32.5 3
    endloop
  endfacet
  facet normal -0.980785 0.195091 0
    outer loop
      vertex 15 32.5 5
      vertex 14.6194 30.5866 3
      vertex 14.6194 30.5866 5
    endloop
  endfacet
endsolid OpenSCAD_Model
