solid OpenSCAD_Model
  facet normal -1 0 0
    outer loop
      vertex 0 0 0
      vertex 0 80 2
      vertex 0 80 0
    endloop
  endfacet
  facet normal -1 -0 0
    outer loop
      vertex 0 80 2
      vertex 0 0 0
      vertex 0 0 2
    endloop
  endfacet
  facet normal -0 0 1
    outer loop
      vertex 0 80 2
      vertex 62 0 2
      vertex 62 80 2
    endloop
  endfacet
  facet normal 0 0 1
    outer loop
      vertex 62 0 2
      vertex 0 80 2
      vertex 0 0 2
    endloop
  endfacet
  facet normal 1 -0 0
    outer loop
      vertex 62 0 2
      vertex 62 80 0
      vertex 62 80 2
    endloop
  endfacet
  facet normal 1 0 0
    outer loop
      vertex 62 80 0
      vertex 62 0 2
      vertex 62 0 0
    endloop
  endfacet
  facet normal 0 -1 0
    outer loop
      vertex 0 0 0
      vertex 62 0 2
      vertex 0 0 2
    endloop
  endfacet
  facet normal 0 -1 -0
    outer loop
      vertex 62 0 2
      vertex 0 0 0
      vertex 62 0 0
    endloop
  endfacet
  facet normal 0 1 -0
    outer loop
      vertex 62 80 0
      vertex 0 80 2
      vertex 62 80 2
    endloop
  endfacet
  facet normal 0 1 0
    outer loop
      vertex 0 80 2
      vertex 62 80 0
      vertex 0 80 0
    endloop
  endfacet
  facet normal 0 0 -1
    outer loop
      vertex 0 0 0
      vertex 62 80 0
      vertex 62 0 0
    endloop
  endfacet
  facet normal -0 0 -1
    outer loop
      vertex 62 80 0
      vertex 0 0 0
      vertex 0 80 0
    endloop
  endfacet
endsolid OpenSCAD_Model
